<svg width="146" height="26" viewBox="0 0 146 26" fill="none" xmlns="http://www.w3.org/2000/svg">
<g clip-path="url(#clip0_0_697)">
<path fill-rule="evenodd" clip-rule="evenodd" d="M42.2512 24.8372H40.2548V0.217222H42.3677V24.8372H42.2511H42.2512ZM89.526 11.0854L99.4876 0.255374L99.5563 0.319003V0.217222H102.335L92.4691 10.894L102.158 24.8372H99.6458L91.0618 12.4737L89.526 14.2146V24.8372H87.4134V0.21718H89.526V11.0853L89.526 11.0854ZM15.8944 2.78404C14.8306 2.40545 13.6709 2.20389 12.443 2.20389H12.3518C9.57595 2.22912 7.05294 3.4084 5.21417 5.27714C3.34291 7.17885 2.17961 9.79507 2.17961 12.6353C2.17961 15.5002 3.33633 18.1093 5.19774 20.0014C7.05766 21.8914 9.62294 23.0669 12.4429 23.0669C13.6788 23.0669 14.8488 22.8767 15.9236 22.5052C16.9963 22.1344 17.9773 21.5821 18.8387 20.8579L18.9224 20.7874L20.4146 22.3597L20.3182 22.4396C19.2396 23.3333 17.9979 24.0479 16.6396 24.5332C15.3352 24.9991 13.9226 25.2542 12.4429 25.2542C9.01146 25.2542 5.90815 23.8301 3.65947 21.5465C1.39803 19.2496 -3.05176e-05 16.0825 -3.05176e-05 12.619C-3.05176e-05 9.18225 1.40429 6.01203 3.67448 3.7096C5.92124 1.43048 9.01842 2.28882e-05 12.4429 2.28882e-05C13.9099 2.28882e-05 15.3113 0.266753 16.6064 0.743236C17.977 1.24754 19.23 1.98883 20.3182 2.89875L20.4137 2.97815L18.9221 4.5502L18.8383 4.47946C17.9742 3.74562 16.9829 3.17142 15.8943 2.78404H15.8944ZM106.543 24.8536H104.68V0.233788H106.659V24.8536H106.543ZM61.4527 0.530764C61.6722 0.31118 61.9729 0.167231 62.3126 0.167231C62.6502 0.167231 62.9496 0.313313 63.168 0.532311C63.4015 0.766579 63.5438 1.08698 63.5438 1.40266C63.5438 1.75151 63.4101 2.06053 63.1892 2.28225C62.9682 2.50396 62.6604 2.63796 62.3126 2.63796C61.9649 2.63796 61.6569 2.50392 61.436 2.28225C61.215 2.06053 61.0814 1.75151 61.0814 1.40266C61.0814 1.08012 61.2219 0.762437 61.4527 0.530764ZM32.4176 9.74709C33.4256 10.246 34.315 10.9549 35.0319 11.8311V9.39765H37.1448V24.8705H35.0319V22.3064C34.3102 23.1985 33.4127 23.9302 32.3955 24.4471C31.3138 24.9968 30.0963 25.3042 28.8108 25.3042C26.5499 25.3042 24.4992 24.3811 23.0145 22.8913C21.5297 21.4015 20.6098 19.3437 20.6098 17.0752C20.6098 14.8366 21.533 12.7927 23.0223 11.3103C24.507 9.83339 26.5541 8.91331 28.8108 8.91331C30.1047 8.91331 31.3303 9.20882 32.4176 9.74705V9.74709ZM24.4498 21.4331C25.5614 22.5487 27.1021 23.2342 28.8108 23.2342C30.4919 23.2342 32.038 22.5395 33.1595 21.4141C34.2701 20.2997 34.9652 18.7621 34.9652 17.0588C34.9652 15.38 34.2629 13.8358 33.1429 12.7121C32.0229 11.5883 30.4839 10.8836 28.8108 10.8836C27.1066 10.8836 25.5758 11.5795 24.4677 12.6913C23.3462 13.8166 22.6562 15.3694 22.6562 17.0588C22.6562 18.7772 23.3403 20.3201 24.4498 21.4331H24.4498ZM46.2667 9.46664L51.5179 21.1178L56.8827 9.39769H59.1514C56.5999 14.9285 54.0619 20.4662 51.517 26L43.8829 9.39769H46.2356L46.2666 9.46668L46.2667 9.46664ZM63.2107 24.8705H61.2144V9.39769H63.3272V24.8705H63.2107H63.2107ZM70.0572 9.44354C70.8448 9.08804 71.7298 8.91339 72.6088 8.91339C74.312 8.91339 75.8554 9.60707 76.9723 10.7275C78.0894 11.848 78.7806 13.3966 78.7806 15.1058V24.8705H76.734V15.1058C76.734 13.9403 76.2736 12.881 75.5256 12.1154C74.7824 11.3549 73.7536 10.8832 72.6088 10.8832C71.3938 10.8832 70.3228 11.309 69.5663 12.068C68.8395 12.7973 68.4003 13.8377 68.4003 15.1058V24.8705H66.2875V9.39769H68.4003V10.6535C68.856 10.1308 69.4258 9.72851 70.0572 9.44354ZM128.522 0.547246C128.741 0.327662 129.042 0.183714 129.382 0.183714C129.719 0.183714 130.019 0.329796 130.237 0.548794C130.471 0.783061 130.613 1.10346 130.613 1.41914C130.613 1.76799 130.479 2.07701 130.258 2.29873C130.038 2.52045 129.73 2.65456 129.382 2.65456C129.034 2.65456 128.726 2.52045 128.505 2.29873C128.284 2.07701 128.151 1.76799 128.151 1.41914C128.151 1.0966 128.291 0.77892 128.522 0.547246ZM137.277 9.44354C138.064 9.08804 138.95 8.91339 139.828 8.91339C141.532 8.91339 143.075 9.60707 144.192 10.7275C145.309 11.848 146 13.3966 146 15.1058V24.8705H143.953V15.1058C143.953 13.9403 143.493 12.881 142.745 12.1154C142.002 11.3551 140.974 10.8832 139.828 10.8832C138.613 10.8832 137.542 11.309 136.786 12.068C136.059 12.7973 135.62 13.8377 135.62 15.1058V24.8705H133.574V9.39769H135.62V10.6535C136.076 10.1308 136.646 9.72851 137.277 9.44354H137.277ZM111.776 11.293C113.244 9.82 115.278 8.91339 117.538 8.91339H117.819L117.798 8.93472C119.925 9.00643 121.859 9.90434 123.276 11.3257C124.743 12.7975 125.656 14.8316 125.656 17.0917V17.3422H111.387C111.449 18.9707 112.143 20.4314 113.226 21.4921C114.338 22.5814 115.862 23.2508 117.538 23.2508C118.73 23.2508 119.85 22.9157 120.792 22.3258C121.747 21.7283 122.522 20.8675 123.006 19.8301L123.056 19.7237L124.862 20.5922L124.813 20.6969C124.173 22.0571 123.133 23.2022 121.852 24.0011C120.596 24.7847 119.108 25.2374 117.538 25.2374C115.277 25.2374 113.243 24.3308 111.776 22.8578C110.307 21.3845 109.404 19.3436 109.404 17.0753C109.404 14.8069 110.307 12.7663 111.776 11.293H111.776ZM111.64 15.2057H123.354C122.983 13.982 122.232 12.9211 121.242 12.1598C120.215 11.3701 118.928 10.9001 117.538 10.9001C116.151 10.9001 114.86 11.3573 113.821 12.1364C112.809 12.8951 112.034 13.9601 111.64 15.2057L111.64 15.2057ZM130.214 24.8705H128.284V9.39769H130.33V24.8705H130.214Z" fill="black"/>
</g>
<defs>
<clipPath id="clip0_0_697">
<rect width="146" height="26" fill="white"/>
</clipPath>
</defs>
</svg>
