<svg width="141" height="26" viewBox="0 0 141 26" fill="none" xmlns="http://www.w3.org/2000/svg">
<g clip-path="url(#clip0_0_711)">
<path d="M13.41 6.80001C14.3024 6.82226 15.179 7.04075 15.9775 7.43999C16.7759 7.83923 17.4767 8.4094 18.03 9.11V9.24001L18.16 9.37001C18.4964 9.77999 18.919 10.1108 19.3978 10.3389C19.8765 10.5671 20.3997 10.687 20.93 10.69C21.3996 10.6927 21.865 10.6021 22.2993 10.4237C22.7336 10.2452 23.1282 9.98232 23.4603 9.65029C23.7923 9.31825 24.0552 8.92364 24.2336 8.48931C24.4121 8.05498 24.5027 7.58957 24.5 7.12001C24.5077 6.23844 24.1787 5.38716 23.58 4.74001C22.4015 3.17739 20.8587 1.92673 19.0861 1.09706C17.3135 0.267397 15.3648 -0.116099 13.41 -0.020002C5.75 -0.020002 0 5.26 0 12.73C0 20.2 5.67999 25.48 13.27 25.54H13.67C15.5481 25.5975 17.4149 25.2298 19.131 24.4644C20.847 23.6991 22.3679 22.5558 23.58 21.12C24.1222 20.4709 24.4258 19.6557 24.44 18.81C24.4504 18.0997 24.2418 17.4034 23.8427 16.8157C23.4436 16.228 22.8733 15.7774 22.2092 15.5251C21.5451 15.2728 20.8195 15.231 20.1308 15.4054C19.4422 15.5798 18.8239 15.962 18.36 16.5C17.7488 17.2303 16.9835 17.8161 16.119 18.2155C15.2545 18.6149 14.3122 18.818 13.36 18.81C9.85999 18.81 7.87997 16.3 7.87997 12.73C7.87997 9.16 9.87999 6.79 13.36 6.79L13.41 6.80001ZM63.74 25.56H64C71.53 25.49 77.34 20.21 77.34 12.88C77.34 5.35002 71.46 1.75238e-05 63.87 1.75238e-05C56.28 1.75238e-05 50.4 5.35002 50.4 12.88C50.4 20.21 56.21 25.49 63.74 25.56ZM94.74 25.56H95.07C96.9636 25.635 98.8492 25.2757 100.583 24.5096C102.316 23.7434 103.851 22.5908 105.07 21.14C105.629 20.4962 105.953 19.6819 105.99 18.83C105.979 17.8929 105.598 16.9982 104.928 16.3421C104.259 15.686 103.357 15.322 102.42 15.33C101.93 15.3305 101.445 15.4372 101 15.6426C100.554 15.848 100.159 16.1473 99.84 16.52C99.2335 17.2557 98.4691 17.8454 97.6035 18.2453C96.7379 18.6452 95.7934 18.8451 94.84 18.83C91.34 18.83 89.36 16.32 89.36 12.75C89.36 9.18002 91.36 6.81002 94.84 6.81002C95.7267 6.81736 96.5998 7.02971 97.3908 7.43044C98.1819 7.83117 98.8695 8.40942 99.4 9.12001L99.53 9.25002C99.5384 9.29987 99.563 9.34556 99.6 9.38002C99.9325 9.79734 100.353 10.1357 100.832 10.3709C101.311 10.6061 101.836 10.7321 102.37 10.74C102.84 10.7427 103.305 10.6521 103.739 10.4736C104.174 10.2952 104.568 10.0323 104.9 9.7003C105.232 9.36827 105.495 8.97365 105.674 8.53932C105.852 8.10499 105.943 7.63956 105.94 7.17C105.948 6.28843 105.619 5.43715 105.02 4.79C103.842 3.22738 102.299 1.97675 100.526 1.14708C98.7535 0.317415 96.8048 -0.066081 94.85 0.0300163C87.19 0.0300163 81.44 5.31002 81.44 12.78C81.44 20.25 87.12 25.53 94.71 25.59L94.74 25.56ZM119.84 25.56H120.24C127.83 25.49 130.15 21.86 130.15 17.37C130.15 12.22 125.66 10.57 122.09 9.71001C118.79 8.98001 117.2 8.85001 117.2 7.46001C117.2 6.46001 118.06 6.01 119.84 6.01C121.591 6.06483 123.271 6.71771 124.6 7.86C125.153 8.34978 125.861 8.62943 126.6 8.65001C127.396 8.65001 128.159 8.33393 128.721 7.77132C129.284 7.20871 129.6 6.44566 129.6 5.65001C129.596 5.22646 129.506 4.80816 129.334 4.4211C129.162 4.03404 128.912 3.68649 128.6 3.40001C127.422 2.25856 126.023 1.37059 124.489 0.790972C122.955 0.211351 121.318 -0.0476183 119.68 0.0300163C114.46 0.0300163 110.24 2.27999 110.24 7.81999C110.24 12.91 113.94 14.75 117.31 15.61C121.31 16.67 122.79 16.67 122.79 17.99C122.79 19.05 122 19.51 119.49 19.51C117.527 19.4921 115.633 18.7841 114.14 17.51L114.21 17.58C113.677 17.0824 112.985 16.7899 112.256 16.7548C111.528 16.7196 110.811 16.944 110.233 17.388C109.654 17.8321 109.252 18.4669 109.098 19.1796C108.943 19.8922 109.047 20.6365 109.39 21.28C109.39 21.35 109.46 21.35 109.46 21.41C109.51 21.5081 109.578 21.5962 109.66 21.67C109.687 21.746 109.731 21.8146 109.79 21.87L109.99 22.07C109.99 22.14 110.06 22.14 110.12 22.2C112.806 24.4774 116.24 25.6781 119.76 25.57L119.84 25.56ZM63.9 19.02C60.47 19.02 58.35 16.44 58.35 12.88C58.35 9.32002 60.46 6.67 63.9 6.67C67.34 6.67 69.45 9.18002 69.45 12.88C69.45 16.58 67.34 19.02 63.9 19.02Z" fill="black"/>
<path d="M46.5 1.58001C45.3173 0.985173 43.977 0.778708 42.67 0.99001C40.3513 1.29484 38.1955 2.34818 36.53 3.99001V4.06002V3.99001C36.4559 2.98745 35.9995 2.05167 35.255 1.37609C34.5106 0.700504 33.5351 0.336754 32.53 0.360005C31.4863 0.359679 30.4837 0.767369 29.7364 1.49602C28.989 2.22467 28.5561 3.21656 28.53 4.26V21.56C28.6662 22.52 29.1465 23.3979 29.8814 24.0303C30.6164 24.6627 31.5561 25.0066 32.5257 24.998C33.4952 24.9895 34.4287 24.629 35.1524 23.9838C35.8761 23.3385 36.3408 22.4523 36.46 21.49V16.84C36.46 10.37 40.22 8.78002 42.27 8.72002C43.2859 8.95691 44.3271 9.06773 45.37 9.05001C46.1786 8.88484 46.9163 8.47362 47.4819 7.87273C48.0476 7.27184 48.4136 6.5107 48.5297 5.69365C48.6458 4.87661 48.5063 4.04365 48.1304 3.30898C47.7545 2.5743 47.1606 1.97388 46.43 1.59002L46.5 1.58001Z" fill="black"/>
<path d="M131.96 1.45H132.03V0.74001C132.047 0.628729 132.07 0.518551 132.1 0.410024V0.150014L132.3 -0.0499982H132.63C132.681 -0.0566891 132.734 -0.0478912 132.78 -0.0247296C132.826 -0.00156806 132.865 0.0349067 132.89 0.0800067C132.96 0.150007 133.02 0.150019 133.02 0.280019C133.081 0.403874 133.106 0.542725 133.09 0.680013V1.41002H133.42C133.62 1.41002 133.68 1.41 133.75 1.48C133.818 1.55188 133.863 1.64238 133.88 1.74001C133.88 1.87001 133.81 1.94002 133.68 2.00002C133.544 2.09106 133.383 2.13659 133.22 2.13002H133.09V4.31002C133.09 4.44002 133.09 4.51 133.16 4.51C133.191 4.54954 133.23 4.58173 133.275 4.60421C133.32 4.62669 133.37 4.6389 133.42 4.64C133.456 4.64442 133.493 4.64042 133.528 4.62829C133.563 4.61615 133.594 4.59619 133.62 4.57H133.88C133.916 4.56558 133.953 4.56961 133.988 4.58175C134.023 4.59388 134.054 4.61381 134.08 4.64C134.12 4.67104 134.152 4.71046 134.174 4.75542C134.197 4.80038 134.209 4.84976 134.21 4.90001C134.198 4.97234 134.167 5.04041 134.122 5.09804C134.077 5.15568 134.017 5.20104 133.95 5.23C133.712 5.37297 133.437 5.44256 133.16 5.43001C132.901 5.44457 132.645 5.37434 132.43 5.23C132.27 5.11947 132.153 4.95691 132.1 4.77001C132.1 4.64001 132.03 4.37 132.03 4.04V2.12002H131.9C131.778 2.11846 131.66 2.07221 131.57 1.99001C131.5 1.92001 131.5 1.86 131.5 1.73C131.493 1.63785 131.517 1.54599 131.57 1.47002C131.64 1.40002 131.77 1.40001 131.97 1.40001L131.96 1.45Z" fill="black"/>
<path d="M138.03 3.4999V4.81988C138.037 4.98312 137.991 5.14424 137.9 5.2799C137.842 5.34445 137.771 5.39574 137.692 5.43026C137.612 5.46478 137.527 5.48171 137.44 5.47988C137.372 5.4813 137.304 5.46326 137.246 5.42785C137.187 5.39243 137.14 5.34112 137.11 5.2799C136.98 5.2099 136.98 5.01988 136.98 4.81988V3.16988C136.98 2.96988 136.91 2.76989 136.91 2.57989C136.911 2.5191 136.9 2.45867 136.878 2.40224C136.855 2.34582 136.821 2.29457 136.778 2.25158C136.735 2.20859 136.684 2.17476 136.628 2.15212C136.571 2.12949 136.511 2.11853 136.45 2.1199C136.32 2.10291 136.187 2.12525 136.07 2.18404C135.952 2.24284 135.855 2.3354 135.79 2.44988C135.646 2.76295 135.577 3.10548 135.59 3.44988V4.8399C135.604 4.92141 135.599 5.00493 135.577 5.08446C135.554 5.164 135.514 5.23756 135.46 5.29989C135.421 5.36927 135.362 5.42539 135.291 5.46102C135.219 5.49665 135.139 5.51019 135.06 5.4999C134.93 5.4999 134.86 5.42989 134.73 5.29989C134.676 5.23756 134.636 5.164 134.613 5.08446C134.591 5.00493 134.586 4.92141 134.6 4.8399V1.92989C134.6 1.72989 134.6 1.5999 134.73 1.5299C134.76 1.46868 134.807 1.41737 134.866 1.38195C134.924 1.34653 134.992 1.32847 135.06 1.32989C135.182 1.33144 135.3 1.37769 135.39 1.45989C135.44 1.51273 135.478 1.57604 135.5 1.64522C135.523 1.71441 135.529 1.78774 135.52 1.85989V1.98989C135.664 1.77855 135.87 1.61766 136.11 1.5299C136.306 1.40087 136.535 1.33208 136.77 1.33208C137.005 1.33208 137.234 1.40087 137.43 1.5299C137.535 1.56952 137.63 1.63103 137.709 1.71035C137.789 1.78966 137.85 1.88495 137.89 1.98989C137.942 1.88096 138.016 1.7839 138.107 1.70476C138.198 1.62563 138.305 1.56612 138.42 1.5299C138.613 1.39547 138.844 1.32548 139.08 1.32989C139.338 1.32444 139.591 1.39394 139.81 1.5299C139.913 1.56189 140.005 1.62187 140.075 1.70312C140.146 1.78436 140.193 1.88365 140.21 1.98989C140.34 2.11989 140.34 2.3899 140.41 2.7199V4.89989C140.34 5.09989 140.34 5.22989 140.21 5.29989C140.18 5.36111 140.132 5.41242 140.074 5.44784C140.016 5.48325 139.948 5.50132 139.88 5.4999C139.801 5.51019 139.721 5.49665 139.649 5.46102C139.578 5.42539 139.519 5.36927 139.48 5.29989C139.426 5.23756 139.386 5.164 139.363 5.08446C139.341 5.00493 139.336 4.92141 139.35 4.8399V3.1199C139.35 2.9199 139.28 2.7199 139.28 2.5899C139.278 2.46771 139.232 2.3503 139.15 2.25988C139.039 2.16622 138.895 2.11962 138.75 2.1299C138.628 2.13146 138.51 2.17768 138.42 2.25988C138.28 2.33464 138.165 2.44954 138.09 2.5899C138.019 2.89112 137.996 3.20144 138.02 3.50988L138.03 3.4999Z" fill="black"/>
</g>
<defs>
<clipPath id="clip0_0_711">
<rect width="140.41" height="25.56" fill="white"/>
</clipPath>
</defs>
</svg>
