<svg width="121" height="34" viewBox="0 0 121 34" fill="none" xmlns="http://www.w3.org/2000/svg">
<g clip-path="url(#clip0_0_700)">
<path d="M60.5601 27.67C60.068 28.1102 59.4396 28.3679 58.7801 28.4C58.0501 28.4 57.3901 27.94 57.3901 26.81C57.3901 24.17 61.0901 21.66 63.5301 21.72C63.0001 23.83 62.6101 25.95 60.5301 27.66L60.5601 27.67ZM106.99 27.93C105.632 27.6109 104.371 26.9701 103.313 26.0617C102.255 25.1532 101.431 24.0037 100.91 22.71C102.1 21.71 103.55 20.86 104.91 19.87C105.589 19.4181 106.083 18.7364 106.3 17.95C106.713 16.912 106.979 15.8215 107.09 14.71C107.09 14.12 107.09 13.71 106.43 13.79C105.77 13.87 103.43 15.24 102.86 15.64C99.7854 17.7789 97.0656 20.3874 94.8001 23.37C95.8601 19.14 97.0501 12.94 97.5101 9.77C97.851 8.69232 97.8263 7.53223 97.4401 6.46998C96.7361 5.41051 95.8408 4.4915 94.8001 3.75999C93.8801 3.22999 93.4101 3.83 93.2101 4.68C92.6201 7.68 92.2901 9.36998 91.7601 11.88C91.0981 15.4029 90.0934 18.8526 88.7601 22.18C87.9001 24.43 85.8501 28.39 83.5401 28.39C81.2301 28.39 82.1501 22.97 82.1501 21.52C82.0801 20.99 82.0201 19.74 80.8301 19.52C76.7401 18.6 76.0701 17.21 75.2801 17.41C74.7501 17.48 74.4901 17.94 74.2801 18.6C73.4201 21.37 72.9601 23.82 71.3701 26.19C70.6401 27.31 69.2601 28.7 68.2001 28.7C67.1401 28.7 66.8101 27.7 66.8101 26.78C66.9134 24.4584 67.2688 22.1548 67.8701 19.91C68.1301 18.79 67.5401 18.59 66.9501 18.39C66.2945 18.233 65.6241 18.1458 64.9501 18.13C61.8145 18.139 58.7789 19.2346 56.3601 21.23C55.3409 22.0852 54.4307 23.0626 53.6501 24.14C52.7301 25.26 49.9501 28.63 48.3001 28.63C47.1801 28.63 47.0501 27.38 47.0501 26.45C47.0501 22.55 48.9001 16.54 50.2901 12.98C51.1516 11.0884 51.9029 9.14847 52.5401 7.16999C52.664 6.69421 52.6752 6.19606 52.5728 5.71519C52.4704 5.23432 52.2572 4.78399 51.9501 4.4C51.317 3.53439 50.5054 2.81482 49.5701 2.28999C49.3166 2.15988 49.022 2.13522 48.7504 2.22138C48.4788 2.30755 48.2522 2.49757 48.1201 2.75001C47.446 3.77341 46.8701 4.85823 46.4001 5.99C43.7415 11.4304 42.2787 17.3771 42.1101 23.43C42.1101 26.6 42.5101 32.43 46.8001 32.35C49.1801 32.35 51.2201 30.9 52.8001 29.18C53.0601 31.18 54.7201 32.35 56.9601 32.35C58.1782 32.3093 59.3709 31.9908 60.4472 31.4189C61.5234 30.847 62.4548 30.0368 63.1701 29.05C63.3813 30.0176 63.9277 30.8793 64.7127 31.4832C65.4976 32.087 66.4707 32.394 67.4601 32.35C72.5501 32.35 75.5801 26.74 76.9701 22.51L77.3701 22.71C77.3701 23.17 77.3001 23.9 77.3001 24.49C77.3001 27.79 78.0901 32.42 82.4501 32.35C86.0801 32.35 88.4501 28.92 90.1801 26.14H90.2501C89.9901 28.06 89.5901 29.57 89.4601 31.56C89.3901 32.42 90.5801 32.29 91.1101 32.29C93.7501 32.29 93.6201 31.7 94.3501 29.45C94.9128 28.0552 95.8214 26.8266 96.9901 25.88C97.8701 27.673 99.1051 29.2685 100.62 30.57C101.718 31.5919 103.126 32.2183 104.62 32.35C105.125 32.3779 105.622 32.2135 106.01 31.89C106.837 31.1117 107.45 30.1337 107.79 29.05C107.795 28.8003 107.711 28.5571 107.553 28.3631C107.396 28.1692 107.175 28.0371 106.93 27.99L106.99 27.93Z" fill="black"/>
<path d="M120.66 25.03C120.79 27.47 118.94 29.26 116.43 30.64C114.033 31.9817 111.316 32.6454 108.57 32.56C108.04 32.56 107.78 32.23 107.84 31.5C107.945 30.8993 108.144 30.3189 108.43 29.78C108.588 29.4174 108.845 29.1071 109.173 28.8857C109.501 28.6643 109.885 28.541 110.28 28.53C111.243 28.5085 112.199 28.3537 113.12 28.07C114.37 27.74 115.63 27.21 115.63 26.15C115.63 24.3 107.7 25.36 107.7 21.86C107.7 18.36 113.58 16.58 115.89 15.92C116.778 15.6974 117.686 15.5635 118.6 15.52C119.13 15.52 119.39 15.85 119.26 16.31C119.06 17.43 118.53 18.75 117.34 19.02C115.904 19.2869 114.49 19.6613 113.11 20.14C112.85 20.27 112.65 20.47 112.65 20.67C112.65 20.87 112.98 21.07 113.44 21.2C115.44 21.73 120.44 21.99 120.64 25.03H120.66Z" fill="black"/>
<path d="M40.88 32.16C40.09 32.16 39.36 32.09 38.57 32.03C35.9909 31.6466 33.3875 31.4494 30.78 31.44C26.2198 31.4753 21.6693 31.8665 17.17 32.61C14.1103 33.134 11.021 33.468 7.92001 33.61H7.19001C3.62001 33.61 0.120005 32.69 -0.00999451 28.39V28.06C0.120005 22.58 6.20001 15.84 11.99 11.28C16.743 7.47208 22.0121 4.35771 27.64 2.03001C30.1589 0.94204 32.8365 0.266731 35.57 0.030014C37.57 0.030014 37.22 1.74999 35.77 4.18999C34.32 6.62999 33.77 7.1 31.94 7.36C28.7 7.76 24.01 8.15 15.1 14.95C10.01 18.85 5.39001 24.2 5.52001 26.95C5.52001 28.67 6.84001 29.26 8.43001 29.26C11.2294 29.1155 14.0121 28.7409 16.75 28.14C21.97 27.22 28.57 25.83 34.05 25.83C35.4506 25.8049 36.8487 25.9595 38.21 26.29C39.0879 26.5746 39.8405 27.154 40.34 27.93C40.8269 28.6029 41.2679 29.3078 41.66 30.04C41.92 30.7 42.25 31.36 41.99 31.76C41.92 32.02 41.59 32.16 40.87 32.16H40.88Z" fill="black"/>
</g>
<defs>
<clipPath id="clip0_0_700">
<rect width="120.67" height="33.62" fill="white"/>
</clipPath>
</defs>
</svg>
