<svg width="110" height="25" viewBox="0 0 110 25" fill="none" xmlns="http://www.w3.org/2000/svg">
<g clip-path="url(#clip0_0_704)">
<path d="M13.9851 8.36607C13.1673 8.12289 12.4312 7.96078 11.6134 7.96078C7.27881 7.96078 6.70632 12.1758 6.70632 15.8234V24.2533H0V0.82772H6.70632V4.15108H6.86989C8.01487 2.7731 10.1413 0.82772 12.4312 0.746662C13.4126 0.746662 14.7212 0.908777 15.539 1.23301L13.9851 8.36607Z" fill="#B62C30"/>
<path d="M32.0595 9.50087C31.6505 7.06915 30.1784 4.71848 27.5613 4.71848C24.8624 4.71848 23.3903 7.06915 22.9814 9.50087H32.0595ZM22.8178 13.6348C22.8178 16.5529 23.9628 19.8762 27.4795 19.8762C29.6877 19.8762 31.078 18.5793 32.0595 16.715L38.1933 17.6877C36.5576 22.389 32.4684 24.9829 27.4795 24.9829C20.2007 24.9829 15.7026 19.8762 15.7026 12.7432C15.7026 5.69117 19.5464 0.0982018 27.1524 0.0982018C34.9219 0.0982018 38.3568 5.77223 38.3568 12.8242V13.6348H22.8178Z" fill="#B62C30"/>
<path d="M47.5167 24.0912H40.8104V0.665604H47.5167V24.0912Z" fill="#B62C30"/>
<path d="M57.4944 2.93521H57.5762C58.8847 1.07089 61.1747 0.0982018 63.3829 0.0982018C66.3271 0.0982018 68.3717 1.15195 70.0892 3.58367C71.5613 1.47618 74.342 0.0982018 77.0409 0.0982018C83.0929 0.0982018 84.565 4.55636 84.565 9.66299V24.2533H77.8587V11.9326C77.8587 9.66299 77.9405 5.448 74.6691 5.448C70.9888 5.448 71.0706 10.3114 71.0706 12.7432V24.2533H64.2825V12.3379C64.2825 10.0683 64.6096 5.448 61.0929 5.448C57.3308 5.448 57.4944 10.3114 57.4944 12.7432V24.2533H50.7881V0.827719H57.4944V2.93521Z" fill="#B62C30"/>
<path d="M103.866 12.5C103.866 9.33876 101.903 5.93434 98.3866 5.93434C94.9517 5.93434 93.0706 9.33876 93.0706 12.5C93.0706 15.5802 94.9517 19.0657 98.3866 19.0657C101.903 19.0657 103.866 15.5802 103.866 12.5ZM110 24.1723H103.375V22.0648H103.294C101.822 23.9291 99.777 24.9829 97.3234 24.9829C90.3718 24.9829 86.4461 18.7414 86.4461 12.3379C86.4461 6.17751 90.3718 0.0171432 97.1599 0.0171432C99.6134 0.0171432 101.74 1.07089 103.375 2.93521V0.746661H110V24.1723Z" fill="#B62C30"/>
</g>
<defs>
<clipPath id="clip0_0_704">
<rect width="110" height="25" fill="white"/>
</clipPath>
</defs>
</svg>
