<svg width="110" height="41" viewBox="0 0 110 41" fill="none" xmlns="http://www.w3.org/2000/svg">
<g clip-path="url(#clip0_0_802)">
<path fill-rule="evenodd" clip-rule="evenodd" d="M41.7586 8.23403H35.9862L44.1661 1.52588e-05H49.9245L41.7445 8.23403H41.7586Z" fill="#D02229"/>
<path d="M18.2465 24.9004C16.1335 24.0968 13.9578 23.4711 11.742 23.0297C8.67273 22.2786 6.71572 21.6125 5.9836 20.8756C5.613 20.5519 5.32032 20.1477 5.12764 19.6935C4.93495 19.2393 4.84733 18.747 4.87136 18.2537C4.85911 17.6475 4.99683 17.0477 5.27209 16.5084C5.54735 15.9691 5.95151 15.5072 6.44822 15.1642C7.96385 14.1776 9.75946 13.7196 11.5589 13.8604C13.3472 13.7294 15.1247 14.2306 16.5852 15.2776C17.7233 16.2879 18.4504 17.686 18.6267 19.2032H22.3435C22.2905 17.5609 21.7727 15.9679 20.8512 14.6115C19.9625 13.1775 18.6176 12.0885 17.0357 11.5219C15.2607 10.7441 13.3395 10.3622 11.4041 10.4024C9.55791 10.4019 7.72833 10.7529 6.01177 11.4369C4.55476 12.0093 3.29329 12.9937 2.37936 14.2713C1.56574 15.5363 1.14427 17.0162 1.16855 18.523C1.10715 19.8218 1.46798 21.1055 2.19634 22.1794C2.93382 23.3963 3.99772 24.3788 5.26558 25.0138C7.06399 25.8333 8.95525 26.4283 10.8972 26.7854C13.5019 27.4373 15.2617 28.0042 16.0079 28.2876C17.0411 28.5997 17.9737 29.1816 18.7111 29.9741C19.1815 30.7004 19.44 31.5449 19.4573 32.4117C19.4656 33.322 19.1734 34.2093 18.6267 34.9343C17.9982 35.7984 17.1245 36.4506 16.1206 36.805C14.8758 37.2782 13.5506 37.4998 12.2207 37.457C10.692 37.4861 9.17348 37.2016 7.75758 36.6208C6.63952 36.0906 5.67139 35.2866 4.94176 34.2824C4.26425 33.3146 3.84712 32.1868 3.73096 31.0086H-0.0563202C-0.0419477 32.8783 0.509297 34.704 1.53099 36.2655C2.55269 37.8271 4.00123 39.0579 5.70203 39.8096C7.80878 40.6152 10.0524 40.9956 12.3051 40.9291C14.2397 40.9596 16.1589 40.5781 17.9368 39.8096C19.4821 39.0902 20.8019 37.9578 21.7522 36.5358C22.6368 35.2471 23.0905 33.7082 23.0475 32.1424C23.098 30.6323 22.6743 29.1446 21.8367 27.8908C20.9207 26.5441 19.6266 25.5029 18.1198 24.9004H18.2465ZM60.0896 1.52588e-05H56.0911V41H60.0896V17.0349C60.3983 16.2801 60.9164 15.6306 61.582 15.1642C63.1346 14.1786 64.9609 13.7215 66.7913 13.8604C68.6501 13.7196 70.4977 14.2524 72.0005 15.3626C72.6348 15.8212 73.151 16.4257 73.5062 17.1258C73.8613 17.826 74.045 18.6014 74.042 19.3875V41.0141H77.9419L77.8433 19.2032C77.8503 17.5639 77.359 15.9617 76.4354 14.6115C75.4478 13.235 74.0968 12.1647 72.5355 11.5219C70.6516 10.7283 68.6216 10.3467 66.58 10.4024C64.8707 10.4055 63.1733 10.6879 61.5538 11.2385L60.0615 11.8054L60.0896 1.52588e-05ZM39.2666 10.3882C36.2752 10.3798 33.3486 11.2656 30.8578 12.9333C28.3671 14.601 26.4242 16.9755 25.2756 19.7559C24.1269 22.5362 23.8242 25.5973 24.4058 28.5511C24.9873 31.5048 26.427 34.2183 28.5423 36.3476C30.6575 38.4768 33.3532 39.926 36.2876 40.5114C39.2219 41.0968 42.2629 40.7921 45.0251 39.6359C47.7872 38.4796 50.1461 36.5239 51.8029 34.0167C53.4596 31.5095 54.3396 28.5636 54.3312 25.5524C54.3406 23.5584 53.9573 21.5822 53.2035 19.7382C52.4498 17.8942 51.3404 16.2188 49.9397 14.8088C48.539 13.3988 46.8745 12.2821 45.0426 11.5234C43.2107 10.7646 41.2475 10.3788 39.2666 10.3882ZM39.2666 37.3152C36.2542 37.2097 33.4002 35.9309 31.3062 33.7484C29.2122 31.5659 28.0418 28.6503 28.0418 25.6161C28.0418 22.582 29.2122 19.6664 31.3062 17.4839C33.4002 15.3014 36.2542 14.0226 39.2666 13.917C42.279 14.0226 45.133 15.3014 47.227 17.4839C49.321 19.6664 50.4914 22.582 50.4914 25.6161C50.4914 28.6503 49.321 31.5659 47.227 33.7484C45.133 35.9309 42.279 37.2097 39.2666 37.3152ZM95.0621 13.917C97.3621 13.917 99.6106 14.6036 101.523 15.8899C103.435 17.1762 104.926 19.0044 105.806 21.1434C106.686 23.2825 106.917 25.6362 106.468 27.907C106.019 30.1778 104.912 32.2636 103.285 33.9007C101.659 35.5379 99.5867 36.6528 97.3308 37.1045C95.075 37.5562 92.7367 37.3244 90.6117 36.4384C88.4868 35.5523 86.6705 34.0519 85.3926 32.1269C84.1148 30.2018 83.4327 27.9385 83.4327 25.6232C83.4439 22.522 84.6727 19.551 86.8512 17.3581C89.0297 15.1652 91.9812 13.9282 95.0621 13.917ZM110 25.6657V25.5665C109.987 21.5378 108.386 17.6789 105.549 14.8371C102.712 11.9953 98.8709 10.4029 94.8686 10.4095C90.8662 10.416 87.0301 12.0211 84.2023 14.8722C81.3746 17.7233 79.7863 21.5874 79.7863 25.6161C79.7863 29.6449 81.3746 33.509 84.2023 36.3601C87.0301 39.2112 90.8662 40.8162 94.8686 40.8228C98.8709 40.8294 102.712 39.237 105.549 36.3952C108.386 33.5534 109.987 29.6945 110 25.6657Z" fill="black"/>
</g>
<defs>
<clipPath id="clip0_0_802">
<rect width="110" height="41" fill="white"/>
</clipPath>
</defs>
</svg>
