<svg width="221" height="13" viewBox="0 0 221 13" fill="none" xmlns="http://www.w3.org/2000/svg">
<g clip-path="url(#clip0_0_834)">
<path d="M10.0084 1.91175H5.86357V12.6928H4.14399V1.91175H0V0.318382H10.0084V1.91175Z" fill="#243057"/>
<path d="M22.729 11.2232C25.4148 11.2232 27.4003 9.20506 27.4003 6.50354C27.4003 3.78474 25.4148 1.78976 22.729 1.78976C20.0655 1.78976 18.0787 3.78462 18.0787 6.50354C18.0787 9.20506 20.0655 11.2232 22.729 11.2232ZM22.729 0.155838C26.6819 0.155838 29.17 3.05553 29.17 6.50342C29.17 9.84442 26.7494 12.8566 22.6968 12.8566C18.7795 12.8566 16.3115 9.86158 16.3115 6.50342C16.3115 3.07508 18.8508 0.155838 22.729 0.155838Z" fill="#243057"/>
<path d="M48.4061 12.6942H46.692V3.05565H46.6567L42.9663 7.84489H42.6876L39.0023 3.05565H38.968V12.6942H37.246V0.318382H38.8646L42.8277 5.39863L46.81 0.318382H48.4061V12.6942Z" fill="#243057"/>
<path d="M69.2962 12.6942H67.5792V3.05565H67.5424L63.8545 7.84489H63.5737L59.8849 3.05565H59.8553V12.6942H58.1335V0.318382H59.7472L63.7135 5.39863L67.7057 0.318382H69.2962V12.6942Z" fill="#243057"/>
<path d="M85.2821 0.318382H87.3583L82.9197 6.15495V12.6942H81.2001V6.14091L76.7583 0.318382H78.8279L82.0377 4.57861L85.2821 0.318382Z" fill="#243057"/>
<path d="M133.895 12.6942H132.179V7.30652H125.466V12.6942H123.752V0.318382H125.466V5.70667H132.179V0.318382H133.895V12.6942Z" fill="#243057"/>
<path d="M141.016 12.6942H142.743V0.319817H141.016V12.6942Z" fill="#243057"/>
<path d="M151.517 11.0935H156.918V12.6942H149.796V0.318382H151.517V11.0935Z" fill="#243057"/>
<path d="M168.253 1.91175H163.581V5.34561H168.253V6.93634H163.581V12.6928H161.865V0.318382H168.253V1.91175Z" fill="#243057"/>
<path d="M174.273 12.6942H175.992V0.319817H174.273V12.6942Z" fill="#243057"/>
<path d="M192.368 11.8362C190.772 12.5633 189.473 12.8566 187.809 12.8566C184.14 12.8566 181.436 10.2041 181.436 6.57347C181.436 2.92957 184.211 0.155838 187.852 0.155838C189.264 0.155838 190.246 0.388672 192.125 1.20869V3.00095C190.718 2.20672 189.264 1.78964 187.824 1.78964C185.226 1.78964 183.207 3.83656 183.207 6.52141C183.207 9.28123 185.206 11.2231 188.051 11.2231C188.983 11.2231 189.824 11.002 190.648 10.732V8.19479H188.347V6.59698H192.368V11.8362H192.368Z" fill="#243057"/>
<path d="M205.714 1.91175H200.638V5.65101H205.537V7.24547H200.638V11.0935H205.871V12.6928H198.915V0.318382H205.714V1.91175Z" fill="#243057"/>
<path d="M213.468 5.72251H214.571C216.414 5.72251 216.945 4.74259 216.928 3.70917C216.908 2.55232 216.238 1.8417 214.571 1.8417H213.468V5.72251ZM214.764 0.318382C217.189 0.318382 218.699 1.64425 218.699 3.78726C218.699 5.22073 217.982 6.28918 216.692 6.81291C217.785 7.56155 218.454 8.69993 219.364 10.2399C219.88 11.0935 220.173 11.5098 221 12.6943H218.944L217.365 10.1494C215.783 7.61361 215.066 7.32116 214.192 7.32116H213.468V12.6945H211.749V0.318502H214.764L214.764 0.318382Z" fill="#243057"/>
<path d="M95.2716 13H114.304V1.52588e-05H95.2716V13Z" fill="#FEFEFE"/>
<path fill-rule="evenodd" clip-rule="evenodd" d="M104.795 9.59996H114.002V3.39381H104.795V9.59996Z" fill="#D21F34"/>
<path fill-rule="evenodd" clip-rule="evenodd" d="M95.5898 9.60007H104.795V3.40747H95.5898V9.60007Z" fill="#FEFEFE"/>
<path fill-rule="evenodd" clip-rule="evenodd" d="M95.5911 3.4052H114.002V0.3209H95.5911V3.4052Z" fill="#243057"/>
<path fill-rule="evenodd" clip-rule="evenodd" d="M95.5911 12.6739H114.002V9.5822H95.5911V12.6739Z" fill="#212A4F"/>
</g>
<defs>
<clipPath id="clip0_0_834">
<rect width="221" height="13" fill="white"/>
</clipPath>
</defs>
</svg>
