<svg width="158" height="18" viewBox="0 0 158 18" fill="none" xmlns="http://www.w3.org/2000/svg">
<path fill-rule="evenodd" clip-rule="evenodd" d="M2.06791 12.7859C2.36989 12.5768 2.36459 12.3748 2.52352 11.733C2.94205 10.0095 4.5102 3.80043 4.81217 2.59612C4.83866 2.524 4.89694 2.22833 4.87575 2.09853C4.73271 1.77401 4.31948 1.62978 3.98042 1.57209C3.80029 1.53603 3.15926 1.44228 3.09568 1.37017C2.98443 1.25479 3.01622 1.14662 3.03211 1.00239C3.08509 0.735563 3.26521 0.728352 3.46653 0.728352C3.76321 0.728352 8.97625 0.728352 9.17756 0.728352C9.53781 0.735563 9.52192 1.37017 9.27822 1.43507C8.26104 1.52882 7.31803 1.57209 6.9154 2.524C6.57104 3.87254 4.54198 11.4662 4.35656 12.2883C4.32477 12.4542 4.30888 12.6921 4.42543 12.8219L4.47841 12.8868C4.63735 13.0816 4.84926 13.1897 5.08236 13.2691C5.32076 13.334 5.53797 13.3844 5.79227 13.4133C6.04126 13.4565 6.11543 13.471 6.16841 13.6008C6.21079 13.7666 6.21079 13.9758 6.11543 14.0623C6.01477 14.1488 5.84524 14.1633 5.84524 14.1633H0.208382C0.0865321 14.1344 0.0176607 14.019 0.00176726 13.882C-0.00353055 13.7234 -0.00353054 13.5864 0.0918299 13.4926C0.240168 13.3412 0.626908 13.3123 0.626908 13.3123C0.801736 13.3123 1.19907 13.2402 1.64938 13.0311C1.72885 12.995 1.77653 12.9734 1.8454 12.9373L2.06791 12.7859Z" fill="#2B2A29"/>
<path fill-rule="evenodd" clip-rule="evenodd" d="M46.7391 0.735676C46.7391 0.735676 41.8068 0.735676 41.9287 0.735676C41.5419 0.778944 41.5313 0.966442 41.526 1.06019C41.5049 1.26932 41.579 1.42076 41.7433 1.47845C42.1459 1.55778 42.5167 1.49288 42.8823 1.63711C42.9723 1.6948 43.073 1.77412 42.9988 1.97604C42.8081 2.23566 35.7726 11.4086 35.5713 11.5312C35.4707 11.3726 34.2098 3.12266 34.0985 2.47363C34.0561 2.23566 34.0403 1.86787 34.427 1.79576C34.9197 1.63711 35.1634 1.65153 35.5978 1.56499C35.7673 1.52893 35.7726 1.37028 35.7779 1.21884C35.7726 0.980865 35.7038 0.80779 35.4971 0.778944C35.6137 0.778944 30.8298 0.778944 30.9145 0.778944C30.8722 0.800579 30.6656 0.75731 30.6126 1.0025C30.5861 1.11067 30.5755 1.21884 30.6179 1.31259C30.692 1.47845 30.8298 1.54336 31.0364 1.5722C31.0841 1.60826 31.9158 1.71643 32.1224 2.11306C32.2655 2.43758 32.6469 5.12023 32.684 5.4808C32.5569 5.68994 28.663 10.7812 28.1014 11.4807C28.0643 11.5384 27.969 11.5673 27.9584 11.4519C27.81 10.8389 27.7306 10.1033 27.5981 9.41825C27.5875 9.29566 26.5545 2.7693 26.5015 2.41594C26.4644 2.17075 26.5862 1.96883 26.7293 1.81739C27.1213 1.63711 27.5451 1.5722 27.969 1.59384C28.0749 1.53615 28.2498 1.55778 28.3557 1.41355C28.3769 1.3198 28.4246 1.19721 28.3822 1.08182C28.3345 0.90875 28.2339 0.829425 28.1226 0.786156C28.2921 0.786156 23.9109 0.778944 23.0049 0.786156C22.7453 0.786156 22.6288 0.750099 22.4698 0.872693C22.4169 0.95923 22.3798 1.07461 22.3957 1.16115C22.4169 1.29817 22.4804 1.4424 22.5864 1.50009C22.9202 1.64432 23.5082 1.52893 24.2022 1.95441C24.4724 2.15633 24.4989 2.68998 24.5678 3.10103C24.6631 3.73564 24.7797 4.26207 24.8486 4.89668C25.0022 5.7332 25.7068 10.125 25.7969 10.6586C25.8551 11.0048 26.2207 13.3124 26.2207 13.3124C26.2896 13.7235 26.5015 14.0336 26.777 14.1417C26.9995 14.1706 27.1743 14.2139 27.3756 13.9831L32.8853 6.79329C32.9277 6.82213 32.9224 6.90867 32.9383 7.00242C33.1184 8.09856 33.8336 13.1682 34.0614 13.8533C34.0879 13.9687 34.2522 14.4663 34.7819 14.1634C34.8349 14.1417 34.9197 14.0696 34.9992 13.9687C35.1369 13.7812 43.5604 2.87747 43.8253 2.6395C43.8306 2.63228 44.4822 1.83181 45.208 1.68037C45.9338 1.47845 46.1987 1.54336 46.7762 1.40634C46.8715 1.35586 46.9086 1.23327 46.898 1.09625C46.898 0.937596 46.8768 0.786156 46.7391 0.735676Z" fill="#2B2A29"/>
<path fill-rule="evenodd" clip-rule="evenodd" d="M20.2714 6.62011C20.3667 6.92299 20.3614 7.35567 20.3085 7.69461C20.2608 7.9398 20.229 8.09845 20.1866 8.30758C20.0965 8.66815 19.376 11.3508 19.1482 12.4037C19.1059 12.5335 19.2012 12.6272 19.2913 12.6056C19.5668 12.5191 19.4873 12.5335 19.6568 12.4253C19.678 12.4037 20.5151 11.7763 20.8488 11.4085C21.0555 11.2282 21.1614 11.0191 21.3786 11.1777C21.474 11.2282 21.5376 11.4157 21.5534 11.5744C21.5323 11.7114 21.5005 11.7402 21.4369 11.8556C21.0449 12.3316 20.8171 12.5191 20.3985 12.8796C20.086 13.132 19.4396 13.5864 19.3813 13.6296C19.1165 13.8171 18.4807 14.1056 18.4807 14.1056C17.935 14.2498 17.7655 14.1849 17.7019 14.2065C17.4529 14.1849 17.2357 13.9686 17.1192 13.6585C16.9179 12.9734 17.2675 12.3388 17.4053 11.7258C17.4424 11.5095 17.5377 11.2859 17.5642 11.0696C17.6702 10.7811 17.7443 10.3701 17.8397 10.0455C17.9509 9.69939 18.0092 9.31718 18.1311 8.96382C18.2741 8.32922 18.5231 7.73788 18.4489 7.08164C18.3907 6.81482 18.2317 6.77876 18.0569 6.76434C17.7867 6.78597 17.6437 6.83645 17.4053 6.93741C16.9708 7.13933 16.5947 7.34125 16.2133 7.66577C16.0437 7.81721 15.5034 8.24989 15.3073 8.48787C15.3073 8.48787 14.0041 10.0167 13.824 10.2475C13.5961 10.5648 13.3842 10.8388 13.1988 11.1633C13.1988 11.1633 12.4147 12.5912 12.0015 13.6873C11.9538 13.8171 11.9432 13.8964 11.7949 14.0695C11.5936 14.2642 11.2916 14.257 11.0744 14.1056C10.8201 13.9037 10.7353 13.37 10.7777 13.132C10.8678 12.6489 11.0108 12.245 11.1009 11.7907C11.5035 10.3412 11.8691 8.84844 12.2876 7.38452C12.3194 7.28356 12.3459 7.17539 12.2611 7.09606C12.1181 6.9951 11.9538 7.12491 11.8161 7.16818C11.6042 7.24029 10.6824 7.81721 10.2903 8.05518C9.94596 8.2571 9.80822 7.93259 9.80292 7.74509C9.80292 7.74509 9.82941 7.44942 10.0731 7.32683C10.3486 7.1826 12.1181 6.0504 12.7432 5.89175C13.167 5.76195 13.7445 5.59608 14.1259 5.96387C14.1789 5.9855 14.465 6.43982 14.269 7.04558C14.1577 7.42058 14.0094 7.99749 14.0518 8.1273C14.0729 8.18499 14.0888 8.22105 14.2001 8.15614C14.3855 7.98307 15.8053 6.89414 15.9643 6.82203C16.5947 6.39655 17.3046 6.09367 18.0145 5.86291C18.0145 5.87733 18.682 5.64656 19.1112 5.7331C19.6303 5.82685 20.1018 6.03598 20.2714 6.62011Z" fill="#2B2A29"/>
<path fill-rule="evenodd" clip-rule="evenodd" d="M70.0492 5.89175C70.2399 5.94223 70.3617 5.91338 70.5578 6.31723C70.6478 6.52636 70.6849 6.72828 70.6796 7.00231C70.6637 7.16096 70.579 7.72346 70.4677 8.12009C70.42 8.24989 70.3141 8.52393 70.526 8.53835C70.6054 8.55998 71.6597 7.33404 71.7233 7.26192C72.0676 6.95904 72.2954 6.67059 72.7193 6.41819C72.8941 6.29559 72.9895 6.26675 73.1378 6.19463C73.4239 6.07925 73.604 6.02877 73.8795 5.9855C74.0649 5.95665 74.5894 6.08646 74.6212 6.12252C74.8013 6.18021 75.1616 6.35328 75.2357 6.82203C75.2728 7.53596 75.0132 7.86047 74.8808 8.01191C74.6212 8.26431 74.2132 8.40854 73.9219 8.17057C73.7841 8.01912 73.8106 7.80278 73.8106 7.57923C73.7364 6.87972 73.2596 7.2475 73.1219 7.33404C72.4173 7.76672 72.1206 8.20662 72.1206 8.20662C72.1206 8.20662 71.5484 8.7619 71.2518 9.28834C71.2518 9.28834 69.138 12.5191 68.7618 13.334C68.6347 13.5503 68.4969 13.8243 68.3698 14.0479C68.2108 14.3436 67.8665 14.4517 67.6069 14.3796C67.4374 14.3075 67.2148 14.0263 67.1831 13.8171C67.1195 13.3051 67.3579 12.9662 67.4215 12.5119C67.4585 12.4542 68.3963 8.81238 68.4386 8.697C68.5393 8.26431 68.6823 7.84605 68.7724 7.39894C68.7777 7.29798 68.73 7.08885 68.5446 7.1177C68.3698 7.1177 68.338 7.14654 68.1367 7.21866C67.3367 7.60086 66.9129 7.89653 66.9129 7.89653C66.8334 7.96864 66.7857 8.01912 66.6745 8.10566C66.6745 8.10566 66.4838 8.2571 66.3036 8.22105C66.2348 8.1922 66.1765 8.14893 66.1553 7.94701C66.1659 7.64413 66.3301 7.49269 66.3301 7.49269C66.3301 7.49269 66.7963 7.00952 67.2466 6.75712C67.6758 6.53357 68.1261 6.25953 68.5764 6.09367C69.1538 5.87012 69.922 5.8629 70.0492 5.89175Z" fill="#2B2A29"/>
<path fill-rule="evenodd" clip-rule="evenodd" d="M49.3668 5.72598C49.7535 5.77646 50.0608 5.84137 50.4263 6.00002C50.7018 6.09377 51.0621 6.34617 51.2528 6.64184C51.3588 6.81491 51.4435 7.125 51.417 7.39904C51.3958 7.5 51.4064 7.54327 51.3482 7.73798C51.2899 7.92547 51.1839 8.27884 50.8131 8.56008C50.4369 8.89181 50.1562 9.03604 50.1562 9.03604C49.7164 9.28123 48.4238 9.90862 48.2225 10.0096C48.0741 10.0673 47.2689 10.3846 47.2106 10.4206C46.9404 10.5288 46.6649 10.6226 46.3841 10.7091C46.0239 10.8028 45.1497 11.0408 44.7153 11.1346C44.3974 11.2139 44.0637 11.2716 43.5445 11.4158C43.3909 11.5023 43.4332 11.7764 43.4544 11.9783C43.4862 12.2235 43.4968 12.3461 43.5763 12.5408C43.5922 12.548 43.7405 12.9302 44.0001 13.0023C44.1908 13.0817 44.3498 13.1177 44.7365 13.1249C45.4676 13.0312 46.6808 12.7139 46.649 12.7283C46.8344 12.6706 47.9205 12.2596 47.9682 12.2307C48.5085 11.9855 49.033 11.7259 49.5363 11.4086C49.6423 11.3365 49.7694 11.2572 49.8807 11.185C50.0025 11.1274 50.0873 11.1201 50.1774 11.185C50.278 11.2788 50.3363 11.3437 50.278 11.5889C50.1191 12.0432 49.7164 12.1297 49.4145 12.3317C49.2184 12.4182 48.588 12.7932 48.4503 12.8653C48.3337 12.9014 47.7086 13.2259 47.592 13.2692C47.4596 13.3485 46.5695 13.6874 46.2464 13.8172C45.8067 13.9687 44.657 14.2427 44.62 14.2211C44.4027 14.2643 43.7935 14.3004 43.767 14.2932C43.5816 14.322 43.1472 14.2715 43.0412 14.2571C42.5856 14.2139 42.1565 13.9615 41.8227 13.5865C41.5737 13.2259 41.4943 12.8869 41.4572 12.7571C41.4095 12.5624 41.3883 12.4759 41.3671 12.2235C41.3247 11.5312 41.4466 10.9038 41.685 10.3629C41.8492 10.0024 42.0399 9.69228 42.1777 9.49036C42.469 8.99998 43.1578 8.22114 43.1578 8.22114C43.5127 7.8173 44.1273 7.29087 44.7683 6.91587C45.1232 6.64905 46.4583 6.1154 46.7391 6.02165C47.2212 5.83416 48.1854 5.70435 48.1854 5.70435C48.7999 5.62502 48.9906 5.69714 49.3668 5.72598ZM60.2114 5.87742C58.7333 6.07213 58.2141 6.238 57.9492 6.3678C57.7108 6.44713 56.8791 6.7428 56.2539 7.13943C56.0367 7.30529 55.7824 7.44952 55.5705 7.63702C54.9719 8.04807 53.7375 9.43267 53.2713 10.2115C53.1865 10.262 52.6779 11.2572 52.5349 11.7331C52.2859 12.3245 52.3336 13.0817 52.4183 13.2692C52.7097 14.3148 53.2024 14.286 53.5626 14.286C54.3891 14.2499 54.8129 14.1057 55.4434 13.9038C55.5546 13.8821 56.1056 13.6297 56.2486 13.572C56.7731 13.3773 58.8499 11.9999 59.2472 11.6971C59.3267 11.661 59.5015 11.4735 59.581 11.5096L59.5015 11.8846C59.4008 12.3028 59.2313 12.9086 59.2313 13.3124C59.2207 13.4134 59.2737 14.1057 59.8141 14.2427C60.275 14.3437 60.5399 14.2283 60.8577 14.1417C60.9478 14.1057 60.9796 14.0913 61.0908 14.0336C61.3875 13.9398 63.2417 12.5552 63.549 12.2596C63.7026 12.1297 63.851 11.9855 63.9199 11.7836C64.0311 11.4663 63.8139 11.286 63.7927 11.286C63.5914 11.2283 63.4907 11.3293 63.3265 11.4879C63.0563 11.7908 62.8603 11.9495 62.4577 12.2884C62.1451 12.4975 61.8802 12.7283 61.5305 12.7788C61.4193 12.7644 61.3981 12.7211 61.3981 12.7211C61.2763 12.5769 61.3557 12.3605 61.3928 12.173C61.4511 11.9422 62.3676 8.49518 62.4577 8.10576C62.4894 8.01201 62.7437 7.03847 62.7808 6.88703C62.8285 6.73559 62.855 6.59136 62.8815 6.40386C62.8815 6.20194 62.7702 6.13704 62.6537 6.08656C61.8537 5.87742 61.1067 5.863 60.2114 5.87742ZM48.3337 6.47597C48.0953 6.50482 47.8834 6.56251 47.4278 6.69953C47.2 6.77886 46.898 6.87982 46.7921 6.94472C46.4583 7.10337 46.1351 7.29808 45.812 7.49279C44.4769 8.3221 43.9736 9.62016 43.91 9.79324C43.8412 9.90141 43.6875 10.4206 43.6452 10.4927C43.6769 10.4495 43.82 10.4278 43.9683 10.3846C43.9683 10.3846 45.3034 10.0384 45.5312 9.9591C45.7908 9.88699 46.0133 9.82208 46.3258 9.7067C47.1258 9.41824 48.392 8.71873 48.6039 8.59614C48.8794 8.4447 49.2873 8.07691 49.4569 7.74519C49.5681 7.50721 49.6158 7.25481 49.5575 7.00241C49.5257 6.85818 49.4251 6.7428 49.3509 6.65626C49.3509 6.65626 49.1708 6.37501 48.3337 6.47597ZM60.7942 6.88703C60.5875 7.74519 60.3438 8.63941 60.1213 9.5192C60.0789 9.66343 60.0525 9.91583 59.867 10.1682C59.6604 10.399 59.2207 10.7235 59.1783 10.7379C59.12 10.8245 57.3506 11.9855 56.6884 12.3028C56.5135 12.3821 55.8301 12.685 55.6288 12.7427C54.7282 13.0312 54.654 12.3245 54.6487 12.2235C54.6169 12.0937 54.6487 11.661 54.6752 11.5673C54.8341 10.8533 55.1043 10.2403 55.4593 9.7067C55.7559 9.16584 56.4817 8.34374 56.9797 7.98317C57.9386 7.2476 58.7174 6.9952 58.7545 6.98078C59.1942 6.85818 60.4869 6.65626 60.6935 6.66347C60.8683 6.67789 60.7942 6.88703 60.7942 6.88703Z" fill="#2B2A29"/>
<path d="M112.644 6.49029V5.32925H110.408V3.41822H110.127L108.077 5.94222V6.49029H108.877L108.882 12.2667C108.882 13.1248 109.02 13.7089 109.317 14.1128C109.629 14.5455 110.117 14.7546 110.789 14.7546C111.881 14.7546 112.511 13.9613 112.675 13.7162L112.697 13.6873L112.845 13.4638C112.845 13.4638 112.744 13.3412 112.654 13.2041C112.585 13.096 112.426 12.8941 112.426 12.8941C112.368 12.9445 112.278 13.0671 112.177 13.1537C112.098 13.2114 112.003 13.2979 111.934 13.3195C111.796 13.3916 111.658 13.4205 111.52 13.4205C111.171 13.4205 110.922 13.3051 110.752 13.0743C110.466 12.6849 110.429 11.9782 110.429 11.2715V6.49029H112.644Z" fill="#2B2A29"/>
<path d="M156.038 9.13688C156.907 9.13688 157.214 9.10804 157.283 8.97823C157.368 8.81237 157.347 8.54555 157.331 8.24988C157.299 7.62969 157.029 6.59846 156.663 6.09366C156.16 5.39415 155.476 5.01194 154.634 5.01194C152.526 5.01194 150.936 7.24028 150.936 10.197C150.936 10.9902 151.069 12.1513 151.71 13.1969C152.308 14.1705 153.278 14.7258 154.385 14.7258C155.339 14.7258 156.594 14.1416 157.347 12.6416L157.437 12.4325C157.437 12.4325 157.288 12.2234 157.198 12.1368C157.103 12.0503 156.917 11.9133 156.891 11.9133L156.748 12.1513C156.128 12.9013 155.8 13.0455 155.217 13.0743C154.417 13.096 153.733 12.7138 153.241 12.0359C152.727 11.3292 152.441 10.3051 152.441 9.16573L156.038 9.13688ZM155.747 7.44941C155.757 7.6369 155.789 7.7595 155.667 7.89652C155.513 8.05517 154.539 8.05517 153.871 8.05517L152.526 8.04075C152.616 7.45662 153.05 6.03596 154.422 6.03596C154.83 6.02875 155.201 6.25952 155.418 6.52634C155.662 6.82201 155.736 7.28354 155.747 7.44941Z" fill="#2B2A29"/>
<path d="M116.4 3.02159L117.899 0.468735H115.96L115.144 3.0288L116.4 3.02159Z" fill="#2B2A29"/>
<path d="M86.2501 13.6008L85.5667 13.5142C85.0422 13.4638 84.7614 12.6921 84.772 11.7186C84.7932 9.98063 84.8621 8.20662 84.915 6.8076C84.9574 5.80521 84.9998 4.76676 85.0528 3.69226C85.7945 5.92059 86.9759 8.98545 87.4474 10.2547C87.76 11.084 88.7559 13.8099 88.9414 14.5527H89.5135C89.7943 13.6513 90.6949 11.3075 91.3519 9.67054C91.3519 9.67054 93.6299 4.03119 93.7253 3.78601L93.773 11.7186C93.7836 12.5479 93.6352 13.4277 92.9412 13.5142L92.4008 13.6008L92.4061 14.4734C92.4061 14.4734 94.0643 14.4085 94.6895 14.4085C95.3146 14.4085 96.9252 14.4734 96.9252 14.4734V13.608L96.353 13.5359C95.7755 13.4638 95.5053 12.5623 95.4789 11.7907C95.41 9.75708 95.3517 6.79317 95.3252 4.50715L95.304 2.81246C95.2775 1.94709 95.5053 1.08172 96.3583 1.0096C96.353 1.0096 96.8881 0.95191 96.8881 0.95191V0C96.8881 0 95.6219 0.0937487 95.1716 0.0937487C94.8325 0.0937487 94.4829 0.0937487 93.916 0.0288458L93.7624 0.0144229L93.7518 0.223555C93.7253 1.13941 93.2644 2.2716 92.5068 4.14658C92.5068 4.14658 91.1135 7.7523 90.7638 8.56719C90.5254 9.12247 90.0698 10.334 89.699 11.1633C89.397 10.4494 89.1109 9.72102 88.8142 8.95661L86.711 3.62735C86.3084 2.58891 85.7733 1.10335 85.8475 0.259612L85.8686 0.0144229L85.6885 0.0288458C85.1322 0.0937487 84.6872 0.0937487 84.2952 0.0937487C83.8926 0.0937487 82.7112 0.00721144 82.7112 0.00721144C82.7112 0.00721144 82.7112 0.317303 82.7112 0.519224C82.7165 0.735567 82.7112 0.95191 82.7112 0.95191L83.1403 1.00239C83.9561 1.15383 84.1628 1.80286 84.1469 2.61775C84.1257 3.6562 84.078 5.44464 83.9614 7.33403C83.829 9.42535 83.7654 10.7667 83.6489 11.9277C83.5588 12.8652 83.1562 13.4493 82.7006 13.5287L82.1708 13.6008V14.495C82.1708 14.495 83.58 14.4229 84.1363 14.4229C84.7985 14.4229 86.2501 14.4734 86.2501 14.4734V13.6008Z" fill="#2B2A29"/>
<path d="M106.292 5.29319L106.064 5.31483L104.21 5.33646L104.024 5.30762L103.918 6.36049C103.5 5.49511 102.589 5.19223 101.985 5.19223C99.6483 5.19223 98.3715 7.59364 98.3715 10.5648C98.3715 11.697 98.7053 12.8364 99.2775 13.6152C99.9662 14.5599 100.75 14.6392 101.471 14.6681C101.736 14.6825 101.916 14.6609 102.175 14.5887L103.171 13.3051V13.1969C103.171 13.1969 102.557 13.4854 101.974 13.4782C101.529 13.471 101.126 13.2114 100.761 12.7282C100.289 12.1008 100.072 10.8748 100.072 9.71381C100.072 8.11287 100.507 6.31722 102.001 6.27395C102.864 6.25232 103.373 7.03836 103.532 7.47105C103.659 7.82441 103.728 7.93258 103.728 9.41093L103.744 11.9133L103.754 13.3484L103.781 14.4734C103.781 14.4734 105.497 14.3868 106.133 14.4373C106.133 14.4373 106.435 14.4734 106.535 14.4734L106.562 13.6368V13.6296L106.286 13.5864C105.841 13.471 105.524 13.3267 105.391 12.9517C105.285 12.6561 105.296 10.9181 105.296 10.9181C105.296 10.9181 105.296 8.50229 105.306 7.77393C105.322 6.98788 105.423 6.47587 105.73 6.29558C105.979 6.15857 106.292 6.10088 106.292 6.10088V5.29319Z" fill="#2B2A29"/>
<path d="M124.924 11.4446C124.908 12.7426 124.765 13.3123 124.421 13.4782C124.161 13.6008 123.859 13.6008 123.859 13.6008V14.4878L124.129 14.4734C124.611 14.4301 125.109 14.4301 125.713 14.4301C126.307 14.4301 126.815 14.4301 127.297 14.4734L127.562 14.4878V13.6152C127.562 13.6152 127.313 13.5936 127.011 13.5142C126.709 13.4421 126.482 13.132 126.471 11.8051L126.476 8.08402C126.476 7.39173 126.301 6.56962 125.941 6.07203C125.565 5.56002 125.035 5.17781 124.362 5.17781C123.488 5.17781 122.614 5.75473 121.936 6.4326L121.962 5.2932C121.962 5.2932 121.253 5.35089 120.749 5.3581C120.384 5.36531 119.393 5.2932 119.393 5.2932V6.07203C119.605 6.10809 119.902 6.3028 120.045 6.44703C120.209 6.61289 120.384 7.06721 120.384 7.51432L120.378 11.4446C120.368 12.7426 120.193 13.3556 119.854 13.5142C119.6 13.6368 119.308 13.6368 119.308 13.6368V14.4878L119.578 14.4734C120.061 14.4301 120.564 14.4085 121.157 14.4085C121.756 14.4085 122.259 14.4301 122.741 14.4734L123.011 14.4878V13.608C123.011 13.608 122.704 13.6008 122.471 13.507C122.121 13.37 121.941 13.132 121.931 11.8051L121.936 8.55998C121.936 8.14172 121.994 7.75951 122.18 7.44942C122.37 7.1249 122.831 6.71385 123.472 6.71385C123.96 6.71385 124.336 6.95183 124.58 7.27634C124.807 7.59365 124.929 8.10566 124.929 8.54556L124.924 11.4446Z" fill="#2B2A29"/>
<path d="M146.343 5.2932C146.343 5.2932 146.783 5.36532 147.832 5.3581C147.832 5.3581 148.446 5.3581 148.928 5.31484C148.928 5.31484 148.918 6.76434 148.918 8.32201V12.3532C148.918 13.1465 149.469 13.6008 150.015 13.6801C150.015 13.6801 149.999 13.9686 149.999 14.0912C149.999 14.2354 150.004 14.4734 149.999 14.4662L149.713 14.4517C149.273 14.4589 148.409 14.3364 147.996 14.4229L147.54 14.5094L147.424 13.233C146.825 13.9109 145.824 14.6392 144.934 14.6392C144.261 14.6392 143.731 14.3508 143.36 13.7739C143.021 13.2474 142.825 12.5119 142.825 11.6681V7.95422C142.815 6.88693 142.613 6.45424 142.312 6.25954C142.115 6.13694 141.909 6.07204 141.909 6.07204V5.2932C141.909 5.2932 142.195 5.35089 143.239 5.34368C143.837 5.34368 144.372 5.2932 144.372 5.2932C144.372 5.2932 144.372 6.82203 144.372 7.95422V11.1777C144.372 11.7835 144.521 12.3099 144.733 12.6849C144.939 13.0527 145.257 13.2763 145.744 13.2763C146.386 13.2763 146.958 12.7282 147.148 12.4037C147.334 12.0936 147.366 11.8484 147.366 11.2643V7.95422C147.355 6.91578 147.175 6.47588 146.831 6.25232C146.571 6.07925 146.348 6.07204 146.348 6.07204L146.343 5.2932Z" fill="#2B2A29"/>
<path d="M114.323 6.20184C114.53 6.2379 114.779 6.34607 114.938 6.4903C115.06 6.59847 115.298 6.88693 115.298 7.32682V8.0047V11.4373C115.287 12.7282 115.128 13.2618 114.8 13.4638C114.519 13.6368 114.233 13.6368 114.233 13.6368V14.4734L114.503 14.4589C114.985 14.4229 115.467 14.4229 116.066 14.4229C116.665 14.4229 117.189 14.4229 117.671 14.4589L117.936 14.4734V13.6368C117.936 13.6368 117.724 13.644 117.396 13.5287C117.067 13.4061 116.871 13.1248 116.861 11.7979V7.82441C116.861 6.39655 116.956 5.28599 116.956 5.28599C116.956 5.28599 116.135 5.40137 115.669 5.37253C115.558 5.37253 114.228 5.30041 114.228 5.30041C114.228 5.30041 114.233 5.56002 114.233 5.76194C114.238 5.9855 114.228 6.18021 114.228 6.18021L114.323 6.20184Z" fill="#2B2A29"/>
<path d="M130.826 3.02159L132.32 0.468735H130.376L129.565 3.0288L130.826 3.02159Z" fill="#2B2A29"/>
<path d="M128.744 6.20184C128.95 6.2379 129.199 6.34607 129.358 6.4903C129.48 6.59847 129.718 6.88693 129.718 7.32682V8.0047V11.4373C129.708 12.7282 129.549 13.2618 129.22 13.4638C128.94 13.6368 128.654 13.6368 128.654 13.6368V14.4734L128.924 14.4589C129.406 14.4229 129.893 14.4229 130.487 14.4229C131.085 14.4229 131.61 14.4229 132.092 14.4589L132.357 14.4734V13.6368C132.357 13.6368 132.14 13.644 131.816 13.5287C131.488 13.4061 131.292 13.1248 131.281 11.7979V7.82441C131.281 6.39655 131.377 5.28599 131.377 5.28599C131.377 5.28599 130.556 5.40137 130.084 5.37253C129.978 5.37253 128.654 5.30041 128.654 5.30041C128.654 5.30041 128.654 5.56002 128.654 5.76194C128.659 5.9855 128.654 6.18021 128.654 6.18021L128.744 6.20184Z" fill="#2B2A29"/>
<path d="M138.598 14.5022C139.97 13.7739 140.807 12.1441 140.807 9.78592C140.807 6.8076 139.292 4.78119 137.088 4.78119C134.874 4.78119 133.311 7.00952 133.311 9.88688C133.311 12.7426 134.693 14.6032 136.431 14.8051C136.431 14.8051 136.489 14.8267 136.929 14.8628L138.036 17.1921L140.251 17.1993L138.322 14.6536C138.582 14.5166 138.598 14.5022 138.598 14.5022ZM137.507 13.846C136.415 14.1633 135.244 13.0166 135.08 10.1465C134.958 7.99749 135.483 6.17299 136.85 6.01434C138.185 5.8629 138.969 7.47105 139.101 9.67054C139.228 11.8196 138.783 13.4638 137.507 13.846Z" fill="#2B2A29"/>
</svg>
