<svg width="123" height="22" viewBox="0 0 123 22" fill="none" xmlns="http://www.w3.org/2000/svg">
<g clip-path="url(#clip0_0_507)">
<path fill-rule="evenodd" clip-rule="evenodd" d="M35.4798 20.8566H33.8034V0.18239H35.5776V20.8566H35.4797H35.4798ZM75.1781 9.30876L83.5432 0.214427L83.6009 0.267859V0.18239H85.9344L77.6495 9.14805L85.7854 20.8566H83.676L76.4677 10.4746L75.1781 11.9365V20.8566H73.404V0.182355H75.1781V9.30873L75.1781 9.30876ZM13.3471 2.33783C12.4538 2.01992 11.4799 1.85067 10.4488 1.85067H10.3722C8.04126 1.87185 5.9226 2.86213 4.37851 4.43138C2.80716 6.02831 1.83029 8.22524 1.83029 10.6103C1.83029 13.0161 2.80162 15.207 4.36472 16.7959C5.92655 18.383 8.08071 19.37 10.4487 19.37C11.4866 19.37 12.469 19.2103 13.3716 18.8984C14.2724 18.587 15.0962 18.1233 15.8195 17.5151L15.8898 17.4559L17.1428 18.7762L17.0619 18.8433C16.1562 19.5937 15.1135 20.1938 13.9728 20.6014C12.8775 20.9926 11.6913 21.2068 10.4487 21.2068C7.56723 21.2068 4.96128 20.011 3.07298 18.0933C1.17397 16.1645 -3.05176e-05 13.505 -3.05176e-05 10.5966C-3.05176e-05 7.71064 1.17922 5.04849 3.08558 3.11506C4.97227 1.2012 7.57308 0 10.4487 0C11.6806 0 12.8575 0.223982 13.945 0.624102C15.0959 1.04758 16.1481 1.67007 17.0619 2.43416L17.1421 2.50083L15.8895 3.82095L15.8192 3.76154C15.0936 3.14531 14.2611 2.66313 13.347 2.33783H13.3471ZM89.4678 20.8705H87.9032V0.196301H89.5657V20.8705H89.4678ZM51.604 0.445682C51.7882 0.261289 52.0408 0.140411 52.326 0.140411C52.6095 0.140411 52.861 0.263081 53.0444 0.446981C53.2404 0.643704 53.3599 0.912757 53.3599 1.17784C53.3599 1.47078 53.2477 1.73028 53.0621 1.91646C52.8766 2.10265 52.6181 2.21516 52.326 2.21516C52.0341 2.21516 51.7755 2.10261 51.5899 1.91646C51.4044 1.73028 51.2921 1.47078 51.2921 1.17784C51.2921 0.906996 51.4101 0.640226 51.604 0.445682ZM27.2222 8.18495C28.0686 8.60386 28.8155 9.19919 29.4175 9.93501V7.89152H31.1917V20.8846H29.4175V18.7314C28.8114 19.4806 28.0578 20.095 27.2037 20.529C26.2953 20.9906 25.2729 21.2488 24.1934 21.2488C22.2948 21.2488 20.5728 20.4736 19.326 19.2226C18.0793 17.9716 17.3067 16.2436 17.3067 14.3386C17.3067 12.4588 18.082 10.7424 19.3326 9.49765C20.5794 8.25742 22.2984 7.48479 24.1934 7.48479C25.28 7.48479 26.3091 7.73295 27.2222 8.18491V8.18495ZM20.5314 17.9981C21.4648 18.9349 22.7586 19.5105 24.1934 19.5105C25.6051 19.5105 26.9034 18.9272 27.8451 17.9822C28.7778 17.0463 29.3615 15.7552 29.3615 14.3248C29.3615 12.9151 28.7717 11.6184 27.8312 10.6748C26.8908 9.73105 25.5984 9.1393 24.1934 9.1393C22.7624 9.1393 21.4769 9.72367 20.5464 10.6573C19.6047 11.6023 19.0252 12.9062 19.0252 14.3248C19.0252 15.7678 19.5997 17.0635 20.5313 17.9981H20.5314ZM38.8517 7.94945L43.2613 17.7333L47.7664 7.89155H49.6715C47.5289 12.536 45.3976 17.1862 43.2607 21.8331L36.85 7.89155H38.8256L38.8517 7.94948L38.8517 7.94945ZM53.0802 20.8846H51.4038V7.89155H53.1781V20.8846H53.0802H53.0802ZM58.8295 7.93005C59.4908 7.63153 60.234 7.48486 60.9721 7.48486C62.4024 7.48486 63.6984 8.06737 64.6363 9.00827C65.5743 9.94916 66.1548 11.2496 66.1548 12.6848V20.8846H64.4362V12.6848C64.4362 11.7061 64.0496 10.8166 63.4215 10.1737C62.7973 9.53506 61.9334 9.13902 60.9721 9.13902C59.9518 9.13902 59.0525 9.49653 58.4173 10.1339C57.8069 10.7463 57.4381 11.62 57.4381 12.6848V20.8846H55.6639V7.89155H57.4381V8.94609C57.8208 8.50719 58.2993 8.16935 58.8295 7.93005ZM107.924 0.459522C108.109 0.27513 108.361 0.154251 108.646 0.154251C108.93 0.154251 109.181 0.276922 109.365 0.460822C109.561 0.657544 109.68 0.926598 109.68 1.19168C109.68 1.48462 109.568 1.74412 109.383 1.9303C109.197 2.11649 108.938 2.22911 108.646 2.22911C108.354 2.22911 108.096 2.11649 107.91 1.9303C107.725 1.74412 107.613 1.48462 107.613 1.19168C107.613 0.920836 107.731 0.654067 107.924 0.459522ZM115.276 7.93005C115.938 7.63153 116.681 7.48486 117.419 7.48486C118.849 7.48486 120.145 8.06737 121.083 9.00827C122.021 9.94916 122.601 11.2496 122.601 12.6848V20.8846H120.883V12.6848C120.883 11.7061 120.496 10.8166 119.868 10.1737C119.244 9.53527 118.38 9.13902 117.419 9.13902C116.398 9.13902 115.499 9.49653 114.864 10.1339C114.254 10.7463 113.885 11.62 113.885 12.6848V20.8846H112.166V7.89155H113.885V8.94609C114.267 8.50719 114.746 8.16935 115.276 7.93005H115.276ZM93.8618 9.48311C95.0945 8.24618 96.8025 7.48486 98.7009 7.48486H98.9369L98.919 7.50278C100.705 7.56299 102.329 8.317 103.519 9.51058C104.751 10.7465 105.518 12.4546 105.518 14.3525V14.5629H93.5354C93.5877 15.9303 94.1701 17.1569 95.0794 18.0477C96.0134 18.9624 97.2935 19.5245 98.7008 19.5245C99.7018 19.5245 100.642 19.2431 101.433 18.7477C102.235 18.246 102.886 17.5231 103.292 16.652L103.334 16.5627L104.851 17.2919L104.809 17.3799C104.272 18.5221 103.399 19.4837 102.323 20.1546C101.269 20.8126 100.019 21.1927 98.7008 21.1927C96.8025 21.1927 95.0945 20.4314 93.8618 19.1944C92.6286 17.9573 91.8704 16.2435 91.8704 14.3387C91.8704 12.4339 92.6286 10.7203 93.8618 9.48311H93.8618ZM93.7481 12.7687H103.584C103.273 11.7412 102.643 10.8503 101.811 10.211C100.948 9.54788 99.8683 9.15318 98.7008 9.15318C97.5356 9.15318 96.4518 9.53707 95.5791 10.1913C94.7295 10.8284 94.0785 11.7228 93.7481 12.7688L93.7481 12.7687ZM109.345 20.8846H107.724V7.89155H109.443V20.8846H109.345Z" fill="black"/>
</g>
<defs>
<clipPath id="clip0_0_507">
<rect width="122.601" height="21.8331" fill="white"/>
</clipPath>
</defs>
</svg>
