<svg width="86" height="30" viewBox="0 0 86 30" fill="none" xmlns="http://www.w3.org/2000/svg">
<path d="M39.1531 20.8136C38.8952 21.1288 38.5659 21.3134 38.2203 21.3364C37.8378 21.3364 37.4919 21.007 37.4919 20.1978C37.4919 18.3074 39.4308 16.51 40.7095 16.553C40.4317 18.0639 40.2273 19.582 39.1374 20.8065L39.1531 20.8136ZM63.4836 20.9998C62.7722 20.7713 62.1114 20.3125 61.5569 19.662C61.0024 19.0114 60.5705 18.1883 60.2976 17.2619C60.9212 16.5459 61.681 15.9372 62.3937 15.2283C62.7496 14.9047 63.0083 14.4166 63.1221 13.8534C63.3384 13.1102 63.4778 12.3293 63.536 11.5334C63.536 11.1109 63.536 10.8173 63.1902 10.8746C62.8443 10.9319 61.6181 11.9129 61.3194 12.1993C59.7082 13.7309 58.283 15.5988 57.0958 17.7345C57.6512 14.7056 58.2748 10.2659 58.5159 7.99598C58.6945 7.22429 58.6816 6.39359 58.4792 5.63294C58.1103 4.87429 57.6411 4.21621 57.0958 3.6924C56.6137 3.31288 56.3674 3.74253 56.2626 4.35119C55.9534 6.4994 55.7805 7.70955 55.5027 9.50688C55.1558 12.0295 54.6293 14.4998 53.9306 16.8824C53.48 18.4936 52.4057 21.3292 51.1952 21.3292C49.9847 21.3292 50.4668 17.4481 50.4668 16.4098C50.4301 16.0303 50.3987 15.1352 49.7751 14.9777C47.6318 14.3189 47.2807 13.3235 46.8668 13.4667C46.589 13.5169 46.4528 13.8463 46.3427 14.3189C45.8921 16.3024 45.651 18.0568 44.8178 19.7538C44.4353 20.5558 43.7121 21.5512 43.1567 21.5512C42.6012 21.5512 42.4283 20.8351 42.4283 20.1763C42.4824 18.5139 42.6686 16.8644 42.9837 15.2569C43.12 14.4549 42.8108 14.3117 42.5016 14.1685C42.1581 14.0561 41.8068 13.9937 41.4536 13.9823C39.8104 13.9888 38.2197 14.7733 36.9522 16.2021C36.4181 16.8146 35.9411 17.5144 35.5321 18.2859C35.05 19.0879 33.5932 21.501 32.7285 21.501C32.1416 21.501 32.0735 20.606 32.0735 19.94C32.0735 17.1474 33.0429 12.8438 33.7713 10.2946C34.2228 8.94004 34.6165 7.55092 34.9504 6.1342C35.0153 5.7935 35.0212 5.4368 34.9675 5.09246C34.9139 4.74812 34.8021 4.42566 34.6412 4.15069C34.3094 3.53086 33.8841 3.01559 33.394 2.63977C33.2612 2.54661 33.1068 2.52895 32.9645 2.59065C32.8222 2.65235 32.7034 2.78841 32.6342 2.96918C32.2809 3.70201 31.9792 4.47881 31.7329 5.28924C30.3397 9.18495 29.5731 13.4432 29.4848 17.7775C29.4848 20.0474 29.6944 24.2221 31.9425 24.1648C33.1897 24.1648 34.2587 23.1265 35.0866 21.8949C35.2229 23.327 36.0928 24.1648 37.2666 24.1648C37.9049 24.1357 38.5299 23.9077 39.0939 23.4981C39.6579 23.0886 40.1459 22.5084 40.5208 21.8018C40.6315 22.4946 40.9178 23.1117 41.3291 23.5441C41.7405 23.9765 42.2504 24.1963 42.7689 24.1648C45.4362 24.1648 47.024 20.1477 47.7524 17.1187L47.962 17.2619C47.962 17.5913 47.9253 18.114 47.9253 18.5365C47.9253 20.8996 48.3393 24.215 50.624 24.1648C52.5263 24.1648 53.7682 21.7087 54.6748 19.718H54.7114C54.5752 21.0929 54.3656 22.1742 54.2975 23.5991C54.2608 24.215 54.8844 24.1219 55.1621 24.1219C56.5455 24.1219 56.4774 23.6994 56.86 22.0882C57.1548 21.0895 57.6309 20.2097 58.2434 19.5319C58.7045 20.8158 59.3517 21.9583 60.1456 22.8902C60.721 23.622 61.4587 24.0705 62.2417 24.1648C62.5062 24.1848 62.7665 24.0671 62.9701 23.8354C63.4035 23.2781 63.7248 22.5778 63.9029 21.8018C63.9052 21.623 63.8613 21.4488 63.7789 21.31C63.6964 21.1711 63.5807 21.0765 63.4522 21.0428L63.4836 20.9998Z" fill="black"/>
<path d="M70.647 18.9234C70.7151 20.6706 69.7456 21.9523 68.4303 22.9405C67.1742 23.9012 65.7503 24.3765 64.3115 24.3154C64.0337 24.3154 63.8975 24.0791 63.9289 23.5563C63.9841 23.1262 64.0885 22.7106 64.2381 22.3247C64.3207 22.065 64.4558 21.8428 64.6275 21.6843C64.7992 21.5258 65.0004 21.4374 65.2076 21.4296C65.7124 21.4142 66.2132 21.3033 66.6958 21.1002C67.3508 20.8639 68.0111 20.4844 68.0111 19.7254C68.0111 18.4006 63.8556 19.1596 63.8556 16.6534C63.8556 14.1472 66.9368 12.8726 68.1473 12.3999C68.6126 12.2406 69.0883 12.1446 69.5675 12.1135C69.8452 12.1135 69.9814 12.3498 69.9133 12.6792C69.8085 13.4812 69.5308 14.4264 68.9072 14.6198C68.1547 14.8109 67.4137 15.079 66.6905 15.4218C66.5543 15.5149 66.4495 15.6581 66.4495 15.8013C66.4495 15.9445 66.6224 16.0877 66.8635 16.1808C67.9115 16.5603 70.5317 16.7465 70.6365 18.9234H70.647Z" fill="black"/>
<path d="M28.84 24.0288C28.4261 24.0288 28.0435 23.9787 27.6295 23.9357C26.278 23.6612 24.9138 23.52 23.5474 23.5132C21.1577 23.5385 18.7731 23.8187 16.4154 24.351C14.812 24.7262 13.1931 24.9654 11.5681 25.0671H11.1856C9.31481 25.0671 7.48072 24.4083 7.4126 21.3292V21.0929C7.48072 17.1689 10.6668 12.3425 13.7009 9.07727C16.1916 6.35052 18.9528 4.12042 21.9019 2.45362C23.2219 1.67456 24.625 1.19099 26.0575 1.02148C27.1055 1.02148 26.9221 2.25311 26.1623 4.00032C25.4024 5.74753 25.1142 6.08409 24.1552 6.27027C22.4574 6.55669 19.9997 6.83596 15.3306 11.7052C12.6633 14.4979 10.2423 18.3289 10.3105 20.2981C10.3105 21.5297 11.0022 21.9522 11.8354 21.9522C13.3023 21.8487 14.7605 21.5805 16.1953 21.1502C18.9307 20.4914 22.3893 19.4961 25.2609 19.4961C25.9949 19.4781 26.7275 19.5888 27.4409 19.8255C27.901 20.0292 28.2953 20.4441 28.5571 20.9998C28.8122 21.4817 29.0433 21.9864 29.2488 22.5107C29.385 22.9833 29.558 23.4559 29.4217 23.7424C29.385 23.9285 29.2121 24.0288 28.8348 24.0288H28.84Z" fill="black"/>
</svg>
