<svg width="18" height="18" viewBox="0 0 18 18" fill="none" xmlns="http://www.w3.org/2000/svg">
<path fill-rule="evenodd" clip-rule="evenodd" d="M15.5631 15.3297C15.8736 15.3297 16.1256 15.5817 16.1256 15.8922C16.1256 16.2027 15.8736 16.4547 15.5631 16.4547H10.1233C9.81283 16.4547 9.56083 16.2027 9.56083 15.8922C9.56083 15.5817 9.81283 15.3297 10.1233 15.3297H15.5631ZM12.0874 2.74023C12.1249 2.76948 13.3797 3.74448 13.3797 3.74448C13.8357 4.01598 14.1919 4.50123 14.3269 5.07573C14.4612 5.64423 14.3637 6.23073 14.0509 6.72648C14.0488 6.72979 14.0468 6.73305 14.0395 6.74277L14.0339 6.75028C13.9831 6.81719 13.7624 7.09623 12.6486 8.49167C12.6383 8.50996 12.6266 8.52709 12.6138 8.54373C12.595 8.56827 12.5746 8.59082 12.5527 8.61135C12.4768 8.707 12.3965 8.80751 12.3122 8.91318L12.1412 9.12728C11.7885 9.56901 11.3701 10.0928 10.8738 10.7141L10.619 11.0329C9.66078 12.2323 8.43355 13.7679 6.86143 15.7347C6.51718 16.1637 6.00118 16.4135 5.44693 16.4202L2.71768 16.4547H2.71018C2.44993 16.4547 2.22343 16.2762 2.16268 16.022L1.54843 13.4187C1.42168 12.8795 1.54768 12.323 1.89343 11.891L8.95843 3.05448C8.96143 3.05148 8.96368 3.04773 8.96668 3.04473C9.74143 2.11848 11.1424 1.98198 12.0874 2.74023ZM8.17072 5.84025L2.77168 12.5937C2.64343 12.7542 2.59618 12.9612 2.64343 13.16L3.15418 15.3237L5.43343 15.2952C5.65018 15.293 5.85043 15.1962 5.98318 15.0312C6.66679 14.1759 7.52597 13.1009 8.40932 11.9955L8.72185 11.6044L9.0349 11.2127C9.86334 10.1759 10.6818 9.15155 11.3666 8.29415L8.17072 5.84025ZM9.83293 3.76248L8.87347 4.96125L12.0691 7.41445C12.6841 6.64402 13.0888 6.1366 13.1262 6.08823C13.2492 5.88873 13.2972 5.60673 13.2327 5.33523C13.1667 5.05698 12.9934 4.82073 12.7437 4.66998C12.6904 4.63323 11.4267 3.65223 11.3877 3.62148C10.9122 3.24048 10.2184 3.30648 9.83293 3.76248Z" fill="#88D790"/>
</svg>
