<svg width="32" height="32" viewBox="0 0 32 32" fill="none" xmlns="http://www.w3.org/2000/svg">
<circle cx="16" cy="16" r="16" fill="#FFB911"/>
<path d="M10.6108 14.8521V16.4453H4.27588V14.8521H10.6108ZM8.31299 12.3447V19.0732H6.58008V12.3447H8.31299ZM17.9614 18.5718V20H11.6392V18.7812L14.6289 15.5757C14.9294 15.2414 15.1663 14.9473 15.3398 14.6934C15.5133 14.4352 15.6382 14.2046 15.7144 14.0015C15.7948 13.7941 15.835 13.5973 15.835 13.4111C15.835 13.1318 15.7884 12.8927 15.6953 12.6938C15.6022 12.4907 15.4647 12.3341 15.2827 12.2241C15.105 12.1141 14.8849 12.0591 14.6226 12.0591C14.3433 12.0591 14.1021 12.1268 13.8989 12.2622C13.7 12.3976 13.5477 12.5859 13.4419 12.8271C13.3403 13.0684 13.2896 13.3413 13.2896 13.646H11.4551C11.4551 13.0959 11.5863 12.5923 11.8486 12.1353C12.111 11.674 12.4813 11.3079 12.9595 11.0371C13.4377 10.762 14.0047 10.6245 14.6606 10.6245C15.3081 10.6245 15.854 10.7303 16.2983 10.9419C16.7469 11.1493 17.0854 11.4497 17.314 11.8433C17.5467 12.2326 17.6631 12.6981 17.6631 13.2397C17.6631 13.5444 17.6144 13.8428 17.5171 14.1348C17.4198 14.4225 17.2801 14.7103 17.0981 14.998C16.9204 15.2816 16.7046 15.5693 16.4507 15.8613C16.1968 16.1533 15.9154 16.4559 15.6064 16.769L14.0005 18.5718H17.9614ZM19.0786 13.0239V12.5352C19.0786 12.1839 19.1548 11.8644 19.3071 11.5767C19.4595 11.2889 19.6838 11.0583 19.98 10.8848C20.2762 10.7113 20.6401 10.6245 21.0718 10.6245C21.5161 10.6245 21.8864 10.7113 22.1826 10.8848C22.4831 11.0583 22.7074 11.2889 22.8555 11.5767C23.0078 11.8644 23.084 12.1839 23.084 12.5352V13.0239C23.084 13.3667 23.0078 13.682 22.8555 13.9697C22.7074 14.2575 22.4852 14.4881 22.189 14.6616C21.8927 14.8351 21.5267 14.9219 21.0908 14.9219C20.6507 14.9219 20.2804 14.8351 19.98 14.6616C19.6838 14.4881 19.4595 14.2575 19.3071 13.9697C19.1548 13.682 19.0786 13.3667 19.0786 13.0239ZM20.291 12.5352V13.0239C20.291 13.172 20.3185 13.3138 20.3735 13.4492C20.4328 13.5804 20.5216 13.6883 20.6401 13.7729C20.7629 13.8534 20.911 13.8936 21.0845 13.8936C21.2664 13.8936 21.4146 13.8534 21.5288 13.7729C21.6431 13.6883 21.7277 13.5804 21.7827 13.4492C21.8377 13.3138 21.8652 13.172 21.8652 13.0239V12.5352C21.8652 12.3786 21.8356 12.2347 21.7764 12.1035C21.7214 11.9681 21.6346 11.8602 21.5161 11.7798C21.4019 11.6951 21.2537 11.6528 21.0718 11.6528C20.9025 11.6528 20.7586 11.6951 20.6401 11.7798C20.5216 11.8602 20.4328 11.9681 20.3735 12.1035C20.3185 12.2347 20.291 12.3786 20.291 12.5352ZM23.4966 18.2227V17.7339C23.4966 17.3869 23.5728 17.0695 23.7251 16.7817C23.8817 16.494 24.1081 16.2633 24.4043 16.0898C24.7048 15.9163 25.0729 15.8296 25.5088 15.8296C25.9489 15.8296 26.3171 15.9163 26.6133 16.0898C26.9095 16.2633 27.1338 16.494 27.2861 16.7817C27.4385 17.0695 27.5146 17.3869 27.5146 17.7339V18.2227C27.5146 18.5697 27.4385 18.887 27.2861 19.1748C27.138 19.4626 26.9159 19.6932 26.6196 19.8667C26.3234 20.0402 25.9574 20.127 25.5215 20.127C25.0814 20.127 24.7111 20.0402 24.4106 19.8667C24.1102 19.6932 23.8817 19.4626 23.7251 19.1748C23.5728 18.887 23.4966 18.5697 23.4966 18.2227ZM24.7153 17.7339V18.2227C24.7153 18.375 24.7492 18.5189 24.8169 18.6543C24.8846 18.7897 24.9777 18.8976 25.0962 18.978C25.2189 19.0584 25.3607 19.0986 25.5215 19.0986C25.7246 19.0986 25.8833 19.0584 25.9976 18.978C26.1118 18.8976 26.1901 18.7897 26.2324 18.6543C26.279 18.5189 26.3022 18.375 26.3022 18.2227V17.7339C26.3022 17.5815 26.2726 17.4398 26.2134 17.3086C26.1541 17.1732 26.0653 17.0653 25.9468 16.9849C25.8325 16.9002 25.6865 16.8579 25.5088 16.8579C25.3311 16.8579 25.1829 16.9002 25.0645 16.9849C24.9502 17.0653 24.8634 17.1732 24.8042 17.3086C24.745 17.4398 24.7153 17.5815 24.7153 17.7339ZM25.9595 12.0781L21.4463 19.3018L20.5576 18.832L25.0708 11.6084L25.9595 12.0781Z" fill="white"/>
</svg>
