<svg width="119" height="32" viewBox="0 0 119 32" fill="none" xmlns="http://www.w3.org/2000/svg">
<g clip-path="url(#clip0_0_571)">
<path fill-rule="evenodd" clip-rule="evenodd" d="M12.9265 26.4838C12.3182 27.2375 11.8551 28.1 11.5613 29.0264V29.2012C11.5334 29.244 11.5186 29.2941 11.5186 29.3453C11.5186 29.3966 11.5334 29.4467 11.5613 29.4895L11.7859 29.8914C11.7954 29.9059 11.8083 29.9177 11.8233 29.9259C11.8384 29.934 11.8552 29.9383 11.8723 29.9383C11.8895 29.9383 11.9063 29.934 11.9214 29.9259C11.9364 29.9177 11.9493 29.9059 11.9588 29.8914C12.0192 29.7778 12.0711 29.6031 12.1316 29.4895C12.5189 28.8953 13.0006 28.3697 13.5573 27.9342C13.8424 27.6459 13.3845 26.8944 13.2116 26.5449C13.1976 26.5212 13.1789 26.5006 13.1566 26.4845C13.1344 26.4684 13.109 26.4571 13.0823 26.4514C13.0555 26.4457 13.0279 26.4456 13.0011 26.4511C12.9742 26.4567 12.9489 26.4678 12.9265 26.4838Z" fill="#141B53"/>
<path fill-rule="evenodd" clip-rule="evenodd" d="M13.0648 20.8304C13.1253 20.8304 13.1771 20.8304 13.1771 20.7692C13.2056 20.3853 13.2056 19.9997 13.1771 19.6158H13.1166C12.3084 19.1661 11.4327 18.8532 10.5244 18.6896C10.464 18.6285 10.4121 18.6896 10.4121 18.7508C10.4599 18.879 10.4805 19.016 10.4726 19.1527C10.4809 19.1512 10.4894 19.1517 10.4975 19.1542C10.5055 19.1567 10.5128 19.1612 10.5188 19.1672C10.5247 19.1732 10.5291 19.1806 10.5316 19.1888C10.5341 19.1969 10.5346 19.2055 10.5331 19.2139C11.4975 19.5676 12.3798 20.1178 13.1253 20.8304H13.0648Z" fill="#E31145"/>
<path fill-rule="evenodd" clip-rule="evenodd" d="M9.06409 30.3023C9.2369 30.1275 10.0318 29.9528 10.4379 29.5509C10.7366 28.9494 10.949 28.3081 11.0687 27.6461C11.0687 26.4315 11.1292 24.5267 11.0082 23.1462C10.8873 21.7656 10.7231 20.7258 10.5503 19.7385C10.4898 19.6249 10.6108 19.5637 10.7231 19.5637C11.5424 19.9604 12.2947 20.4853 12.9524 21.119C13.0647 21.1802 13.0647 21.2938 13.1252 21.3462C13.2375 23.251 12.4426 24.2908 12.84 25.8461C12.8658 25.9409 12.886 26.0372 12.9005 26.1344C12.84 26.248 12.7882 26.3092 12.7882 26.3616C12.1274 27.161 11.623 28.0802 11.302 29.0703C11.305 29.2312 11.3434 29.3894 11.4143 29.5334C11.5267 29.7606 12.0451 30.3373 11.6995 30.512C11.3429 30.5781 10.9818 30.6161 10.6194 30.6256C10.1585 30.6463 9.69694 30.6081 9.24553 30.512C9.18505 30.512 8.96041 30.512 9.07274 30.2848L9.06409 30.3023Z" fill="#141B53"/>
<path fill-rule="evenodd" clip-rule="evenodd" d="M13.4016 28.3361C13.4016 28.3361 13.462 28.3973 13.4016 28.3973C13.2362 28.7201 13.1391 29.0742 13.1164 29.4371C13.0759 29.8406 13.0557 30.246 13.0559 30.6516H12.7708C12.7406 30.1919 12.7406 29.7307 12.7708 29.2711C12.7554 29.1853 12.7633 29.0968 12.7937 29.0153C12.8242 28.9337 12.876 28.862 12.9436 28.8079C13.0813 28.6391 13.2346 28.4841 13.4016 28.3449V28.3361Z" fill="#141B53"/>
<path fill-rule="evenodd" clip-rule="evenodd" d="M16.5468 4.32514C16.3301 4.42924 16.1195 4.54594 15.916 4.67464C15.8037 4.67464 15.7432 4.61347 15.8037 4.56105L16.8319 2.3679C16.8675 2.28731 16.9268 2.21981 17.0018 2.17462C17.0768 2.12943 17.1637 2.10877 17.2507 2.11546C17.3377 2.12216 17.4206 2.15588 17.4879 2.21202C17.5553 2.26815 17.6038 2.34397 17.6269 2.42907C17.6352 2.42751 17.6437 2.428 17.6518 2.43052C17.6598 2.43304 17.6671 2.4375 17.6731 2.44352C17.679 2.44955 17.6834 2.45696 17.6859 2.4651C17.6884 2.47323 17.6889 2.48185 17.6874 2.49023C17.7479 2.60382 17.7997 2.83973 17.8602 2.95332C17.8892 2.99569 17.9047 3.04599 17.9047 3.0975C17.9047 3.14902 17.8892 3.1993 17.8602 3.24167C17.5329 3.72362 17.0777 4.10224 16.5468 4.33387V4.32514Z" fill="#00A3D3"/>
<path fill-rule="evenodd" clip-rule="evenodd" d="M9.91936 0.401937C9.97984 0.4631 9.40956 0.978621 9.05529 1.2058H8.94299C8.8825 1.26696 8.8825 1.2058 8.83065 1.2058C8.65981 1.14529 8.47449 1.14058 8.30084 1.19232C8.1272 1.24406 7.97402 1.34963 7.86291 1.49414C7.65442 1.75177 7.49871 2.0488 7.40493 2.36791C7.24645 2.80224 7.11374 3.24573 7.00747 3.69604C6.94035 4.10982 6.78401 4.50358 6.54951 4.8494H6.37672C6.1031 4.56603 5.81466 4.2977 5.51265 4.04554V3.98438C5.45217 3.92322 5.51263 3.87079 5.57312 3.87079C5.74593 3.69603 5.9706 3.52128 6.20389 3.2941C6.42743 2.94892 6.61837 2.58324 6.77418 2.20189C6.88651 1.85239 7.05931 1.56405 7.17164 1.22328C7.22482 1.07803 7.30068 0.942329 7.3963 0.821341C7.51139 0.694819 7.65418 0.597315 7.81323 0.536623C7.97228 0.475931 8.14316 0.453743 8.31221 0.47184C8.80504 0.40518 9.30126 0.36725 9.7984 0.358246C9.7984 0.358246 9.91073 0.358252 9.91073 0.419416L9.91936 0.401937Z" fill="#00A3D3"/>
<path d="M5.64235 3.57368C5.58187 3.63485 5.53002 3.57368 5.53002 3.51251C5.61511 3.19198 5.61511 2.85443 5.53002 2.5339C5.48801 2.3063 5.46775 2.07514 5.46953 1.84362C5.40905 1.78246 5.46953 1.78246 5.46953 1.73004C5.58186 1.66888 5.64235 1.73003 5.6942 1.84362C5.7086 2.05973 5.74627 2.27362 5.80653 2.48148C5.80787 2.58824 5.84783 2.69082 5.91886 2.76982C5.97935 2.83099 5.97932 2.83098 6.03117 2.83098C6.07014 2.85323 6.10165 2.88674 6.12167 2.92721C6.14168 2.96769 6.14928 3.01329 6.1435 3.05817C6.08285 3.1648 6.00719 3.26192 5.91886 3.3465C5.80653 3.46009 5.74603 3.57368 5.63371 3.57368H5.64235Z" fill="#1B2747"/>
<path d="M7.30143 3.46022H7.24097L7.63843 2.36801C7.75076 1.96608 8.2692 1.15347 8.66667 1.32823C9.06413 1.50298 7.58659 2.88353 7.29281 3.46022H7.30143Z" fill="#1B2747"/>
<path d="M9.40965 3.40768V3.21545L9.23685 2.17567C9.17637 2.1145 9.17636 2.06207 9.12452 2.06207H9.06403C8.94777 2.221 8.85196 2.39424 8.7789 2.5776C8.65769 3.09184 8.67859 3.62988 8.83936 4.13291C8.89985 4.13291 8.89985 4.24649 8.9517 4.19406C9.00354 4.14164 9.40965 3.73097 9.40965 3.3902V3.40768Z" fill="#1B2747"/>
<path d="M10.8958 1.84352C10.8875 1.84508 10.879 1.84459 10.871 1.84207C10.8629 1.83955 10.8556 1.83509 10.8496 1.82907C10.8437 1.82304 10.8393 1.81565 10.8368 1.80751C10.8343 1.79937 10.8338 1.79074 10.8353 1.78236H10.7749C10.7649 1.3231 10.8626 0.867975 11.06 0.454236C11.1205 0.393072 11.2328 0.393078 11.2328 0.515406C11.2136 0.965922 11.1381 1.41216 11.0081 1.84352C11.0081 1.90468 10.8958 1.90468 10.8958 1.84352Z" fill="#1B2747"/>
<path d="M12.9263 0.594184C12.9236 0.563679 12.9276 0.532963 12.938 0.504189C12.9483 0.475415 12.9648 0.449285 12.9862 0.427633C13.0076 0.405981 13.0335 0.389322 13.0619 0.378849C13.0904 0.368376 13.1208 0.364341 13.1509 0.36701L13.6089 0.48059C13.7212 0.48059 13.7817 0.480597 13.8335 0.54176C13.8893 0.592179 13.9337 0.65421 13.9635 0.72359C13.9933 0.79297 14.0079 0.868048 14.0064 0.943685C14.0148 1.06344 13.994 1.18345 13.9459 1.2932C13.8807 1.49986 13.843 1.71434 13.8335 1.93104C13.8335 1.99221 13.8336 2.04464 13.7731 2.04464C13.7126 2.04464 13.7126 2.04464 13.6607 2.04464C13.3888 1.93526 13.1649 1.73055 13.03 1.46795C12.9279 1.18897 12.8895 0.890277 12.9176 0.594184H12.9263Z" fill="#1B2747"/>
<path d="M11.4659 0.227174C11.4054 0.113585 11.5782 0 11.6906 0C11.8746 0.0767768 12.0656 0.1353 12.2609 0.17475C12.3213 0.235914 12.3213 0.235907 12.3732 0.235907C12.4264 0.321753 12.4479 0.423927 12.4337 0.524251C12.4063 0.84316 12.4661 1.16354 12.6065 1.45044C12.7514 1.6835 12.9463 1.8806 13.1768 2.02713C13.2891 2.14072 13.4619 2.20188 13.5224 2.37663V2.4378H13.4619C13.313 2.50561 13.16 2.56398 13.0039 2.61255C12.8447 2.71638 12.7092 2.85342 12.6065 3.01449C12.4941 3.18924 12.4336 3.41641 12.3213 3.59116C12.209 3.76592 12.209 3.81835 12.0362 3.81835C11.8634 3.81835 11.8115 3.75719 11.6906 3.6436C11.5466 3.41502 11.4496 3.15946 11.4054 2.89216L11.2326 2.54265C11.1721 2.54265 11.1721 2.48149 11.2326 2.42907C11.4478 1.71974 11.5241 0.974775 11.4573 0.235907L11.4659 0.227174Z" fill="#F27E04"/>
<path d="M14.7755 0.926205C14.836 0.926205 14.8878 0.926198 14.8878 0.987362C14.9198 1.01747 14.941 1.0574 14.9483 1.10096C14.9384 1.29764 14.9006 1.49186 14.836 1.67764C14.7662 1.95409 14.6707 2.22324 14.5508 2.48151L14.4903 2.54266C14.4299 2.60383 14.378 2.54266 14.3175 2.54266C14.257 2.54266 14.2052 2.48151 14.1447 2.48151L14.0842 2.42034V2.3417C14.1447 1.99219 14.1966 1.59026 14.2571 1.24949C14.2571 1.1359 14.3175 1.02232 14.3175 0.899993C14.3175 0.777666 14.4903 0.725236 14.5422 0.786399C14.594 0.847563 14.715 0.847567 14.7668 0.899993L14.7755 0.926205Z" fill="#1B2747"/>
<path fill-rule="evenodd" clip-rule="evenodd" d="M13.6868 18.9433C13.8728 18.992 14.065 19.0127 14.2571 19.0044L14.8878 18.8297C14.9722 18.8151 15.0504 18.7756 15.1125 18.7161C15.3371 18.6025 15.4581 18.3141 15.5704 18.1394C15.6828 17.9646 16.2012 18.0258 16.4863 17.851C16.5987 17.7899 16.5987 17.6239 16.6592 17.5627C16.7196 17.5015 16.6592 17.5015 16.7197 17.4491H16.832C17.0566 17.3879 17.2899 17.388 17.4627 17.3355C17.6048 17.3191 17.7476 17.3599 17.8602 17.4491C17.864 17.481 17.8606 17.5133 17.8501 17.5436C17.8396 17.5739 17.8224 17.6014 17.7997 17.6239C17.4023 19.0656 14.715 19.5287 14.4299 19.5898C14.3427 19.6379 14.2436 19.6591 14.1447 19.651C14.0324 19.651 13.9719 19.5898 13.8596 19.5374C13.7473 19.485 13.7473 19.3627 13.6868 19.3102C13.6263 19.2578 13.6263 18.9083 13.6868 18.9607V18.9433Z" fill="#00A3D3"/>
<path d="M13.5744 18.6375C13.5139 18.5764 13.5744 18.4103 13.6349 18.4103C14.2235 18.4481 14.8077 18.285 15.2939 17.9472C15.4062 17.8337 15.2939 17.5977 15.4667 17.5977C15.754 17.6274 16.0435 17.6274 16.3308 17.5977C16.3738 17.6051 16.4133 17.6266 16.4431 17.6589C16.3826 17.7201 16.3826 17.7725 16.3308 17.7725C16.1058 17.8248 15.8778 17.8628 15.6481 17.8861C15.4753 17.9472 15.4235 18.1744 15.2507 18.4016C15.0779 18.6288 14.4557 18.8035 14.2829 18.8647C14.1101 18.9259 13.7126 18.8647 13.6003 18.6375H13.5744Z" fill="#1B2747"/>
<path d="M14.0929 19.9655C14.0913 19.9572 14.0918 19.9485 14.0943 19.9404C14.0968 19.9323 14.1012 19.9249 14.1072 19.9188C14.1131 19.9128 14.1204 19.9084 14.1285 19.9058C14.1365 19.9033 14.1451 19.9028 14.1534 19.9044C15.0209 19.7415 15.8653 19.4716 16.6678 19.1005C17.2735 18.8098 17.7442 18.293 17.9812 17.6588C17.9812 17.5452 18.0935 17.72 18.0935 17.72C18.1077 17.7295 18.1194 17.7425 18.1275 17.7578C18.1356 17.773 18.1398 17.79 18.1398 17.8073C18.1398 17.8246 18.1356 17.8417 18.1275 17.8569C18.1194 17.8722 18.1077 17.8852 18.0935 17.8947C17.8513 18.493 17.4075 18.9852 16.8406 19.284C16.1759 19.5892 15.4882 19.8405 14.7841 20.0354C14.3866 20.2102 14.2138 20.0966 14.1015 19.9743L14.0929 19.9655Z" fill="#1B2747"/>
<path d="M13.4016 16.4442C13.5139 16.5053 13.8595 16.5053 13.9719 16.5578C14.0842 16.6102 14.0842 16.7849 13.9719 16.9073C13.6703 17.1664 13.3208 17.3624 12.9436 17.484C12.5793 17.6204 12.1911 17.6799 11.8031 17.6587C11.7426 17.5975 11.6303 17.3704 11.9154 17.1956C12.3391 16.9492 12.707 16.6159 12.9955 16.217C12.9939 16.2086 12.9944 16.2 12.9969 16.1919C12.9994 16.1837 13.0038 16.1763 13.0098 16.1703C13.0158 16.1643 13.0231 16.1598 13.0311 16.1573C13.0392 16.1548 13.0477 16.1543 13.056 16.1558C13.056 16.0947 13.1683 16.0947 13.1683 16.1558C13.2127 16.2727 13.291 16.3732 13.393 16.4442H13.4016Z" fill="#1B2747"/>
<path d="M16.3826 16.0948V16.1559C16.3842 16.1643 16.3837 16.1729 16.3812 16.1811C16.3787 16.1892 16.3743 16.1966 16.3684 16.2026C16.3624 16.2087 16.3551 16.2131 16.347 16.2156C16.339 16.2182 16.3304 16.2187 16.3222 16.2171C15.9749 16.4851 15.5906 16.7 15.1816 16.8549C15.1816 16.9161 15.1211 16.9161 15.0693 16.9161C15.0174 16.9161 14.9569 16.6278 15.0088 16.5666C15.0606 16.5054 15.1816 16.3918 15.2335 16.3394C15.5576 16.2388 15.8537 16.0622 16.0975 15.8239C16.158 15.7627 16.2703 15.7627 16.2703 15.8239C16.2703 15.8851 16.3826 15.9986 16.3826 16.1122V16.0948Z" fill="#1B2747"/>
<path d="M14.8273 16.619C14.6027 16.7938 14.3694 17.0821 14.1447 17.2569C13.4801 17.7344 12.6783 17.977 11.8636 17.9471C11.7513 18.0083 11.7513 17.7724 11.8636 17.7724C12.3476 17.7722 12.8287 17.6955 13.2893 17.5452C13.8596 17.318 14.2571 16.7413 14.8273 16.5666C14.8273 16.5054 14.8878 16.5054 14.8878 16.5666L14.8273 16.619Z" fill="#1B2747"/>
<path d="M2.6787 16.3831C2.74465 16.6699 2.78226 16.9626 2.79101 17.2569C2.77679 17.3572 2.79823 17.4594 2.8515 17.5452C2.91198 17.5452 2.91199 17.6064 2.96383 17.6064H3.07617C3.07617 17.5452 3.07617 17.5452 3.13666 17.5452C3.13666 17.3704 3.19712 17.2569 3.19712 17.0821V16.8549C3.19712 16.7938 3.19714 16.7938 3.13666 16.7413C3.04898 16.5812 2.90821 16.4574 2.73917 16.3918C2.73917 16.3918 2.6787 16.3307 2.6787 16.3918V16.3831Z" fill="#1B2747"/>
<path d="M8.95169 20.3675C8.96726 20.3501 8.97827 20.3291 8.9837 20.3064C8.98914 20.2836 8.98883 20.2598 8.98281 20.2372C8.97679 20.2146 8.96524 20.1939 8.94924 20.1769C8.93323 20.16 8.91327 20.1474 8.8912 20.1403C8.77887 20.1403 8.54558 20.0791 8.49374 20.0791C8.25928 20.0519 8.02179 20.0735 7.79591 20.1426C7.57002 20.2118 7.36055 20.3269 7.18037 20.4811C7.11989 20.4811 7.18038 20.5947 7.24086 20.5947C7.26312 20.5718 7.29027 20.5543 7.32023 20.5437C7.35019 20.5331 7.38215 20.5296 7.41366 20.5335C7.71251 20.4555 8.02316 20.4347 8.32956 20.4723C8.55422 20.4723 8.72704 20.5335 8.89985 20.4112C8.90813 20.4127 8.91667 20.4122 8.92472 20.4097C8.93276 20.4072 8.94007 20.4027 8.94602 20.3967C8.95198 20.3907 8.9564 20.3833 8.95889 20.3752C8.96138 20.367 8.96189 20.3584 8.96034 20.35L8.95169 20.3675Z" fill="#1B2747"/>
<path d="M10.5503 18.0695C10.6626 18.0083 10.6626 17.8423 10.4898 17.7811C10.1271 17.6384 9.73255 17.5991 9.34925 17.6675C9.11905 17.9505 8.96172 18.2867 8.89129 18.6461C8.82288 18.9997 8.72756 19.3473 8.60616 19.6859C8.54568 19.7471 8.60617 19.7995 8.7185 19.8607C8.83692 19.8522 8.95559 19.8732 9.06412 19.9218C9.1246 19.9218 9.17645 19.9218 9.17645 19.8607C9.28878 19.6335 9.4011 19.3452 9.52207 19.1092C9.57702 18.936 9.66573 18.7756 9.78297 18.6375C9.9002 18.4994 10.0436 18.3865 10.2047 18.3054C10.2668 18.2459 10.345 18.2063 10.4293 18.1918H10.4898C10.4898 18.1306 10.5503 18.1306 10.5503 18.0782V18.0695Z" fill="#1B2747"/>
<path fill-rule="evenodd" clip-rule="evenodd" d="M8.15674 18.349C7.98393 18.5237 7.8716 18.7509 7.69879 18.9257C7.41374 19.0636 7.14671 19.2368 6.90384 19.4412C6.81396 19.572 6.77096 19.7299 6.78196 19.8888C6.79296 20.0477 6.85731 20.1981 6.96433 20.315C6.96433 20.3761 7.02482 20.3761 7.07666 20.315C7.16479 20.1898 7.28401 20.0903 7.42228 20.0266H7.48277V19.9654C7.75517 19.8455 8.04979 19.7859 8.34684 19.7907C8.40732 19.7907 8.4073 19.7907 8.45914 19.7295C8.50475 19.6073 8.56266 19.4902 8.63196 19.38V19.3188V19.2577V19.1441L8.69246 19.0829V18.8558C8.74159 18.6179 8.81693 18.3864 8.91709 18.1655C8.96891 17.9879 9.06748 17.8278 9.20225 17.7024C8.83261 17.8671 8.48672 18.0817 8.17401 18.3402L8.15674 18.349Z" fill="#754090"/>
<path d="M7.58637 17.8859C7.59465 17.8843 7.60319 17.8848 7.61124 17.8873C7.61928 17.8899 7.62659 17.8943 7.63254 17.9003C7.6385 17.9064 7.64292 17.9138 7.64541 17.9219C7.6479 17.93 7.64841 17.9387 7.64686 17.947C7.6586 18.1413 7.63815 18.3362 7.58637 18.5237C7.5507 18.6315 7.49078 18.7294 7.41131 18.8098C7.33184 18.8902 7.235 18.9508 7.12842 18.9868C7.2422 18.6458 7.33738 18.2986 7.41355 17.947C7.41355 17.8859 7.41355 17.8859 7.47404 17.8859V17.8247C7.53452 17.8247 7.53453 17.8247 7.58637 17.8859Z" fill="#1B2747"/>
<path fill-rule="evenodd" clip-rule="evenodd" d="M3.53403 31.9099C3.58577 31.8636 3.64399 31.8254 3.70682 31.7963C3.88687 31.7743 4.06047 31.7148 4.21664 31.6216C4.32897 31.6216 4.4413 31.5604 4.56226 31.5604C4.68323 31.5604 4.67458 31.4992 4.7869 31.4992C4.89923 31.4992 4.89924 31.4381 4.95973 31.3857C5.05863 31.3938 5.15772 31.3725 5.24486 31.3245C5.32448 31.331 5.40388 31.3094 5.46952 31.2633C5.5684 31.2709 5.66737 31.2497 5.75468 31.2022H5.86698C5.88924 31.1793 5.91639 31.1618 5.94635 31.1512C5.97632 31.1406 6.00829 31.1371 6.03981 31.141C6.13358 31.115 6.22878 31.0945 6.32494 31.0798C6.38542 31.0798 6.38542 31.0798 6.43727 31.0187H6.61009C6.72242 31.0187 6.83474 30.9575 6.95571 30.9575C7.07668 30.9575 7.0162 30.9575 7.06804 30.8963H7.24087C7.3532 30.8963 7.46552 30.8352 7.58649 30.8352C7.618 30.839 7.64995 30.8355 7.67991 30.8249C7.70987 30.8143 7.73703 30.7969 7.75928 30.774H7.93211C8.04444 30.774 8.15676 30.7129 8.27773 30.7129C8.41299 30.7208 8.54839 30.7 8.67519 30.6517H9.02084C9.14763 30.6034 9.28303 30.5826 9.4183 30.5905C9.64295 30.5905 9.92808 30.5294 10.1614 30.5294H10.5589C10.6712 30.5294 10.7835 30.4682 10.9563 30.4682H12.6845C12.7524 30.509 12.8301 30.5301 12.9091 30.5294H13.6522C13.7799 30.5739 13.9146 30.5947 14.0497 30.5905H14.2225C14.3021 30.584 14.3815 30.6057 14.4472 30.6517H14.7928C15.2561 30.6895 15.7155 30.7655 16.1666 30.8789C16.6246 30.94 17.0825 31.0536 17.4195 31.106C17.451 31.1022 17.483 31.1057 17.513 31.1163C17.5429 31.1269 17.5701 31.1443 17.5923 31.1672H17.7047C17.817 31.1672 17.8775 31.2284 17.9898 31.2284C18.1021 31.2284 18.0503 31.2895 18.1021 31.2895H18.2145C18.2824 31.3303 18.3601 31.3515 18.4391 31.3507C18.7847 31.4643 19.0094 31.5255 19.234 31.5779C19.3902 31.6711 19.5638 31.7306 19.7439 31.7526C19.8067 31.7817 19.8649 31.8199 19.9167 31.8662C19.8688 31.8245 19.807 31.8027 19.7439 31.8051H19.5192C19.4319 31.7575 19.3329 31.7363 19.234 31.7439C19.2025 31.7478 19.1706 31.7442 19.1406 31.7336C19.1107 31.723 19.0835 31.7056 19.0612 31.6827H18.8366C18.7243 31.6827 18.5514 31.6216 18.3786 31.6216C18.2996 31.6223 18.2219 31.6012 18.154 31.5604H17.9293C17.8304 31.5685 17.7313 31.5473 17.6442 31.4992H17.359C17.2467 31.4992 17.1862 31.4381 17.0739 31.4381H16.7888C16.6764 31.4381 16.5641 31.3769 16.4431 31.3769H16.0975C15.989 31.3282 15.8703 31.3073 15.7519 31.3158H15.4063C15.3458 31.3158 15.2939 31.2546 15.2335 31.2546H14.7236C14.6052 31.2631 14.4865 31.2421 14.378 31.1934H13.6349C13.4997 31.2014 13.3642 31.1806 13.2374 31.1323H10.2132C10.1527 31.1934 10.1528 31.1934 10.1009 31.1934H9.07268C8.96415 31.2421 8.84548 31.2631 8.72706 31.2546H8.32957C8.21724 31.2546 8.10492 31.3158 7.98395 31.3158H7.63833C7.526 31.3158 7.41368 31.3769 7.29271 31.3769C6.89005 31.3833 6.48848 31.4213 6.09165 31.4905C5.69418 31.5517 5.34855 31.5517 5.01157 31.6041C4.89924 31.6041 4.72643 31.6653 4.61411 31.6653H4.38944C4.36719 31.6881 4.34003 31.7056 4.31007 31.7162C4.28011 31.7268 4.24816 31.7303 4.21664 31.7264C4.11746 31.7128 4.01666 31.7344 3.93149 31.7876H3.70682C3.64365 31.7852 3.58194 31.8071 3.53403 31.8488V31.9099Z" fill="#141B53"/>
</g>
<path d="M15.776 16.6189C15.7317 16.7937 15.7317 17.0209 15.5231 17.082C15.2892 17.0324 15.0702 16.8932 14.8907 16.6801C14.3545 16.3112 13.8387 15.8877 13.3479 15.4132C13.0698 15.1619 12.8745 14.7696 12.804 14.321C12.8862 13.8579 13.2657 14.3821 13.683 14.4345C13.9739 14.4345 14.0181 15.1248 14.2647 15.4132C14.4258 15.5726 14.6085 15.6857 14.8018 15.7457C14.9952 15.8058 15.1953 15.8115 15.3903 15.7627C15.5547 15.7627 15.7254 15.7015 15.8519 15.7015C15.9783 15.7015 16.0163 15.8151 15.9784 15.8763C15.8962 16.1646 15.8519 16.3918 15.7697 16.6277L15.776 16.6189Z" fill="#1B2747"/>
<path fill-rule="evenodd" clip-rule="evenodd" d="M14.6946 15.4482C14.9693 15.5356 15.2547 15.5356 15.5293 15.4482C15.5736 15.4482 15.5736 15.3346 15.5293 15.3346C15.3649 15.221 15.0298 15.221 14.8211 15.1075C14.6766 15.0521 14.5367 14.976 14.4038 14.8803C14.3216 14.8191 14.2394 14.8191 14.3216 14.9939C14.3556 15.104 14.4066 15.2025 14.471 15.2824C14.5355 15.3624 14.6118 15.422 14.6946 15.457V15.4482Z" fill="#E10585"/>
<path d="M5.9243 9.23575C6.88545 10.5639 7.18896 10.3891 7.18896 10.3891C7.23323 10.2144 7.18898 9.92603 7.06251 9.8736C6.93604 9.82117 6.68943 9.5241 6.43018 9.23575C5.36874 7.9964 4.37731 6.64688 3.46455 5.19896C3.42029 5.08537 3.33807 5.08537 3.25587 5.19896C3.23547 5.24176 3.22461 5.29188 3.22461 5.34313C3.22461 5.39437 3.23547 5.44451 3.25587 5.48731L5.9243 9.23575Z" fill="#1B2747"/>
<path d="M4.08423 3.74837C4.157 3.70002 4.24024 3.69114 4.31751 3.72349C4.39479 3.75585 4.46045 3.82709 4.50155 3.92312C4.56404 4.10025 4.63372 4.27236 4.71023 4.43864C4.75774 4.55138 4.78638 4.6774 4.79404 4.80744C4.8017 4.93747 4.78818 5.06821 4.7545 5.19008C4.71023 5.41726 4.67229 5.65319 4.62802 5.82794C4.61712 5.85916 4.60099 5.88635 4.58098 5.90726C4.56096 5.92816 4.53763 5.94217 4.51292 5.94815C4.4882 5.95412 4.4628 5.95188 4.43883 5.94161C4.41487 5.93135 4.39303 5.91335 4.3751 5.8891C4.00202 5.25125 3.54042 4.56098 3.54042 4.49981C3.45821 4.21147 4.08423 3.74837 4.08423 3.74837Z" fill="#E21243"/>
<path d="M5.17185 4.96299C5.27928 5.05022 5.39131 5.12616 5.50699 5.19016C5.65792 5.27865 5.77808 5.44469 5.84212 5.65326C5.91101 5.97464 5.9659 6.30144 6.00651 6.63189C6.1046 7.15226 6.2742 7.64172 6.50606 8.07359C6.53792 8.17415 6.55438 8.28275 6.55438 8.39252C6.55438 8.5023 6.53792 8.61088 6.50606 8.71144C6.50606 8.71144 6.50605 8.7726 6.46179 8.71144L5.19713 6.96391C5.06452 6.78218 4.93994 6.58962 4.82406 6.38723C4.79075 6.32085 4.7751 6.24056 4.77979 6.16004C4.86199 5.93287 4.94421 5.35618 5.03274 5.12026C5.12126 4.88434 5.15919 4.94552 5.19713 5.00668L5.17185 4.96299Z" fill="#1B2747"/>
<path fill-rule="evenodd" clip-rule="evenodd" d="M6.75893 9.17454C6.71467 9.17454 6.71467 9.11337 6.71467 9.06095C6.77162 8.77673 6.78667 8.4796 6.75893 8.18718C6.59493 7.74214 6.45542 7.28064 6.34159 6.80663C6.34159 6.69304 6.2594 6.29111 6.21514 5.93287C6.17088 5.75811 6.37954 5.70568 6.4238 5.8717C6.46806 6.03771 6.46807 6.04646 6.46807 6.09888C6.58484 7.05823 6.79765 7.99044 7.1004 8.86872C7.35333 9.4454 7.39126 9.38423 7.39126 9.55899C7.43553 9.67258 7.30907 9.78617 7.26481 9.67258L6.75893 9.17454Z" fill="#E31145"/>
<path d="M10.8064 8.30943C10.8125 8.311 10.8187 8.3105 10.8246 8.30798C10.8305 8.30546 10.8359 8.30099 10.8403 8.29496C10.8446 8.28894 10.8479 8.28154 10.8497 8.27341C10.8515 8.26527 10.8519 8.25663 10.8507 8.24826C10.7656 8.08928 10.6955 7.91606 10.6419 7.73274V7.5842C10.6419 7.52304 10.5596 7.52304 10.5596 7.5842C10.496 7.65513 10.4258 7.7139 10.3508 7.75895C10.2685 7.87254 10.0976 8.16089 9.9774 8.33564C9.94139 8.38855 9.91788 8.45531 9.90996 8.52709C9.90205 8.59886 9.91014 8.67228 9.93312 8.73758L10.0976 9.20068C10.0976 9.31427 10.1419 9.42785 10.1419 9.55018C10.1419 9.6725 10.2242 9.61134 10.2685 9.55018L10.8064 8.30943Z" fill="#1B2747"/>
<path fill-rule="evenodd" clip-rule="evenodd" d="M11.0589 8.71137L10.4266 9.97834V10.0395C10.4266 10.2142 10.553 10.6162 10.553 10.7298C10.5533 10.9542 10.5969 11.1744 10.6795 11.3676C10.806 11.5948 11.2612 12.0579 11.3498 12.2414L11.8114 12.6433C11.8556 12.6433 12.02 12.5821 11.8556 12.1802C11.6912 11.7783 11.5647 11.7171 11.4825 11.3065C11.4579 10.7215 11.4855 10.1345 11.5647 9.55892C11.5474 9.38416 11.4897 9.22179 11.4003 9.09582C11.3181 8.92107 11.1917 8.80749 11.1474 8.6939C11.1031 8.58031 11.0652 8.63274 11.0652 8.6939L11.0589 8.71137Z" fill="#00A3D3"/>
<path d="M9.93386 9.46287C9.97815 9.17452 9.725 8.82503 9.6807 8.88619C9.63641 8.94735 9.18078 9.81238 9.18078 9.81238C9.18078 9.81238 9.13648 9.92596 9.18078 9.92596L9.51618 10.3279C9.51618 10.3891 9.56048 10.3891 9.59845 10.3279C9.63642 10.2667 9.93386 9.81238 9.93386 9.45413V9.46287Z" fill="#1B2747"/>
<path d="M11.1853 7.84641C11.1853 7.90757 11.1031 7.90757 11.1031 7.84641C11.0416 7.71785 10.9867 7.58354 10.9387 7.44447C10.9177 7.39081 10.9066 7.33075 10.9066 7.26972C10.9066 7.20869 10.9177 7.14863 10.9387 7.09497C11.0899 6.75654 11.2029 6.38824 11.2738 6.00276C11.4003 5.36491 12.4436 2.01839 12.5385 1.63393C12.5566 1.59016 12.5819 1.55287 12.6124 1.52505C12.6429 1.49722 12.6776 1.47963 12.7139 1.47369C12.7501 1.46774 12.7869 1.4736 12.8212 1.49081C12.8555 1.50801 12.8865 1.53608 12.9116 1.57276C12.9755 1.67425 13.0173 1.79885 13.0318 1.93194C13.0464 2.06504 13.0332 2.20111 12.9938 2.3242L11.1853 7.84641Z" fill="#1B2747"/>
<path d="M11.2674 8.13473L12.1843 5.59207C12.224 5.46326 12.2796 5.34499 12.3487 5.24256C12.8482 4.72704 13.4742 4.49112 13.9358 3.91444C13.9801 3.85327 14.0623 3.97559 14.018 4.02802L11.6784 8.87742C11.5962 9.1046 11.3875 8.76384 11.3053 8.65025C11.2581 8.58288 11.2282 8.49594 11.2202 8.40281C11.2122 8.30967 11.2266 8.21549 11.2611 8.13473H11.2674Z" fill="#1B2747"/>
<path d="M13.7714 9.81243C13.8156 9.75126 13.8536 9.81242 13.8536 9.87358C13.8536 9.93475 13.8093 9.98718 13.7714 10.0483C13.4867 10.1497 13.2185 10.3246 12.981 10.5639C12.903 10.6948 12.8586 10.8576 12.8545 11.027C12.8545 11.1406 12.728 11.3153 12.4372 11.0881C12.1053 10.7222 11.8698 10.2156 11.7669 9.64641C11.7669 9.53282 11.8112 9.41923 11.8934 9.47166C11.9756 9.52408 11.9756 9.53281 12.0578 9.58524C12.2222 9.81242 12.5194 10.2231 12.766 10.2231C13.0223 10.1876 13.2748 10.1113 13.5185 9.99591C13.5982 9.92578 13.6829 9.86722 13.7714 9.82116V9.81243Z" fill="#1B2747"/>
<path fill-rule="evenodd" clip-rule="evenodd" d="M13.7714 11.7172C14.1065 12.0667 14.1445 11.892 14.3152 11.7784C14.4955 11.5312 14.6855 11.2979 14.8843 11.0794C15.3458 10.7307 15.8363 10.4608 16.345 10.2755C16.7052 10.1382 17.0354 9.88008 17.3061 9.52409H17.3504C17.3947 9.41051 17.3504 9.29692 17.2682 9.34934C16.307 9.63769 14.5934 9.52409 14.2583 9.86486C13.9703 10.1066 13.6625 10.3002 13.3414 10.4416C13.1328 10.5551 12.9241 11.2454 13.2149 11.2454C13.5058 11.2454 13.5058 11.4202 13.7967 11.7085L13.7714 11.7172Z" fill="#754090"/>
<path d="M17.4453 8.8861C17.4896 8.8861 17.5275 8.82493 17.5718 8.77251C17.5806 8.61557 17.5655 8.45781 17.5275 8.30941C17.5275 8.13466 17.401 7.9599 17.2746 7.73272C17.1885 7.59673 17.0714 7.50533 16.9427 7.47357C16.8139 7.4418 16.6812 7.47157 16.5664 7.55797C16.5664 7.55797 15.0235 8.8861 14.5176 9.30551C14.5176 9.30551 14.5176 9.4191 14.5619 9.4191C15.5334 9.34462 16.4983 9.15163 17.4453 8.84241V8.8861Z" fill="#1B2747"/>
<path d="M13.5255 12.1716C13.6078 12.1716 13.6078 11.9969 13.5698 11.9445C13.5319 11.892 13.361 11.7173 13.3167 11.7697L12.7725 12.1716C12.6902 12.2328 12.6902 12.2852 12.7281 12.3988C12.7724 12.46 12.8104 12.5124 12.8547 12.46L13.5255 12.1716Z" fill="#1B2747"/>
<path fill-rule="evenodd" clip-rule="evenodd" d="M4.66593 12.3463C4.62166 12.2327 4.71019 12.1716 4.74813 12.2328C4.91254 12.3463 5.03901 12.6959 5.20974 12.7483C5.31886 12.7409 5.42227 12.6787 5.50061 12.5735C5.56968 12.4711 5.62532 12.3528 5.66502 12.224C5.70928 12.1628 5.70927 12.1104 5.74721 12.0493C5.78515 11.9881 5.82941 12.0493 5.82941 12.1104C5.78515 12.5124 5.82941 12.9842 5.78514 13.3774C5.72543 14.0428 5.50221 14.6597 5.15281 15.1249C5.02635 15.2385 4.89988 15.3521 4.81768 15.1861C4.73548 15.0201 4.77343 14.8977 4.77343 14.723C4.83583 14.4202 4.87815 14.1102 4.89989 13.7968C4.86503 13.3022 4.77989 12.8168 4.64696 12.3551L4.66593 12.3463Z" fill="#754090"/>
<path d="M5.54511 9.86473H5.50081C5.46993 9.85547 5.43794 9.856 5.40724 9.86628C5.37653 9.87656 5.34792 9.89631 5.32355 9.92407C5.29918 9.95183 5.27969 9.98687 5.26654 10.0265C5.2534 10.0662 5.24695 10.1095 5.24767 10.1531C5.28661 10.6257 5.43281 11.0691 5.66535 11.42C5.66422 11.4284 5.66457 11.437 5.66639 11.4452C5.66822 11.4533 5.67146 11.4607 5.67582 11.4667C5.68018 11.4728 5.68555 11.4772 5.69144 11.4797C5.69734 11.4823 5.70357 11.4828 5.70964 11.4812V11.42C5.83132 11.1705 5.92918 10.9003 6.00076 10.6162C6.04505 10.2142 5.70964 9.97832 5.53878 9.86473H5.54511Z" fill="#1B2747"/>
<path fill-rule="evenodd" clip-rule="evenodd" d="M2.83228 6.0551C2.78802 5.88034 2.91449 5.76676 2.99669 5.88035C3.27141 6.23369 3.5232 6.61962 3.74917 7.03371C3.95783 7.43564 4.21076 7.95991 4.41943 8.30068C4.6281 8.64145 5.05176 9.10454 5.05176 9.56764C5.05176 9.74239 4.67868 10.8958 4.50795 10.9569C4.33722 11.0181 4.29928 10.8958 4.25502 10.7297C3.88613 9.11423 3.40985 7.54934 2.83228 6.0551Z" fill="#754090"/>
<path d="M2.33262 5.65319C3.02618 7.01232 3.5617 8.51294 3.91978 10.1007C3.96404 10.2754 3.8755 10.389 3.7933 10.2754C3.13453 9.54847 2.437 8.89128 1.70662 8.30945C1.70662 8.24828 1.66235 8.19586 1.66235 8.1347C1.75487 7.60873 1.86672 7.08962 1.99749 6.5794C2.09146 6.30497 2.14724 6.00856 2.1619 5.70563C2.1619 5.59204 2.24411 5.53087 2.32631 5.59204V5.65319H2.33262Z" fill="#1B2747"/>
<path d="M6.46221 10.7911V10.9047C6.43583 11.2815 6.33515 11.6411 6.17111 11.9445L6.1268 12.0056L6.0825 11.9445L5.95594 11.7697C5.94988 11.7713 5.94362 11.7708 5.93773 11.7683C5.93184 11.7657 5.92647 11.7613 5.92211 11.7553C5.91774 11.7492 5.91453 11.7418 5.9127 11.7337C5.91088 11.7255 5.91051 11.7169 5.91164 11.7085V11.595C6.0159 11.3032 6.08638 10.9907 6.12049 10.6688C6.16479 10.5552 6.24704 10.494 6.28501 10.5552L6.44956 10.7824L6.46221 10.7911Z" fill="#1B2747"/>
<path d="M5.50692 11.6559C5.52348 11.6784 5.53608 11.7059 5.54376 11.7362C5.55143 11.7665 5.55396 11.7988 5.55117 11.8307C5.55671 11.838 5.56114 11.8468 5.56415 11.8566C5.56717 11.8663 5.56873 11.8768 5.56873 11.8875C5.56873 11.8981 5.56717 11.9086 5.56415 11.9183C5.56114 11.9281 5.55671 11.9369 5.55117 11.9443C5.49152 12.0418 5.41129 12.1111 5.3217 12.1424C5.23212 12.1738 5.13769 12.1656 5.05164 12.119C4.88723 12.0578 4.76077 11.8307 4.6343 11.6559C4.59004 11.6559 4.59003 11.5947 4.55209 11.5423C4.5317 11.4995 4.52081 11.4494 4.52081 11.3982C4.52081 11.3469 4.5317 11.2968 4.55209 11.254C4.59636 11.1928 4.63428 11.1404 4.67855 11.1404C4.77232 10.9778 4.8569 10.8054 4.9315 10.6249C4.97576 10.5113 5.14016 10.5637 5.18442 10.7385C5.25272 11.0737 5.36644 11.388 5.51956 11.6646L5.50692 11.6559Z" fill="#1B2747"/>
<path fill-rule="evenodd" clip-rule="evenodd" d="M9.72465 15.1772C9.80385 14.92 9.8591 14.6499 9.88906 14.3734C9.88217 14.0069 9.85469 13.6418 9.80686 13.2812C9.765 12.937 9.765 12.5856 9.80686 12.2414C9.82016 12.0422 9.79162 11.842 9.72465 11.6647C9.67796 11.5932 9.62225 11.534 9.56024 11.49C8.55483 10.7997 8.39044 9.93465 8.39044 10.2754C8.30824 10.9657 8.64338 11.0793 8.80778 11.3152C8.95198 11.5217 9.10619 11.7144 9.26937 11.8919C9.31364 11.953 9.39584 12.0055 9.43378 12.1191C9.47277 12.2049 9.48846 12.3071 9.47805 12.4074C9.52066 12.5562 9.52066 12.7218 9.47805 12.8705C9.43379 12.9317 9.43379 12.9841 9.39585 12.9841C9.35791 12.9841 9.31364 12.9841 9.31364 12.9229C9.02277 12.5734 8.31456 11.1754 8.2703 11.5336C8.22604 11.8919 7.63797 11.822 7.63797 11.822C7.63797 11.822 8.13751 12.4598 8.30824 12.7482C8.53495 13.1118 8.69346 13.5469 8.76983 14.0151C8.83879 14.4717 8.86641 14.9384 8.85203 15.4044C8.81011 15.5923 8.81011 15.7932 8.85203 15.9811C8.85203 16.0423 8.80777 16.6714 9.10496 16.619C9.40216 16.5665 9.6867 15.352 9.73729 15.1772H9.72465Z" fill="#E31145"/>
<path d="M7.88434 9.86486C7.54921 9.57652 7.71993 10.9571 7.84008 11.4813C7.86187 11.5136 7.89076 11.5351 7.92228 11.5425H7.96655C8.08277 11.3259 8.1409 11.0603 8.13096 10.791C8.13096 10.791 8.21317 10.1008 7.87803 9.86486H7.88434Z" fill="#1B2747"/>
<path d="M10.3885 12.1715L10.4707 12.2851V12.4598L10.3885 12.9754C10.3849 12.9928 10.3783 13.0087 10.3692 13.0219C10.3602 13.0351 10.3491 13.045 10.3367 13.051C10.3243 13.057 10.3111 13.0588 10.2981 13.0563C10.2851 13.0538 10.2727 13.047 10.262 13.0365C10.2443 13.0248 10.2244 13.021 10.2051 13.0256C10.1858 13.0302 10.168 13.0429 10.1541 13.0621C10.1402 13.0813 10.131 13.1059 10.1277 13.1326C10.1244 13.1593 10.1271 13.1868 10.1356 13.2113C10.1391 13.3525 10.1673 13.4904 10.2178 13.6132C10.3016 14.1075 10.3016 14.6218 10.2178 15.1161C10.1414 15.5843 9.9829 16.0194 9.75619 16.3831C9.6291 16.5962 9.47207 16.7716 9.29458 16.8986C9.21238 16.8986 9.13018 16.8986 9.33885 16.6102C9.61406 16.2452 9.8409 15.8164 10.0091 15.3433C10.1139 15.0246 10.1644 14.6769 10.1567 14.3269C10.1491 13.977 10.0834 13.6342 9.96485 13.3249C9.92202 13.019 9.92202 12.7046 9.96485 12.3987C10.0002 12.2494 10.0153 12.0924 10.0091 11.9356C10.0091 11.822 10.0913 11.822 10.1356 11.8744L10.3885 12.1715Z" fill="#1B2747"/>
<path fill-rule="evenodd" clip-rule="evenodd" d="M3.54025 13.0364C3.14777 12.7786 2.78199 12.4495 2.45264 12.0578C2.42079 11.9721 2.37795 11.8951 2.32618 11.8306C2.29123 11.7024 2.27615 11.5654 2.28192 11.4286C2.27284 11.3478 2.27543 11.2652 2.28954 11.1858C2.30365 11.1063 2.32899 11.0314 2.36412 10.9656L2.61705 10.7908C2.73817 10.7425 2.86418 10.7218 2.99012 10.7296C3.04117 10.7421 3.08987 10.7686 3.13333 10.8076C3.17679 10.8467 3.2141 10.8974 3.24305 10.9568C3.28731 11.0704 3.28732 11.184 3.32526 11.2452C3.3696 11.4343 3.4405 11.6095 3.53392 11.7607C3.66058 12.0046 3.80007 12.2353 3.95126 12.451C4.03346 12.5646 4.15994 12.6781 4.24214 12.8005C4.32435 12.9228 4.3686 12.9141 4.3686 12.9752C4.3686 13.0364 4.41286 13.5519 3.53392 13.0364H3.54025Z" fill="#00A3D3"/>
<path d="M2.28881 10.8434L2.20655 10.957H2.12428C2.07247 10.8925 2.02958 10.8155 1.9977 10.7298C1.92387 10.488 1.86872 10.2361 1.83316 9.97835C1.83316 9.86476 1.83316 9.75117 1.91543 9.69001C1.9977 9.62885 2.07999 9.57642 2.16858 9.57642C2.25718 9.57642 2.29514 9.69 2.33311 9.75117C2.46804 9.92593 2.56826 10.1455 2.62421 10.389C2.75078 10.5638 2.41537 10.6162 2.28881 10.8521V10.8434Z" fill="#1B2747"/>
<path d="M1.78923 10.9047C1.8715 11.0183 1.91579 11.1319 1.99806 11.2542C2.08033 11.3766 2.04236 11.3678 2.04236 11.429C2.04236 11.4902 1.99806 11.6038 1.96009 11.6038H1.87782C1.81806 11.5787 1.7637 11.5337 1.71955 11.4728C1.6754 11.4118 1.64281 11.3367 1.62469 11.2542C1.50595 11.0095 1.42019 10.7372 1.37155 10.4504C1.31636 10.2898 1.30079 10.1088 1.32725 9.93486C1.32725 9.87369 1.37156 9.70767 1.45383 9.82126C1.53609 9.93485 1.61836 10.6251 1.78923 10.9135V10.9047Z" fill="#1B2747"/>
<path d="M3.79334 13.3861C3.56513 13.3424 3.34808 13.2225 3.16101 13.0366C2.79892 12.7707 2.47357 12.4188 2.19988 11.9969L2.07341 11.8221C2.05034 11.826 2.02696 11.8225 2.00504 11.8119C1.98311 11.8013 1.96324 11.7838 1.94695 11.7609C1.84023 11.7353 1.73937 11.6753 1.65257 11.5857C1.56578 11.4961 1.4955 11.3795 1.44741 11.2454C1.38842 10.9636 1.30342 10.6934 1.19448 10.4416C1.19448 10.3804 1.15021 10.328 1.11227 10.3804L1.068 10.4416C1.02901 10.5378 1.00494 10.6442 0.997318 10.754C0.989698 10.8639 0.99869 10.9747 1.02374 11.0794C1.07118 11.2503 1.16076 11.3927 1.27668 11.4813C1.44965 11.6422 1.60508 11.8364 1.73827 12.058C1.93911 12.4854 2.20987 12.8416 2.52868 13.0978C3.0952 13.5806 3.77374 13.7462 4.42567 13.5609C4.43325 13.5461 4.43817 13.529 4.43999 13.5111C4.44182 13.4931 4.44051 13.4748 4.43617 13.4577C4.43184 13.4406 4.42461 13.4252 4.41508 13.4128C4.40555 13.4003 4.39403 13.3912 4.38143 13.3861C4.1728 13.445 3.95772 13.445 3.7491 13.3861H3.79334Z" fill="#1B2747"/>
<path d="M8.42836 1.669C8.3841 1.55541 8.34615 1.55542 8.30189 1.55542C8.18371 1.60213 8.08091 1.70402 8.01102 1.84375C7.9691 2.03162 7.9691 2.23257 8.01102 2.42044C8.17624 3.79609 8.47175 5.13572 8.88995 6.40481C8.98514 6.19058 9.04224 5.94823 9.05652 5.69762C9.07081 5.44701 9.0419 5.19528 8.97216 4.9631C8.82942 4.49199 8.70489 4.01075 8.59909 3.52139C8.54273 3.18058 8.52777 2.8292 8.55482 2.48161C8.57571 2.29046 8.57571 2.09607 8.55482 1.90492C8.52297 1.81923 8.48013 1.74226 8.42836 1.67775V1.669Z" fill="#1B2747"/>
<path d="M8.84561 6.92017C8.78051 7.05339 8.69426 7.16434 8.59346 7.24459C8.49265 7.32483 8.37993 7.37226 8.26386 7.38326C8.04247 7.43444 7.81793 7.45492 7.59359 7.44442C7.59473 7.45279 7.59436 7.46143 7.59253 7.46956C7.59071 7.4777 7.58749 7.4851 7.58313 7.49112C7.57878 7.49714 7.57341 7.50161 7.56752 7.50413C7.56163 7.50665 7.55539 7.50715 7.54933 7.50559C7.50506 7.56675 7.50506 7.61917 7.54933 7.73276C7.599 7.86198 7.6413 7.99637 7.6758 8.1347C7.67467 8.14307 7.67502 8.15169 7.67684 8.15983C7.67867 8.16797 7.6819 8.17537 7.68626 8.18139C7.69062 8.18741 7.69598 8.19188 7.70187 8.1944C7.70776 8.19692 7.71401 8.19742 7.72007 8.19586H7.80225C7.99396 8.13867 8.1923 8.13867 8.38401 8.19586C8.59267 8.19586 8.75707 8.30945 8.9278 8.19586L9.01001 8.08228V7.33084C9.01987 7.23054 9.00424 7.12862 8.96576 7.04249C8.95421 7.00939 8.9363 6.9813 8.914 6.96127C8.89171 6.94124 8.86586 6.93005 8.83928 6.9289L8.84561 6.92017Z" fill="#1B2747"/>
<path fill-rule="evenodd" clip-rule="evenodd" d="M8.13761 8.45795C8.0554 8.45795 7.97321 8.45796 7.92895 8.57155C7.88468 8.68514 7.92895 8.7463 7.97322 8.85989C8.13852 9.22237 8.35329 9.53695 8.60555 9.78608C8.68775 9.84725 8.81421 9.89967 8.89641 9.78608C8.97861 9.67249 8.97862 9.49773 8.94068 9.38414C8.9385 9.22326 8.91042 9.06506 8.85847 8.92105C8.85315 8.87749 8.83759 8.83757 8.81421 8.80746C8.81952 8.7639 8.83509 8.72399 8.85847 8.69388V8.63271C8.85645 8.58162 8.84328 8.53258 8.82071 8.49203C8.79814 8.45148 8.76721 8.42133 8.732 8.40553C8.53707 8.39743 8.34207 8.41793 8.15027 8.46669L8.13761 8.45795Z" fill="#E10585"/>
<path fill-rule="evenodd" clip-rule="evenodd" d="M7.29644 7.04258C7.30009 7.05999 7.30669 7.07593 7.3157 7.0891C7.32472 7.10226 7.33588 7.11226 7.34826 7.11824C7.36064 7.12423 7.37387 7.12603 7.38685 7.12351C7.39984 7.12099 7.41221 7.11421 7.42292 7.10374C7.53146 7.05816 7.64467 7.0375 7.75805 7.04258C7.94331 7.06636 8.12996 7.02736 8.30185 6.92899C8.3375 6.92063 8.37112 6.90033 8.39978 6.86987C8.42844 6.8394 8.45127 6.79971 8.46626 6.75423C8.46626 6.69307 8.42199 6.64065 8.42199 6.57948C8.20126 5.94415 8.06014 5.26165 8.00465 4.56107C8.00465 4.44748 7.9604 4.3339 7.8782 4.3339C7.87214 4.33234 7.86589 4.33283 7.86 4.33535C7.85411 4.33787 7.84875 4.34234 7.84439 4.34837C7.84003 4.35439 7.83679 4.36179 7.83497 4.36992C7.83315 4.37806 7.8328 4.3867 7.83393 4.39507C7.72298 4.57689 7.65073 4.7977 7.62525 5.03292C7.54305 5.43485 7.49879 5.78435 7.41659 6.18628C7.37233 6.41346 7.33438 6.58822 7.29012 6.82414V7.05131L7.29644 7.04258Z" fill="#E10585"/>
<path d="M7.29708 4.43872C7.25278 4.55231 7.13254 4.66591 7.04395 4.78824C6.94289 4.95676 6.8306 5.1118 6.70854 5.25133C6.66424 5.3125 6.62627 5.3125 6.58197 5.36493C6.4997 5.36493 6.4554 5.25133 6.49969 5.19016C6.54399 5.129 6.58197 5.01541 6.62627 4.96299C6.67057 4.91056 6.96168 4.3863 7.12622 4.08922C7.20849 3.97563 7.29075 4.02807 7.33505 4.15039C7.34547 4.25072 7.32976 4.35288 7.29074 4.43872H7.29708Z" fill="#1B2747"/>
<path d="M10.2623 3.92329C10.0979 4.38638 10.0536 4.9019 9.88919 5.31257C9.78059 5.61614 9.65589 5.90819 9.51612 6.18634C9.51612 6.2475 9.47185 6.3611 9.51612 6.41352C9.5324 6.43641 9.55228 6.45382 9.5742 6.46443C9.59613 6.47503 9.61951 6.47854 9.64257 6.47468C9.68683 6.47468 9.72478 6.41353 9.76905 6.3611L10.022 6.01159C10.2847 5.52748 10.5094 5.00611 10.6922 4.45628C10.8002 4.10832 10.8705 3.74031 10.9009 3.36408C10.9009 3.25049 10.8187 3.18932 10.7744 3.25048C10.5781 3.43532 10.4087 3.66948 10.2749 3.94077L10.2623 3.92329Z" fill="#1B2747"/>
<path d="M9.93376 4.32526C9.8861 4.81332 9.77232 5.28462 9.59835 5.71455C9.55406 5.77571 9.55405 5.82813 9.47178 5.8893C9.42748 5.8893 9.42747 5.77571 9.42747 5.71455C9.5172 5.25765 9.58695 4.79372 9.63632 4.32526C9.68062 4.21167 9.71858 4.21167 9.80085 4.21167C9.88312 4.21167 9.88313 4.27284 9.92742 4.32526H9.93376Z" fill="#1B2747"/>
<path d="M11.0146 4.08928C10.7447 5.05505 10.3481 5.9437 9.84483 6.71058C9.84483 6.77174 9.92704 6.77175 9.97131 6.77175C10.0156 6.77175 10.0535 6.71058 10.0978 6.65816C10.3786 6.28751 10.6174 5.86038 10.806 5.3912C10.867 5.19333 10.9367 5.00074 11.0146 4.81451C11.1723 4.2024 11.2577 3.55925 11.2676 2.90969C11.2676 2.7961 11.1854 2.79611 11.1854 2.84854C11.1411 3.07572 11.0589 3.88832 11.021 4.06307L11.0146 4.08928Z" fill="#F27E04"/>
<path d="M7.92878 16.3833C7.93347 16.3027 7.91782 16.2225 7.88451 16.1561C7.64244 15.8142 7.49476 15.3659 7.46717 14.8891C7.46996 14.8573 7.46743 14.8249 7.45976 14.7946C7.45209 14.7643 7.43949 14.7369 7.42292 14.7144C7.33931 14.5667 7.22061 14.4645 7.08779 14.426C7.04352 14.426 7.04352 14.426 7.00558 14.4872C6.96764 14.5483 6.96132 14.5483 6.92338 14.6008C6.8134 15.0058 6.75768 15.4351 6.75896 15.8677C6.80323 16.3308 6.92338 17.3095 7.34072 17.4842C7.46718 17.5454 7.75804 16.7328 7.92245 16.392L7.92878 16.3833Z" fill="#1B2747"/>
<path d="M7.75811 15.5181C7.63024 15.2432 7.57238 14.9173 7.5937 14.5919C7.5937 14.5307 7.63797 14.5919 7.63797 14.5919C7.67961 14.701 7.73531 14.7987 7.80236 14.8802C7.92883 15.055 8.17544 15.1074 8.34617 15.2821C8.44057 15.4033 8.52536 15.5381 8.5991 15.6841V15.7452C8.60023 15.7536 8.59988 15.7623 8.59806 15.7704C8.59624 15.7785 8.593 15.7859 8.58864 15.7919C8.58428 15.798 8.57892 15.8024 8.57303 15.805C8.56714 15.8075 8.56089 15.808 8.55483 15.8064C8.51057 15.92 8.47264 15.92 8.39044 16.0336C8.36705 16.0637 8.35149 16.1036 8.34617 16.1472C8.32327 16.1743 8.29411 16.1891 8.26397 16.1891C8.23382 16.1891 8.20467 16.1743 8.18176 16.1472C8.01896 15.9666 7.87807 15.7513 7.76442 15.5093L7.75811 15.5181Z" fill="#1B2747"/>
<path d="M7.42298 12.923C7.48544 12.701 7.48544 12.4548 7.42298 12.2328C7.37872 12.1716 7.34077 12.1192 7.29651 12.1192C7.25224 12.1192 7.17003 12.0056 7.13209 12.058C7.09415 12.1104 7.0499 12.1192 7.00564 12.1716C6.69248 12.5868 6.48786 13.1338 6.42389 13.7269C6.34168 14.3036 6.21523 15.8589 6.21523 15.9201C6.22138 16.0398 6.20618 16.1598 6.17096 16.2696C6.17096 16.3832 6.17096 16.5579 6.21523 16.6191C6.25949 16.6802 6.34168 16.7938 6.37962 16.8463C6.41756 16.8987 6.54404 16.9074 6.63257 16.9598C6.72109 17.0123 6.71475 16.8987 6.71475 16.7851C6.67627 16.699 6.66064 16.597 6.67051 16.4967C6.62624 16.3832 6.29742 15.6929 6.8349 14.19C6.87916 14.0764 7.04358 14.19 7.12578 14.2512C7.20799 14.3123 7.37871 14.4783 7.41665 14.3648C7.45459 14.2512 7.37239 13.3861 7.41665 12.923H7.42298Z" fill="#F27E04"/>
<path d="M6.96782 11.8308H6.88561C6.68007 11.9764 6.5073 12.197 6.38606 12.4687C6.23312 12.7647 6.11963 13.0961 6.05093 13.4473C6.00313 13.6927 5.97555 13.9448 5.96872 14.1987C5.98985 14.4892 5.98985 14.782 5.96872 15.0725C5.96803 15.1164 5.9603 15.1595 5.94609 15.1988C5.93187 15.2381 5.91152 15.2725 5.88652 15.2997H5.84227V15.3608C5.79092 15.5662 5.76318 15.7814 5.76006 15.9987C5.72485 16.1084 5.70964 16.2284 5.7158 16.3482C5.77762 16.5232 5.88 16.6647 6.00666 16.7501H6.03196C6.07622 16.689 6.07623 16.6889 6.07623 16.6365C6.07085 16.1348 6.08563 15.6331 6.1205 15.1336C6.11079 14.4912 6.16611 13.8501 6.28489 13.2288C6.40918 12.7358 6.64397 12.3104 6.95516 12.0143C6.97986 11.9856 6.99569 11.945 6.99942 11.9007L6.96782 11.8308Z" fill="#1B2747"/>
<path fill-rule="evenodd" clip-rule="evenodd" d="M14.2521 5.9416C14.3343 6.11636 14.2963 6.34354 14.3343 6.51829C14.3396 6.56185 14.3552 6.60177 14.3785 6.63189C14.3855 6.6463 14.3949 6.65813 14.4059 6.66631C14.4169 6.67449 14.4292 6.67878 14.4418 6.67878C14.4543 6.67878 14.4666 6.67449 14.4777 6.66631C14.4887 6.65813 14.4981 6.6463 14.505 6.63189C14.5493 6.63189 14.6315 6.57072 14.6694 6.57072C14.7073 6.57072 14.8338 6.68431 14.7959 6.7979C14.4333 7.53642 13.9269 8.11805 13.3352 8.47553C13.2104 8.58586 13.066 8.64634 12.9179 8.65028C12.8357 8.71145 12.7914 8.71145 12.7534 8.65028C12.7115 8.61558 12.6801 8.56106 12.665 8.49681C12.6498 8.43256 12.6521 8.36293 12.6712 8.30078C13.1544 7.57705 13.536 6.73561 13.7968 5.81928L13.8411 5.75812C13.8411 5.64453 13.9675 5.58336 14.0497 5.64453C14.1385 5.70985 14.2111 5.81023 14.2584 5.93287L14.2521 5.9416Z" fill="#E31145"/>
<path d="M14.2521 5.47848C14.6252 5.19013 14.6695 4.49987 15.0046 4.15036C15.0401 4.11284 15.0816 4.08769 15.1256 4.07705C15.1697 4.0664 15.2149 4.07056 15.2575 4.08919C15.2825 4.11631 15.3029 4.15074 15.3171 4.19003C15.3313 4.22931 15.339 4.27246 15.3397 4.31637C15.3545 4.38368 15.3582 4.45472 15.3505 4.52426C15.3429 4.5938 15.3241 4.6601 15.2955 4.7183C15.2225 5.06156 15.0951 5.37799 14.9224 5.64449C14.8402 5.87167 14.6695 6.04642 14.6695 6.28234V6.39593C14.6252 6.38494 14.5825 6.3643 14.543 6.33477C14.4608 6.1076 14.4608 5.93284 14.3343 5.75809C14.3343 5.69692 14.2901 5.6445 14.2521 5.58334V5.46974V5.47848Z" fill="#1B2747"/>
<path d="M16.1496 4.72703C16.1881 4.81644 16.2159 4.91379 16.2319 5.01538C16.1992 5.11885 16.1566 5.21582 16.1053 5.30372C16.0274 5.4987 15.9111 5.65926 15.7699 5.76682L15.7256 5.82799C15.6813 5.82799 15.6813 5.76682 15.6434 5.76682C15.5206 5.55107 15.4478 5.28917 15.4345 5.01538C15.4443 4.75016 15.5008 4.49223 15.5991 4.26394C15.6434 4.20277 15.6434 4.15036 15.6813 4.15036C15.7043 4.12328 15.7334 4.1084 15.7636 4.1084C15.7938 4.1084 15.8229 4.12328 15.8459 4.15036C15.9548 4.33056 16.0523 4.52351 16.137 4.72703H16.1496Z" fill="#1B2747"/>
<path d="M16.364 5.47841C16.3766 5.46267 16.3918 5.45155 16.4083 5.44605C16.4247 5.44055 16.4419 5.44085 16.4583 5.44694C16.4747 5.45303 16.4897 5.4647 16.5019 5.48089C16.5142 5.49707 16.5233 5.51726 16.5284 5.53958C16.5715 5.60238 16.6001 5.68145 16.6106 5.76675C16.5664 5.82791 16.5284 5.9415 16.4842 5.99393C16.2312 6.34343 15.8518 6.57062 15.6052 6.92013C15.454 7.13575 15.3146 7.36646 15.1879 7.6104C14.897 7.9599 14.6061 8.30067 14.3089 8.58901C14.0672 8.80313 13.8159 8.99575 13.5565 9.1657C13.3505 9.25384 13.1301 9.25384 12.9241 9.1657C12.9028 9.16366 12.8828 9.15104 12.8677 9.13017C12.8525 9.10929 12.8434 9.08156 12.8419 9.05211C12.8419 8.99094 12.8862 8.99095 12.9241 8.99095C13.5178 8.84352 14.0685 8.46454 14.5113 7.89874C14.9131 7.33109 15.3351 6.79158 15.776 6.28227C15.9774 6.04184 16.1597 5.77236 16.3197 5.47841H16.364Z" fill="#1B2747"/>
<path d="M15.2764 5.42615C15.15 5.42615 14.9413 6.11643 15.0235 6.46593C15.0235 6.5271 15.0235 6.57953 15.0678 6.57953H15.112C15.1809 6.53404 15.2423 6.46945 15.2923 6.38978C15.3423 6.31011 15.38 6.21707 15.4029 6.11643C15.4472 5.94168 15.4471 5.36499 15.2764 5.42615Z" fill="#1B2747"/>
<path d="M12.2289 14.1988C12.2732 14.0852 12.3554 14.0852 12.3554 14.1376C12.5309 14.4866 12.6575 14.8777 12.7288 15.291C12.75 15.3333 12.7614 15.3836 12.7614 15.4351C12.7614 15.4867 12.75 15.5369 12.7288 15.5793C12.7288 15.6405 12.6845 15.6405 12.6465 15.6929C12.4623 15.8956 12.2451 16.0336 12.0137 16.0948C11.9694 16.0948 11.9694 16.0948 11.9694 16.0337C11.8875 15.7234 11.8678 15.3883 11.9124 15.0638C11.9569 14.7393 12.0641 14.4374 12.2225 14.19L12.2289 14.1988Z" fill="#1B2747"/>
<path fill-rule="evenodd" clip-rule="evenodd" d="M12.2286 13.2725L12.2729 13.622C12.2757 13.6539 12.2731 13.6862 12.2655 13.7165C12.2578 13.7468 12.2452 13.7743 12.2286 13.7968C12.066 13.971 11.9484 14.2131 11.8935 14.487C11.8024 14.8577 11.7743 15.2523 11.8113 15.6404V15.9288C11.7794 16.0145 11.7366 16.0914 11.6848 16.1559C11.5204 16.3307 10.9323 16.3831 10.7679 15.8676C10.7237 15.8064 10.7237 15.754 10.7237 15.6404C10.7237 15.5268 10.8881 14.9502 10.9323 14.6618C10.9766 14.3735 10.9766 14.0851 10.9766 13.9104C10.9781 13.8809 10.9872 13.8532 11.0023 13.8323C11.0174 13.8114 11.0375 13.7988 11.0588 13.7968L12.0642 13.1589C12.1464 13.0978 12.2286 13.1589 12.2286 13.2725Z" fill="#E10585"/>
<path fill-rule="evenodd" clip-rule="evenodd" d="M3.16742 14.4259C3.08522 14.7142 2.95876 14.9414 2.87655 15.2297C2.83269 15.3575 2.81368 15.4988 2.82144 15.6398C2.8292 15.7808 2.86345 15.9165 2.9208 16.0336C3.00301 16.2083 3.12949 16.2608 3.21169 16.3831C3.38275 16.5512 3.52518 16.7689 3.62903 17.0209C3.74327 17.3662 3.88311 17.6942 4.04635 17.9996C4.29203 18.2822 4.60608 18.4258 4.9253 18.4015C5.26569 18.363 5.60129 18.2662 5.92437 18.1132C5.96863 18.052 6.05084 17.9384 6.00658 17.8248C5.8321 17.5657 5.61529 17.3679 5.37425 17.2481C5.37425 17.187 5.32998 17.187 5.29204 17.187C5.2541 17.187 5.16558 17.187 5.08338 17.187C4.92138 17.2185 4.75641 17.2038 4.59869 17.1437C4.44098 17.0836 4.29387 16.9793 4.16649 16.8374C3.91607 16.5589 3.71676 16.2027 3.58476 15.7977C3.463 15.3661 3.36575 14.922 3.29389 14.4696L3.21169 14.356L3.16742 14.4171V14.4259Z" fill="#E10585"/>
<path d="M3.667 14.3647C3.5848 14.4259 3.58479 14.4783 3.58479 14.5395C3.58706 15.0833 3.71809 15.6111 3.95787 16.0424C4.06575 16.3239 4.22485 16.5618 4.41947 16.7327C4.60113 16.9234 4.82367 17.0249 5.0518 17.021C5.09607 17.021 5.13399 16.9598 5.17826 16.9074C5.17294 16.8638 5.15738 16.8239 5.13399 16.7938C4.88106 16.4443 4.63447 16.156 4.38153 15.8152C4.15321 15.4772 3.96919 15.087 3.83772 14.6618C3.79346 14.5482 3.71125 14.3123 3.67331 14.3735L3.667 14.3647Z" fill="#1B2747"/>
<path d="M16.8193 12.0582C16.8193 11.9446 16.7371 11.8834 16.6549 11.9446C16.4261 12.147 16.1702 12.2837 15.9024 12.3465C15.7725 12.3303 15.6422 12.37 15.5293 12.4601C15.4029 12.5213 15.3649 12.6873 15.2764 12.8096C15.0596 13.1493 14.8649 13.5147 14.6947 13.9018C14.6504 13.963 14.6504 14.0766 14.7769 14.0766C15.0378 14.0137 15.2884 13.8864 15.5167 13.7008C15.6601 13.5276 15.8147 13.3726 15.9783 13.2377C16.187 13.063 16.4399 13.063 16.6486 12.8882C16.8572 12.7135 16.813 12.3727 16.813 12.0844L16.8193 12.0582Z" fill="#F27E04"/>
<path d="M12.8989 13.2726C12.8546 13.3337 12.9432 13.4473 12.9811 13.4997C13.338 13.8016 13.7363 13.9979 14.1509 14.0764C14.1672 14.0993 14.1871 14.1167 14.209 14.1273C14.2309 14.1379 14.2543 14.1415 14.2774 14.1376C14.3216 14.0764 14.3596 14.0764 14.4038 14.024C14.7769 13.5609 14.8212 12.757 15.1942 12.3464C15.3207 12.2852 15.4472 12.2328 15.6116 12.1716C15.797 12.0912 15.9786 11.9949 16.1554 11.8833C16.219 11.8124 16.2892 11.7537 16.3641 11.7085C16.3723 11.6865 16.3766 11.6622 16.3767 11.6374C16.3768 11.6127 16.3727 11.5882 16.3647 11.5661C16.3567 11.544 16.345 11.5247 16.3306 11.51C16.3162 11.4953 16.2995 11.4855 16.2819 11.4814C16.2819 11.5425 16.2376 11.5425 16.1996 11.5425C15.9704 11.5407 15.7433 11.4815 15.5294 11.3678C15.478 11.3098 15.4174 11.2693 15.3526 11.2496C15.2878 11.2298 15.2206 11.2314 15.1563 11.2542C15.0943 11.2982 15.0386 11.3574 14.9919 11.4289C14.7832 11.7173 14.6568 12.0668 14.4481 12.3551C14.2994 12.6654 14.075 12.8918 13.8158 12.993C13.5024 13.034 13.1942 13.1309 12.8989 13.2813V13.2726Z" fill="#1B2747"/>
<path d="M15.8582 14.3646C15.776 14.3035 15.9025 13.7268 15.9848 13.4909C16.08 13.362 16.1945 13.2636 16.3202 13.2025C16.3645 13.1414 16.4468 13.2637 16.4025 13.3161C16.2243 13.6075 16.0831 13.9383 15.9848 14.2947C15.9405 14.2947 15.9405 14.3559 15.8582 14.3559V14.3646Z" fill="#1B2747"/>
<path fill-rule="evenodd" clip-rule="evenodd" d="M22.7508 23.9499V10.4415L26.5953 17.4841H27.3415L31.1418 10.4415V23.9499H32.3559V7.84644H31.1861L26.9684 15.6404L22.7508 7.84644H21.4988V23.9499H22.7508Z" fill="#1B2747"/>
<path fill-rule="evenodd" clip-rule="evenodd" d="M40.9617 9.86484L43.5922 17.9996H38.2806L40.9617 9.86484ZM36.4532 23.9412L37.8759 19.4937H44.0159L45.4386 23.9412H46.7728L41.5498 7.72412H40.38L35.1569 23.9412H36.4532Z" fill="#1B2747"/>
<path fill-rule="evenodd" clip-rule="evenodd" d="M50.7754 9.40183H54.7212C56.3083 9.40183 57.2505 10.4416 57.2505 12.2853C57.2505 14.1289 56.3336 15.1687 54.7212 15.1687H50.7944L50.7754 9.40183ZM50.7754 23.9413V16.724H54.3671L58.003 23.9413H59.4636L55.7076 16.558C56.4816 16.4459 57.1962 15.9331 57.7077 15.1225C58.2191 14.312 58.4896 13.264 58.4645 12.1891C58.4645 9.56784 57.0418 7.82031 54.7907 7.82031H49.5677V23.9238L50.7754 23.9413Z" fill="#1B2747"/>
<path fill-rule="evenodd" clip-rule="evenodd" d="M62.7961 7.84644V23.9499H64.0545V15.754L70.2323 23.9499H71.9839L65.3444 15.2298L71.067 7.84644H69.4419L64.0545 14.8278V7.84644H62.7961Z" fill="#1B2747"/>
<path d="M75.8284 7.84644H74.5764V23.9499H75.8284V7.84644Z" fill="#1B2747"/>
<path fill-rule="evenodd" clip-rule="evenodd" d="M83.3468 24.2382C84.4299 24.2862 85.4964 23.8612 86.3947 23.0236C86.7944 22.6464 87.1195 22.137 87.3403 21.5419C87.5612 20.9467 87.6709 20.2846 87.6593 19.616C87.6726 19.104 87.6093 18.5937 87.4733 18.1171C87.3373 17.6405 87.1315 17.2078 86.8689 16.8461C86.6047 16.4658 86.2944 16.1524 85.952 15.9199C85.628 15.6992 85.2943 15.5066 84.9529 15.3432C84.5734 15.129 84.1823 14.9567 83.7831 14.8277L83.1129 14.5394L82.3604 14.251L81.8165 13.9627C81.6181 13.9062 81.4319 13.7865 81.2728 13.6132C81.042 13.423 80.8512 13.1529 80.7193 12.8295C80.5873 12.5062 80.5187 12.1408 80.5203 11.7695C80.5203 10.3278 81.4371 9.14824 83.3152 9.14824C84.5949 9.13545 85.8473 9.65949 86.9068 10.6511V8.90359C85.8087 7.99938 84.549 7.53924 83.2709 7.57547C82.2176 7.50044 81.1757 7.90567 80.3053 8.72883C79.9737 9.08053 79.7064 9.535 79.5252 10.0556C79.344 10.5762 79.2538 11.1483 79.2619 11.7259C79.2609 12.6892 79.5125 13.6204 79.9702 14.3472C80.236 14.6678 80.5316 14.9381 80.8491 15.151C81.2222 15.3782 81.6016 15.553 81.8924 15.7277C82.1833 15.9025 82.6007 16.016 83.1065 16.2432C83.4051 16.3311 83.6988 16.4479 83.9855 16.5927L84.7379 16.9422C84.9847 17.0631 85.222 17.2183 85.4462 17.4053C85.7439 17.6013 85.9935 17.9134 86.1643 18.3031C86.3351 18.6928 86.4196 19.1432 86.4073 19.5985C86.4073 21.4421 85.0731 22.6567 83.2456 22.6567C82.4316 22.6455 81.6259 22.4294 80.8681 22.0188C80.1924 21.7089 79.5673 21.2191 79.028 20.5771V22.5431C80.3213 23.6923 81.835 24.2768 83.3721 24.2207L83.3468 24.2382Z" fill="#1B2747"/>
<defs>
<clipPath id="clip0_0_571">
<rect width="118.403" height="31.9099" fill="white"/>
</clipPath>
</defs>
</svg>
