<svg width="64" height="41" viewBox="0 0 64 41" fill="none" xmlns="http://www.w3.org/2000/svg">
<path fill-rule="evenodd" clip-rule="evenodd" d="M23.7714 26.7508C23.8404 26.7488 23.9073 26.7828 23.9587 26.8457C24.01 26.9087 24.0419 26.996 24.0478 27.0898C24.0478 27.1908 24.0184 27.2876 23.9662 27.359C23.9139 27.4303 23.843 27.4704 23.769 27.4704C23.6951 27.4704 23.6242 27.4303 23.5719 27.359C23.5196 27.2876 23.4903 27.1908 23.4903 27.0898C23.4962 26.996 23.5281 26.9087 23.5794 26.8457C23.6307 26.7828 23.6977 26.7488 23.7667 26.7508H23.7714Z" fill="black"/>
<path fill-rule="evenodd" clip-rule="evenodd" d="M48.9373 26.7508C49.0017 26.7568 49.0623 26.7944 49.108 26.8568C49.1536 26.9191 49.1812 27.0019 49.1856 27.0898C49.187 27.184 49.1622 27.2755 49.1161 27.3455C49.07 27.4156 49.006 27.4591 48.9373 27.4672C48.864 27.4672 48.7937 27.4275 48.7418 27.3567C48.69 27.2859 48.6609 27.1899 48.6609 27.0898C48.6668 26.996 48.6987 26.9087 48.75 26.8457C48.8014 26.7828 48.8683 26.7488 48.9373 26.7508V26.7508Z" fill="black"/>
<path d="M21.9175 1.23456L24.1739 8.37327H25.3395L23.2704 1.82306L37.3139 4.01712L51.3573 6.25596L50.2151 8.36686H51.5773L52.8132 6.08325L53.3702 5.02779L52.434 4.89986L37.4543 2.53309L22.4746 0.16632L21.5384 0L21.9175 1.23456ZM38.3671 30.2883L34.5333 37.3246L32.305 30.2883H31.0973L33.906 39.1157L34.2758 40.3439L34.8422 39.2437L39.7246 30.2883H38.3671Z" fill="black"/>
<path d="M47.2052 25.8106H47.9167V25.3052H46.8026V28.8938H47.9167V28.3692H47.2052V27.3458H47.809V26.8404H47.2239L47.2052 25.8106ZM45.9085 25.8106C46.0629 25.8106 46.1238 25.9385 46.1238 26.188V26.527C46.1238 26.8212 46.0302 26.9044 45.8757 26.9044H45.7212V25.8106H45.9085ZM46.5872 28.8938C46.5497 28.7587 46.5291 28.616 46.5264 28.4716V27.9215C46.5264 27.5441 46.4655 27.2434 46.2502 27.1219C46.4374 27.0387 46.5264 26.7829 46.5264 26.4054V26.1496C46.5264 25.5611 46.3391 25.3052 45.9412 25.3052H45.2905V28.8938H45.7212V27.4161H45.8429C46.0302 27.4161 46.1191 27.5441 46.1191 27.8831V28.4716C46.1233 28.6131 46.1343 28.7542 46.1519 28.8938H46.5872ZM43.7785 28.0046C43.7785 28.5931 43.9939 28.9321 44.3965 28.9321C44.4861 28.9415 44.5761 28.9236 44.6601 28.8797C44.7441 28.8359 44.8199 28.7671 44.8821 28.6784C44.9444 28.5898 44.9915 28.4833 45.02 28.3668C45.0485 28.2503 45.0578 28.1266 45.0471 28.0046V26.1432C45.055 26.0237 45.0436 25.9033 45.0137 25.7906C44.9838 25.6778 44.9361 25.5754 44.8741 25.4905C44.812 25.4057 44.7371 25.3406 44.6545 25.2997C44.572 25.2588 44.4839 25.2433 44.3965 25.2541C44.3107 25.2444 44.2244 25.2611 44.1439 25.3031C44.0635 25.345 43.9909 25.4111 43.9317 25.4964C43.8724 25.5817 43.8278 25.6841 43.8013 25.796C43.7748 25.908 43.7671 26.0266 43.7785 26.1432V28.0046ZM44.1811 26.1432C44.1811 25.8873 44.2748 25.7658 44.3965 25.7658C44.5182 25.7658 44.6118 25.8937 44.6118 26.1432V28.0622C44.6118 28.3181 44.5509 28.4396 44.3965 28.4396C44.242 28.4396 44.1811 28.3117 44.1811 28.0622V26.1432ZM42.3555 25.8042H42.7861V28.8874H43.1887V25.8106H43.6568V25.3052H42.3601L42.3555 25.8042ZM41.026 26.1432C41.026 27.1603 41.8312 27.3266 41.8312 28.0622C41.8312 28.3181 41.7703 28.4396 41.6159 28.4396C41.4614 28.4396 41.4005 28.3117 41.4005 28.0622V27.8063H41.0307V28.0174C41.0307 28.6059 41.218 28.9449 41.6486 28.9449C42.0793 28.9449 42.2338 28.6059 42.2338 28.0174C42.2338 27.0003 41.4286 26.8788 41.4286 26.156C41.4286 25.9001 41.5222 25.7786 41.6439 25.7786C41.7657 25.7786 41.8593 25.9065 41.8593 26.156V26.2839H42.2291V26.156C42.2291 25.6059 42.0418 25.2668 41.6439 25.2668C41.5581 25.2572 41.4718 25.2739 41.3914 25.3159C41.311 25.3578 41.2384 25.4239 41.1791 25.5092C41.1199 25.5945 41.0753 25.6969 41.0488 25.8088C41.0223 25.9208 41.0145 26.0394 41.026 26.156V26.1432ZM39.0459 25.8042H39.4766V28.8874H39.8791V25.8106H40.3192V25.3052H39.0506L39.0459 25.8042ZM38.3344 25.8042C38.4561 25.8042 38.5497 25.8873 38.5497 26.1432V26.6933C38.5497 26.9492 38.4561 27.0323 38.3344 27.0323H38.1471V25.8106L38.3344 25.8042ZM38.3344 25.2988H37.7164V28.8874H38.1471V27.5377H38.3344C38.4202 27.5473 38.5065 27.5306 38.5869 27.4886C38.6673 27.4467 38.7399 27.3806 38.7992 27.2953C38.8584 27.21 38.903 27.1076 38.9295 26.9957C38.956 26.8838 38.9638 26.7651 38.9523 26.6485V26.1816C38.9656 26.0645 38.9592 25.9449 38.9333 25.8318C38.9075 25.7187 38.863 25.6152 38.8033 25.5293C38.7436 25.4434 38.6703 25.3774 38.589 25.3363C38.5077 25.2953 38.4206 25.2802 38.3344 25.2924V25.2988ZM36.7568 25.8042H37.4683V25.2988H36.3542V28.8874H37.4683V28.3692H36.7568V27.3458H37.3139V26.8404H36.7568V25.8042ZM35.7036 27.5377V28.043C35.7036 28.2989 35.6099 28.4204 35.4882 28.4204C35.3665 28.4204 35.2729 28.2925 35.2729 28.043V26.124C35.2729 25.8681 35.3665 25.7466 35.4882 25.7466C35.6099 25.7466 35.7036 25.8745 35.7036 26.124V26.5014H36.0734V26.124C36.0734 25.5739 35.8861 25.2349 35.4882 25.2349C35.0903 25.2349 34.8703 25.5739 34.8703 26.124V27.9854C34.8703 28.5739 35.0575 28.913 35.4882 28.913C35.9189 28.913 36.0734 28.5739 36.0734 27.9854V27.5185L35.7036 27.5377ZM34.1869 28.8874H34.5894V25.2988H34.2337V27.4545L33.8311 25.2988H33.2974V28.8874H33.6672V26.2711L34.1869 28.8874ZM31.7761 27.9982C31.7761 28.5867 31.9914 28.9257 32.394 28.9257C32.7966 28.9257 33.0119 28.5867 33.0119 27.9982V26.1368C33.0119 25.9128 32.9468 25.6981 32.8309 25.5397C32.715 25.3814 32.5579 25.2924 32.394 25.2924C32.2301 25.2924 32.0729 25.3814 31.957 25.5397C31.8412 25.6981 31.7761 25.9128 31.7761 26.1368V27.9982ZM32.1786 26.1368C32.1786 25.8809 32.2723 25.7594 32.394 25.7594C32.5157 25.7594 32.6093 25.8873 32.6093 26.1368V28.0558C32.6093 28.3117 32.5157 28.4332 32.394 28.4332C32.2723 28.4332 32.1786 28.3053 32.1786 28.0558V26.1368ZM31.1581 27.5313V28.0366C31.1581 28.2925 31.0973 28.414 30.9428 28.414C30.7883 28.414 30.7275 28.2861 30.7275 28.0366V26.1176C30.7275 25.8617 30.8211 25.7402 30.9428 25.7402C31.0645 25.7402 31.1581 25.8681 31.1581 26.1176V26.495H31.5607V26.1176C31.5607 26.0067 31.5447 25.8969 31.5137 25.7945C31.4826 25.692 31.4371 25.599 31.3797 25.5205C31.3224 25.4421 31.2543 25.3799 31.1793 25.3375C31.1043 25.2951 31.0239 25.2732 30.9428 25.2732C30.8617 25.2732 30.7813 25.2951 30.7063 25.3375C30.6314 25.3799 30.5633 25.4421 30.5059 25.5205C30.4485 25.599 30.403 25.692 30.3719 25.7945C30.3409 25.8969 30.3249 26.0067 30.3249 26.1176V27.979C30.3249 28.5675 30.5402 28.9065 30.9428 28.9065C31.3454 28.9065 31.5607 28.5675 31.5607 27.979V27.5121L31.1581 27.5313ZM29.0563 28.881H29.487V25.2924H29.1172V27.4481L28.6865 25.2924H28.1482V28.881H28.518V26.2647L29.0563 28.881ZM27.2119 25.8106H27.9235V25.3052H26.8094V28.8938H27.9235V28.3692H27.2119V27.3458H27.7971V26.8404H27.2119V25.8106ZM25.3395 25.3052H24.7543V28.8938H25.1241V26.3351L25.4331 28.8938H25.8076L26.1165 26.3351V28.8938H26.4864V25.3052H25.9293L25.6531 27.8639L25.3395 25.3052Z" fill="black"/>
<path d="M52.7711 10.0683H54.7793L59.6945 23.7124H57.6395L52.7711 10.0683ZM54.7184 23.6292L52.8038 23.7124V11.4563L54.7184 16.6121V23.6292ZM57.719 10.1962L59.6664 10.0683V22.3179L57.719 17.2006V10.1962ZM49.3398 10.0683L46.9992 23.7124H45.0846L47.3409 10.0683H49.3398ZM49.0636 14.6739L49.7751 10.0683H50.2994L52.4902 23.7124H50.5756L50.0185 20.8403H47.9495L48.2912 18.7294H49.7424L49.0636 14.6739ZM37.562 17.2325V23.6932H35.7364V10.1066L37.562 17.2325ZM41.0261 23.3158H39.4204L36.1764 10.0491H37.9786L40.2349 18.8381L42.4913 10.0491H44.2514L41.0261 23.3158ZM44.6446 10.0491V23.6932H42.8845V17.8786L42.8517 17.3285L44.6446 10.0491ZM30.7322 23.6932C29.033 23.6932 28.195 22.7209 28.195 20.7379V10.0683H30.1096V20.546C30.1096 21.1345 30.4513 21.4352 31.1629 21.4352V23.7188L30.7322 23.6932ZM31.6684 21.4096C32.38 21.3648 32.7217 21.0706 32.7217 20.5204V10.0683H34.6363V20.7571C34.6363 22.7401 33.803 23.7124 32.0991 23.7124H31.6684V21.4096ZM22.3061 23.6932H20.3588V10.0683H22.3061V23.6932ZM22.8632 10.0491H24.3143C26.0136 10.0491 26.8515 11.0661 26.8515 13.0491V15.5758C26.8515 17.0982 26.3834 18.0705 25.4472 18.5311L27.2728 23.7252H25.2038L23.659 18.5311H22.8866V16.4202H24.0007C24.6514 16.4202 24.9369 16.1643 24.9369 15.5758V13.2538C24.9369 12.7037 24.628 12.4094 24.0007 12.4094H22.8866L22.8632 10.0491ZM13 10.0491H19.4319V12.3775H13.014L13 10.0491ZM17.2973 23.6932H15.3827V13.1067H17.2973V23.6932Z" fill="black"/>
</svg>
