<svg width="134" height="15" viewBox="0 0 134 15" fill="none" xmlns="http://www.w3.org/2000/svg">
<path fill-rule="evenodd" clip-rule="evenodd" d="M2.62717 10.736C2.88075 10.5604 2.8763 10.3908 3.00977 9.85184C3.36122 8.40453 4.67805 3.19057 4.93163 2.17927C4.95387 2.11871 5.00281 1.87043 4.98501 1.76142C4.86489 1.48892 4.51789 1.3678 4.23317 1.31936C4.08191 1.28908 3.54362 1.21035 3.49023 1.1498C3.39681 1.05291 3.4235 0.96207 3.43685 0.840956C3.48133 0.616896 3.63259 0.61084 3.80164 0.61084C4.05077 0.61084 8.42834 0.61084 8.5974 0.61084C8.89991 0.616896 8.88656 1.1498 8.68192 1.2043C7.82776 1.28302 7.03588 1.31936 6.69778 2.11871C6.40861 3.25113 4.70474 9.62778 4.54903 10.3181C4.52234 10.4574 4.50899 10.6572 4.60687 10.7663L4.65135 10.8208C4.78482 10.9843 4.96277 11.0751 5.15851 11.1417C5.35871 11.1962 5.5411 11.2386 5.75464 11.2628C5.96374 11.2992 6.02602 11.3113 6.07051 11.4203C6.1061 11.5595 6.1061 11.7352 6.02602 11.8078C5.94149 11.8805 5.79913 11.8926 5.79913 11.8926H1.06566C0.96334 11.8684 0.905507 11.7715 0.89216 11.6564C0.887712 11.5232 0.887712 11.4082 0.967789 11.3294C1.09235 11.2023 1.41711 11.178 1.41711 11.178C1.56392 11.178 1.89758 11.1175 2.27572 10.9419C2.34245 10.9116 2.38249 10.8934 2.44033 10.8631L2.62717 10.736Z" fill="#2B2A29"/>
<path fill-rule="evenodd" clip-rule="evenodd" d="M40.139 0.616882C40.139 0.616882 35.9972 0.616882 36.0995 0.616882C35.7748 0.653217 35.7659 0.810665 35.7614 0.889389C35.7436 1.065 35.8059 1.19217 35.9438 1.24062C36.2819 1.30723 36.5933 1.25273 36.9003 1.37384C36.9759 1.42229 37.0605 1.4889 36.9982 1.65846C36.838 1.87647 30.9301 9.57932 30.761 9.68226C30.6765 9.54904 29.6177 2.62132 29.5243 2.07631C29.4887 1.87647 29.4753 1.56763 29.8001 1.50707C30.2138 1.37384 30.4185 1.38596 30.7833 1.31329C30.9256 1.28301 30.9301 1.14978 30.9345 1.02261C30.9301 0.822776 30.8722 0.677439 30.6987 0.653217C30.7966 0.653217 26.7794 0.653217 26.8506 0.653217C26.815 0.671384 26.6415 0.635049 26.597 0.840943C26.5747 0.931779 26.5659 1.02261 26.6014 1.10134C26.6637 1.24062 26.7794 1.29512 26.9529 1.31934C26.9929 1.34962 27.6914 1.44046 27.8649 1.77352C27.985 2.04603 28.3053 4.29875 28.3365 4.60153C28.2297 4.77715 24.9599 9.05247 24.4883 9.63987C24.4571 9.68832 24.3771 9.71254 24.3682 9.61565C24.2436 9.10092 24.1769 8.48323 24.0657 7.90794C24.0568 7.805 23.1892 2.32459 23.1448 2.02786C23.1136 1.82197 23.2159 1.65241 23.3361 1.52524C23.6653 1.37384 24.0212 1.31934 24.3771 1.33751C24.466 1.28906 24.6128 1.30723 24.7018 1.18612C24.7196 1.10739 24.7597 1.00445 24.7241 0.907556C24.684 0.762219 24.5995 0.695606 24.5061 0.659272C24.6484 0.659272 20.9693 0.653217 20.2086 0.659272C19.9906 0.659272 19.8927 0.628994 19.7593 0.731941C19.7148 0.804609 19.6836 0.9015 19.697 0.974169C19.7148 1.08923 19.7682 1.21034 19.8571 1.25879C20.1374 1.3799 20.6312 1.28301 21.214 1.6403C21.4409 1.80985 21.4631 2.25798 21.521 2.60315C21.601 3.13605 21.6989 3.57812 21.7568 4.11102C21.8858 4.81348 22.4774 8.5014 22.5531 8.94952C22.602 9.2402 22.909 11.178 22.909 11.178C22.9668 11.5232 23.1448 11.7836 23.3761 11.8744C23.5629 11.8986 23.7098 11.935 23.8788 11.7412L28.5055 5.70367C28.5411 5.72789 28.5366 5.80056 28.55 5.87928C28.7013 6.79975 29.3018 11.0569 29.4931 11.6322C29.5154 11.7291 29.6533 12.1469 30.0982 11.8926C30.1426 11.8744 30.2138 11.8139 30.2806 11.7291C30.3962 11.5716 37.4697 2.41542 37.6922 2.21559C37.6966 2.20953 38.2438 1.53735 38.8533 1.41018C39.4628 1.24062 39.6852 1.29512 40.1701 1.18006C40.2502 1.13767 40.2813 1.03473 40.2725 0.919667C40.2725 0.786442 40.2547 0.659272 40.139 0.616882Z" fill="#2B2A29"/>
<path fill-rule="evenodd" clip-rule="evenodd" d="M17.9132 5.55838C17.9933 5.81272 17.9888 6.17606 17.9443 6.46068C17.9043 6.66658 17.8776 6.7998 17.842 6.97542C17.7664 7.2782 17.1614 9.53092 16.9701 10.4151C16.9345 10.5241 17.0145 10.6028 17.0902 10.5846C17.3215 10.5119 17.2548 10.5241 17.3971 10.4332C17.4149 10.4151 18.1178 9.88821 18.3981 9.57936C18.5716 9.42797 18.6606 9.25236 18.843 9.38558C18.9231 9.42797 18.9764 9.58542 18.9898 9.71865C18.972 9.8337 18.9453 9.85793 18.8919 9.95482C18.5627 10.3545 18.3714 10.5119 18.02 10.8147C17.7575 11.0267 17.2147 11.4082 17.1658 11.4445C16.9434 11.602 16.4095 11.8442 16.4095 11.8442C15.9513 11.9653 15.8089 11.9108 15.7556 11.929C15.5465 11.9108 15.3641 11.7291 15.2662 11.4687C15.0971 10.8935 15.3908 10.3605 15.5064 9.84582C15.5376 9.66414 15.6176 9.47642 15.6399 9.29475C15.7289 9.05252 15.7911 8.70734 15.8712 8.43484C15.9646 8.14417 16.0136 7.82321 16.1159 7.52648C16.236 6.99358 16.4451 6.49702 16.3828 5.94595C16.3339 5.72189 16.2004 5.69161 16.0536 5.6795C15.8267 5.69766 15.7066 5.74005 15.5064 5.82483C15.1416 5.99439 14.8258 6.16395 14.5055 6.43646C14.3631 6.56363 13.9093 6.92697 13.7447 7.12681C13.7447 7.12681 12.6503 8.41062 12.4991 8.6044C12.3078 8.87085 12.1298 9.10096 11.9741 9.37347C11.9741 9.37347 11.3157 10.5725 10.9687 11.493C10.9287 11.602 10.9198 11.6686 10.7952 11.8139C10.6261 11.9774 10.3726 11.9714 10.1902 11.8442C9.97663 11.6746 9.90545 11.2265 9.94104 11.0267C10.0167 10.6209 10.1368 10.2818 10.2124 9.90032C10.5505 8.68312 10.8575 7.42959 11.2089 6.20029C11.2356 6.11551 11.2579 6.02467 11.1867 5.95806C11.0666 5.87328 10.9287 5.98228 10.813 6.01862C10.635 6.07917 9.86096 6.56363 9.53175 6.76347C9.24258 6.93303 9.12692 6.66052 9.12247 6.50307C9.12247 6.50307 9.14471 6.25479 9.34935 6.15184C9.58069 6.03073 11.0666 5.07998 11.5915 4.94676C11.9474 4.83776 12.4323 4.69848 12.7526 5.00732C12.7971 5.02548 13.0374 5.40699 12.8728 5.91567C12.7793 6.23057 12.6548 6.71502 12.6904 6.82402C12.7082 6.87247 12.7215 6.90275 12.8149 6.84825C12.9706 6.70291 14.1629 5.7885 14.2964 5.72794C14.8258 5.37066 15.4219 5.11632 16.018 4.92254C16.018 4.93465 16.5786 4.74086 16.9389 4.81353C17.3749 4.89226 17.7708 5.06787 17.9132 5.55838Z" fill="#2B2A29"/>
<path fill-rule="evenodd" clip-rule="evenodd" d="M59.7133 4.94665C59.8735 4.98904 59.9758 4.96482 60.1404 5.30394C60.216 5.47955 60.2472 5.64911 60.2427 5.87923C60.2294 6.01245 60.1582 6.4848 60.0648 6.81786C60.0247 6.92686 59.9357 7.15698 60.1137 7.16909C60.1804 7.18726 61.0657 6.15779 61.1191 6.09723C61.4083 5.84289 61.5996 5.60066 61.9555 5.38872C62.1023 5.28577 62.1824 5.26155 62.3069 5.20099C62.5472 5.1041 62.6984 5.06171 62.9297 5.02537C63.0855 5.00115 63.5259 5.11015 63.5526 5.14043C63.7038 5.18888 64.0063 5.33421 64.0686 5.72783C64.0998 6.32735 63.8818 6.59985 63.7706 6.72702C63.5526 6.93897 63.21 7.06009 62.9653 6.86025C62.8497 6.73308 62.8719 6.55141 62.8719 6.36368C62.8096 5.77628 62.4092 6.08512 62.2936 6.15779C61.7019 6.52113 61.4528 6.89053 61.4528 6.89053C61.4528 6.89053 60.9723 7.35682 60.7232 7.79888C60.7232 7.79888 58.9481 10.5118 58.6323 11.1961C58.5255 11.3778 58.4098 11.6079 58.3031 11.7956C58.1696 12.0439 57.8804 12.1348 57.6624 12.0742C57.5201 12.0136 57.3332 11.7775 57.3065 11.6019C57.2531 11.1719 57.4533 10.8873 57.5067 10.5058C57.5379 10.4573 58.3253 7.39921 58.3609 7.30232C58.4454 6.93897 58.5655 6.58774 58.6412 6.21229C58.6456 6.12751 58.6056 5.95189 58.4499 5.97612C58.3031 5.97612 58.2764 6.00034 58.1073 6.0609C57.4355 6.38185 57.0796 6.63013 57.0796 6.63013C57.0129 6.69069 56.9729 6.73308 56.8795 6.80575C56.8795 6.80575 56.7193 6.93292 56.568 6.90264C56.5102 6.87842 56.4613 6.84208 56.4435 6.67252C56.4524 6.41818 56.5903 6.29101 56.5903 6.29101C56.5903 6.29101 56.9818 5.88528 57.3599 5.67333C57.7203 5.48561 58.0984 5.25549 58.4766 5.11621C58.9615 4.92848 59.6065 4.92243 59.7133 4.94665Z" fill="#2B2A29"/>
<path fill-rule="evenodd" clip-rule="evenodd" d="M42.3456 4.80723C42.6703 4.84962 42.9284 4.90413 43.2353 5.03735C43.4667 5.11608 43.7692 5.32802 43.9293 5.57631C44.0183 5.72165 44.0895 5.98204 44.0672 6.21216C44.0494 6.29694 44.0583 6.33327 44.0094 6.49677C43.9605 6.65422 43.8715 6.95095 43.5601 7.18712C43.2442 7.46569 43.0084 7.5868 43.0084 7.5868C42.6392 7.79269 41.5537 8.31954 41.3846 8.40432C41.2601 8.45277 40.5839 8.71922 40.5349 8.7495C40.308 8.84033 40.0767 8.91905 39.8409 8.99172C39.5384 9.07045 38.8044 9.27029 38.4396 9.34901C38.1726 9.41562 37.8924 9.46407 37.4564 9.58518C37.3274 9.65785 37.363 9.88797 37.3808 10.0575C37.4075 10.2634 37.4164 10.3664 37.4831 10.5299C37.4964 10.5359 37.621 10.8569 37.839 10.9174C37.9991 10.984 38.1326 11.0143 38.4574 11.0204C39.0713 10.9417 40.0901 10.6752 40.0634 10.6873C40.2191 10.6389 41.1311 10.2937 41.1711 10.2695C41.6249 10.0636 42.0653 9.84558 42.4879 9.57913C42.5769 9.51857 42.6837 9.45196 42.7771 9.3914C42.8794 9.34295 42.9506 9.3369 43.0262 9.3914C43.1108 9.47012 43.1597 9.52462 43.1108 9.73052C42.9773 10.112 42.6392 10.1847 42.3856 10.3543C42.221 10.4269 41.6916 10.7418 41.5759 10.8024C41.4781 10.8327 40.9531 11.1052 40.8552 11.1415C40.744 11.2081 39.9966 11.4927 39.7253 11.6017C39.356 11.7289 38.3906 11.959 38.3595 11.9408C38.1771 11.9772 37.6655 12.0075 37.6432 12.0014C37.4875 12.0256 37.1227 11.9832 37.0338 11.9711C36.6512 11.9348 36.2908 11.7228 36.0106 11.4079C35.8015 11.1052 35.7347 10.8205 35.7036 10.7115C35.6636 10.548 35.6458 10.4754 35.628 10.2634C35.5924 9.68207 35.6947 9.15523 35.8949 8.70105C36.0328 8.39826 36.193 8.13787 36.3086 7.96831C36.5533 7.55652 37.1316 6.90251 37.1316 6.90251C37.4297 6.56339 37.9458 6.12132 38.4841 5.80643C38.7821 5.58236 39.9032 5.13424 40.139 5.05552C40.5438 4.89807 41.3535 4.78907 41.3535 4.78907C41.8696 4.72245 42.0297 4.78301 42.3456 4.80723ZM51.4522 4.9344C50.211 5.09791 49.775 5.23719 49.5526 5.34619C49.3524 5.4128 48.6539 5.66109 48.129 5.99415C47.9466 6.13343 47.733 6.25455 47.5551 6.412C47.0524 6.75717 46.0158 7.91986 45.6243 8.57388C45.5531 8.61627 45.126 9.45196 45.0059 9.85163C44.7968 10.3482 44.8369 10.984 44.9081 11.1415C45.1527 12.0196 45.5665 11.9954 45.869 11.9954C46.563 11.9651 46.9189 11.844 47.4483 11.6744C47.5417 11.6562 48.0044 11.4443 48.1245 11.3958C48.5649 11.2323 50.3088 10.0757 50.6425 9.82135C50.7092 9.79108 50.856 9.63363 50.9228 9.66391L50.856 9.9788C50.7715 10.33 50.6292 10.8387 50.6292 11.1778C50.6203 11.2626 50.6647 11.844 51.1185 11.959C51.5056 12.0438 51.728 11.9469 51.9949 11.8742C52.0705 11.844 52.0972 11.8318 52.1907 11.7834C52.4398 11.7047 53.9969 10.542 54.2549 10.2937C54.3839 10.1847 54.5085 10.0636 54.5663 9.89402C54.6597 9.62757 54.4773 9.47618 54.4595 9.47618C54.2905 9.42773 54.2059 9.51251 54.068 9.64574C53.8411 9.90008 53.6765 10.0333 53.3384 10.3179C53.076 10.4935 52.8535 10.6873 52.5599 10.7297C52.4665 10.7176 52.4487 10.6813 52.4487 10.6813C52.3464 10.5601 52.4131 10.3785 52.4442 10.221C52.4932 10.0272 53.2628 7.13262 53.3384 6.80562C53.3651 6.72689 53.5787 5.90937 53.6098 5.7822C53.6499 5.65503 53.6721 5.53392 53.6943 5.37647C53.6943 5.20691 53.6009 5.15241 53.503 5.11002C52.8313 4.9344 52.204 4.92229 51.4522 4.9344ZM41.4781 5.43703C41.2779 5.46125 41.0999 5.5097 40.7173 5.62475C40.526 5.69137 40.2725 5.77615 40.1835 5.83065C39.9032 5.96387 39.6318 6.12738 39.3605 6.29088C38.2394 6.98729 37.8167 8.07731 37.7634 8.22265C37.7055 8.31348 37.5765 8.7495 37.5409 8.81005C37.5676 8.77372 37.6877 8.75555 37.8123 8.71922C37.8123 8.71922 38.9334 8.42854 39.1247 8.36193C39.3427 8.30137 39.5295 8.24687 39.792 8.14998C40.4638 7.90775 41.527 7.32035 41.705 7.2174C41.9363 7.09023 42.2788 6.78139 42.4212 6.50283C42.5146 6.30299 42.5547 6.09104 42.5057 5.87909C42.479 5.75798 42.3945 5.66109 42.3322 5.58842C42.3322 5.58842 42.181 5.35225 41.4781 5.43703ZM51.9415 5.7822C51.768 6.50283 51.5634 7.25374 51.3765 7.99253C51.341 8.11365 51.3187 8.3256 51.163 8.53755C50.9895 8.73133 50.6203 9.00383 50.5847 9.01595C50.5357 9.08861 49.0498 10.0636 48.4938 10.33C48.3469 10.3966 47.7731 10.651 47.604 10.6994C46.8477 10.9417 46.7854 10.3482 46.781 10.2634C46.7543 10.1544 46.781 9.79108 46.8032 9.71235C46.9367 9.11284 47.1636 8.5981 47.4616 8.14998C47.7108 7.6958 48.3202 7.00545 48.7384 6.70267C49.5437 6.08499 50.1976 5.87304 50.2288 5.86093C50.598 5.75798 51.6835 5.58842 51.857 5.59448C52.0038 5.60659 51.9415 5.7822 51.9415 5.7822Z" fill="#2B2A29"/>
<path d="M95.4816 5.45045V4.47549H93.6042V2.87073H93.3684L91.6467 4.99022V5.45045H92.3185L92.3229 10.3011C92.3229 11.0217 92.4386 11.5122 92.6877 11.8513C92.9502 12.2147 93.3595 12.3903 93.9245 12.3903C94.8409 12.3903 95.3703 11.7242 95.5082 11.5183L95.526 11.494L95.6506 11.3063C95.6506 11.3063 95.5661 11.2034 95.4904 11.0883C95.4326 10.9975 95.2992 10.8279 95.2992 10.8279C95.2502 10.8703 95.1746 10.9732 95.0901 11.0459C95.0233 11.0944 94.9433 11.167 94.8854 11.1852C94.7698 11.2458 94.6541 11.27 94.5384 11.27C94.2448 11.27 94.0357 11.1731 93.8933 10.9793C93.6531 10.6523 93.622 10.0588 93.622 9.46538V5.45045H95.4816Z" fill="#2B2A29"/>
<path d="M131.921 7.67236C132.651 7.67236 132.909 7.64813 132.967 7.53913C133.038 7.39985 133.02 7.17579 133.007 6.9275C132.98 6.40671 132.753 5.54075 132.446 5.11685C132.024 4.52945 131.45 4.2085 130.742 4.2085C128.972 4.2085 127.637 6.07971 127.637 8.56254C127.637 9.22867 127.748 10.2036 128.287 11.0817C128.789 11.8992 129.604 12.3655 130.533 12.3655C131.334 12.3655 132.388 11.875 133.02 10.6154L133.096 10.4398C133.096 10.4398 132.971 10.2642 132.896 10.1915C132.816 10.1189 132.66 10.0038 132.638 10.0038L132.517 10.2036C131.997 10.8334 131.721 10.9545 131.232 10.9788C130.56 10.9969 129.986 10.676 129.572 10.1067C129.141 9.51329 128.901 8.65338 128.901 7.69658L131.921 7.67236ZM131.677 6.25532C131.686 6.41277 131.712 6.51572 131.61 6.63078C131.481 6.764 130.662 6.764 130.102 6.764L128.972 6.75189C129.047 6.26138 129.412 5.06841 130.564 5.06841C130.907 5.06235 131.218 5.25613 131.401 5.48019C131.605 5.72848 131.668 6.11604 131.677 6.25532Z" fill="#2B2A29"/>
<path d="M98.6358 2.53758L99.8947 0.39386H98.2665L97.5814 2.54364L98.6358 2.53758Z" fill="#2B2A29"/>
<path d="M73.318 11.4211L72.7441 11.3484C72.3037 11.306 72.0679 10.6581 72.0768 9.84057C72.0946 8.38114 72.1524 6.89144 72.1969 5.71664C72.2325 4.8749 72.2681 4.00288 72.3126 3.10058C72.9354 4.97179 73.9275 7.54546 74.3234 8.61126C74.5859 9.30767 75.4223 11.5967 75.578 12.2205H76.0584C76.2942 11.4635 77.0505 9.49539 77.6022 8.12075C77.6022 8.12075 79.5151 3.3852 79.5952 3.1793L79.6352 9.84057C79.6441 10.537 79.5196 11.2758 78.9368 11.3484L78.483 11.4211L78.4875 12.1538C78.4875 12.1538 79.8799 12.0993 80.4049 12.0993C80.9298 12.0993 82.2822 12.1538 82.2822 12.1538V11.4272L81.8018 11.3666C81.3169 11.306 81.09 10.5491 81.0677 9.90112C81.0099 8.19342 80.961 5.70453 80.9387 3.78487L80.9209 2.36178C80.8987 1.6351 81.09 0.908415 81.8062 0.847859C81.8018 0.847859 82.2511 0.799413 82.2511 0.799413V6.10352e-05C82.2511 6.10352e-05 81.1879 0.0787851 80.8097 0.0787851C80.525 0.0787851 80.2314 0.0787851 79.7554 0.0242838L79.6263 0.0121724L79.6174 0.187788C79.5952 0.956861 79.2082 1.90761 78.572 3.48209C78.572 3.48209 77.402 6.50993 77.1083 7.19423C76.9082 7.66052 76.5256 8.67787 76.2142 9.37428C75.9606 8.77477 75.7203 8.16314 75.4712 7.52124L73.7051 3.04608C73.367 2.17406 72.9176 0.926583 72.9799 0.218066L72.9977 0.0121724L72.8464 0.0242838C72.3793 0.0787851 72.0056 0.0787851 71.6764 0.0787851C71.3383 0.0787851 70.3463 0.00611673 70.3463 0.00611673C70.3463 0.00611673 70.3463 0.266512 70.3463 0.436071C70.3507 0.617742 70.3463 0.799413 70.3463 0.799413L70.7066 0.841803C71.3917 0.968972 71.5652 1.51399 71.5519 2.19828C71.5341 3.0703 71.494 4.57211 71.3962 6.1587C71.2849 7.91486 71.2316 9.04122 71.1337 10.0162C71.0581 10.8034 70.7199 11.2939 70.3374 11.3605L69.8925 11.4211V12.172C69.8925 12.172 71.0758 12.1115 71.543 12.1115C72.0991 12.1115 73.318 12.1538 73.318 12.1538V11.4211Z" fill="#2B2A29"/>
<path d="M90.1476 4.44525L89.9563 4.46342L88.3992 4.48159L88.2435 4.45736L88.1545 5.3415C87.8031 4.61481 87.0379 4.36047 86.5308 4.36047C84.5689 4.36047 83.4967 6.37702 83.4967 8.87197C83.4967 9.82271 83.777 10.7795 84.2574 11.4335C84.8358 12.2268 85.4942 12.2934 86.0992 12.3177C86.3217 12.3298 86.4729 12.3116 86.6909 12.251L87.5273 11.1731V11.0823C87.5273 11.0823 87.0112 11.3245 86.5219 11.3185C86.1482 11.3124 85.8101 11.0944 85.5031 10.6887C85.1072 10.1618 84.9248 9.13236 84.9248 8.1574C84.9248 6.81303 85.2896 5.30516 86.5441 5.26883C87.2692 5.25066 87.6963 5.91073 87.8298 6.27407C87.9366 6.5708 87.9944 6.66164 87.9944 7.90306L88.0077 10.0044L88.0166 11.2095L88.0389 12.1542C88.0389 12.1542 89.4803 12.0815 90.0141 12.1239C90.0141 12.1239 90.2677 12.1542 90.3522 12.1542L90.3745 11.4517V11.4456L90.1431 11.4093C89.7694 11.3124 89.5025 11.1913 89.3913 10.8764C89.3023 10.6281 89.3112 9.1687 89.3112 9.1687C89.3112 9.1687 89.3112 7.14004 89.3201 6.52841C89.3335 5.86834 89.418 5.43839 89.676 5.287C89.8851 5.17194 90.1476 5.12349 90.1476 5.12349V4.44525Z" fill="#2B2A29"/>
<path d="M105.794 9.6106C105.78 10.7006 105.66 11.179 105.371 11.3183C105.153 11.4213 104.899 11.4213 104.899 11.4213V12.1661L105.126 12.154C105.531 12.1177 105.949 12.1177 106.457 12.1177C106.955 12.1177 107.382 12.1177 107.787 12.154L108.009 12.1661V11.4334C108.009 11.4334 107.8 11.4152 107.546 11.3486C107.293 11.288 107.102 11.0276 107.093 9.91339L107.097 6.78865C107.097 6.2073 106.95 5.51695 106.648 5.09911C106.332 4.66916 105.887 4.34821 105.322 4.34821C104.588 4.34821 103.854 4.83266 103.285 5.4019L103.307 4.4451C103.307 4.4451 102.711 4.49354 102.288 4.4996C101.981 4.50565 101.149 4.4451 101.149 4.4451V5.09911C101.327 5.12939 101.576 5.29289 101.696 5.41401C101.834 5.55329 101.981 5.9348 101.981 6.31025L101.977 9.6106C101.968 10.7006 101.821 11.2154 101.536 11.3486C101.323 11.4515 101.078 11.4515 101.078 11.4515V12.1661L101.305 12.154C101.71 12.1177 102.132 12.0995 102.631 12.0995C103.133 12.0995 103.556 12.1177 103.961 12.154L104.188 12.1661V11.4273C104.188 11.4273 103.93 11.4213 103.734 11.3425C103.44 11.2275 103.289 11.0276 103.28 9.91339L103.285 7.18833C103.285 6.8371 103.334 6.51614 103.489 6.25575C103.649 5.98324 104.036 5.63807 104.575 5.63807C104.984 5.63807 105.3 5.83791 105.505 6.11041C105.696 6.37686 105.798 6.80682 105.798 7.17622L105.794 9.6106Z" fill="#2B2A29"/>
<path d="M123.78 4.44495C123.78 4.44495 124.149 4.5055 125.03 4.49945C125.03 4.49945 125.546 4.49945 125.951 4.46311C125.951 4.46311 125.942 5.68031 125.942 6.98834V10.3735C125.942 11.0396 126.405 11.4211 126.863 11.4877C126.863 11.4877 126.85 11.73 126.85 11.8329C126.85 11.954 126.854 12.1539 126.85 12.1478L126.61 12.1357C126.24 12.1417 125.515 12.0388 125.168 12.1115L124.786 12.1841L124.688 11.1123C124.185 11.6815 123.344 12.2931 122.597 12.2931C122.032 12.2931 121.587 12.0509 121.276 11.5665C120.991 11.1244 120.826 10.5067 120.826 9.79819V6.6795C120.817 5.78326 120.648 5.41991 120.395 5.25641C120.23 5.15346 120.057 5.09896 120.057 5.09896V4.44495C120.057 4.44495 120.297 4.49339 121.173 4.48734C121.676 4.48734 122.125 4.44495 122.125 4.44495C122.125 4.44495 122.125 5.72876 122.125 6.6795V9.3864C122.125 9.89508 122.25 10.3371 122.428 10.652C122.601 10.9609 122.868 11.1486 123.277 11.1486C123.816 11.1486 124.296 10.6884 124.456 10.4159C124.612 10.1555 124.639 9.94958 124.639 9.45907V6.6795C124.63 5.80748 124.479 5.43808 124.189 5.25035C123.971 5.10502 123.785 5.09896 123.785 5.09896L123.78 4.44495Z" fill="#2B2A29"/>
<path d="M96.8919 5.20804C97.0654 5.23832 97.2745 5.32915 97.408 5.45027C97.5103 5.5411 97.7105 5.78333 97.7105 6.15273V6.72196V9.60447C97.7016 10.6884 97.5681 11.1366 97.2923 11.3061C97.0565 11.4515 96.8163 11.4515 96.8163 11.4515V12.1539L97.0432 12.1418C97.448 12.1115 97.8528 12.1115 98.3555 12.1115C98.8583 12.1115 99.2987 12.1115 99.7035 12.1418L99.9259 12.1539V11.4515C99.9259 11.4515 99.748 11.4575 99.4722 11.3606C99.1964 11.2577 99.0318 11.0215 99.0229 9.90726V6.57057C99.0229 5.37154 99.1029 4.43896 99.1029 4.43896C99.1029 4.43896 98.4134 4.53586 98.0219 4.51163C97.9285 4.51163 96.8118 4.45108 96.8118 4.45108C96.8118 4.45108 96.8163 4.66908 96.8163 4.83864C96.8207 5.02637 96.8118 5.18987 96.8118 5.18987L96.8919 5.20804Z" fill="#2B2A29"/>
<path d="M110.75 2.53734L112.004 0.393616H110.372L109.691 2.54339L110.75 2.53734Z" fill="#2B2A29"/>
<path d="M109.001 5.20767C109.175 5.23795 109.384 5.32879 109.517 5.4499C109.62 5.54074 109.82 5.78296 109.82 6.15236V6.7216V9.60411C109.811 10.6881 109.678 11.1362 109.402 11.3058C109.166 11.4511 108.926 11.4511 108.926 11.4511V12.1536L109.153 12.1414C109.558 12.1112 109.967 12.1112 110.465 12.1112C110.968 12.1112 111.408 12.1112 111.813 12.1414L112.035 12.1536V11.4511C112.035 11.4511 111.853 11.4572 111.582 11.3603C111.306 11.2573 111.141 11.0211 111.132 9.90689V6.5702C111.132 5.37118 111.212 4.4386 111.212 4.4386C111.212 4.4386 110.523 4.53549 110.127 4.51127C110.038 4.51127 108.926 4.45071 108.926 4.45071C108.926 4.45071 108.926 4.66872 108.926 4.83827C108.93 5.026 108.926 5.1895 108.926 5.1895L109.001 5.20767Z" fill="#2B2A29"/>
<path d="M117.276 12.178C118.429 11.5664 119.131 10.1978 119.131 8.21761C119.131 5.7166 117.859 4.01495 116.008 4.01495C114.149 4.01495 112.836 5.88616 112.836 8.30239C112.836 10.7004 113.998 12.2628 115.457 12.4324C115.457 12.4324 115.506 12.4505 115.875 12.4808L116.805 14.4368L118.664 14.4429L117.045 12.3052C117.263 12.1901 117.276 12.178 117.276 12.178ZM116.36 11.627C115.443 11.8934 114.46 10.9306 114.322 8.52039C114.22 6.71579 114.66 5.1837 115.808 5.05048C116.929 4.92331 117.588 6.27373 117.699 8.12072C117.806 9.92531 117.432 11.306 116.36 11.627Z" fill="#2B2A29"/>
</svg>
